<ttFont>
    <TTGlyph name=".notdef" xMin="3" yMin="0" xMax="510" yMax="701">
      <contour>
        <pt x="257" y="302" on="1"/>
        <pt x="253" y="302" on="1"/>
        <pt x="153" y="93" on="1"/>
        <pt x="93" y="93" on="1"/>
        <pt x="227" y="353" on="1"/>
        <pt x="93" y="608" on="1"/>
        <pt x="153" y="608" on="1"/>
        <pt x="258" y="402" on="1"/>
        <pt x="262" y="402" on="1"/>
        <pt x="362" y="608" on="1"/>
        <pt x="422" y="608" on="1"/>
        <pt x="287" y="347" on="1"/>
        <pt x="422" y="93" on="1"/>
        <pt x="362" y="93" on="1"/>
      </contour>
      <contour>
        <pt x="57" y="650" on="1"/>
        <pt x="57" y="51" on="1"/>
        <pt x="457" y="51" on="1"/>
        <pt x="457" y="650" on="1"/>
      </contour>
      <contour>
        <pt x="3" y="0" on="1"/>
        <pt x="3" y="701" on="1"/>
        <pt x="510" y="701" on="1"/>
        <pt x="510" y="0" on="1"/>
      </contour>
    </TTGlyph>
    <TTGlyph name="A" xMin="28" yMin="0" xMax="647" yMax="674">
      <contour>
        <pt x="511" y="0" on="1"/>
        <pt x="463" y="153" on="1"/>
        <pt x="208" y="153" on="1"/>
        <pt x="160" y="0" on="1"/>
        <pt x="28" y="0" on="1"/>
        <pt x="256" y="674" on="1"/>
        <pt x="419" y="674" on="1"/>
        <pt x="647" y="0" on="1"/>
      </contour>
      <contour>
        <pt x="241" y="256" on="1"/>
        <pt x="431" y="256" on="1"/>
        <pt x="348" y="529" on="0"/>
        <pt x="336" y="580" on="1"/>
        <pt x="328" y="537" on="0"/>
      </contour>
    </TTGlyph>
    <TTGlyph name="AE" xMin="14" yMin="0" xMax="861" yMax="674">
      <contour>
        <pt x="586" y="103" on="1"/>
        <pt x="861" y="103" on="1"/>
        <pt x="861" y="0" on="1"/>
        <pt x="463" y="0" on="1"/>
        <pt x="463" y="153" on="1"/>
        <pt x="228" y="153" on="1"/>
        <pt x="147" y="0" on="1"/>
        <pt x="14" y="0" on="1"/>
        <pt x="361" y="674" on="1"/>
        <pt x="857" y="674" on="1"/>
        <pt x="857" y="571" on="1"/>
        <pt x="586" y="571" on="1"/>
        <pt x="586" y="388" on="1"/>
        <pt x="827" y="388" on="1"/>
        <pt x="827" y="286" on="1"/>
        <pt x="586" y="286" on="1"/>
      </contour>
      <contour>
        <pt x="463" y="256" on="1"/>
        <pt x="463" y="611" on="1"/>
        <pt x="416" y="501" on="0"/>
        <pt x="298" y="285" on="1"/>
        <pt x="283" y="256" on="1"/>
      </contour>
    </TTGlyph>
    <TTGlyph name="Aacute" xMin="28" yMin="0" xMax="647" yMax="892">
      <contour>
        <pt x="511" y="0" on="1"/>
        <pt x="463" y="153" on="1"/>
        <pt x="208" y="153" on="1"/>
        <pt x="160" y="0" on="1"/>
        <pt x="28" y="0" on="1"/>
        <pt x="256" y="674" on="1"/>
        <pt x="419" y="674" on="1"/>
        <pt x="647" y="0" on="1"/>
      </contour>
      <contour>
        <pt x="241" y="256" on="1"/>
        <pt x="431" y="256" on="1"/>
        <pt x="348" y="529" on="0"/>
        <pt x="336" y="580" on="1"/>
        <pt x="328" y="537" on="0"/>
      </contour>
      <contour>
        <pt x="514" y="892" on="1"/>
        <pt x="398" y="723" on="1"/>
        <pt x="297" y="723" on="1"/>
        <pt x="388" y="892" on="1"/>
      </contour>
    </TTGlyph>
    <TTGlyph name="Abreve" xMin="28" yMin="0" xMax="647" yMax="892">
      <contour>
        <pt x="511" y="0" on="1"/>
        <pt x="463" y="153" on="1"/>
        <pt x="208" y="153" on="1"/>
        <pt x="160" y="0" on="1"/>
        <pt x="28" y="0" on="1"/>
        <pt x="256" y="674" on="1"/>
        <pt x="419" y="674" on="1"/>
        <pt x="647" y="0" on="1"/>
      </contour>
      <contour>
        <pt x="241" y="256" on="1"/>
        <pt x="431" y="256" on="1"/>
        <pt x="348" y="529" on="0"/>
        <pt x="336" y="580" on="1"/>
        <pt x="328" y="537" on="0"/>
      </contour>
      <contour>
        <pt x="427" y="892" on="1"/>
        <pt x="521" y="892" on="1"/>
        <pt x="521" y="806" on="0"/>
        <pt x="422" y="719" on="0"/>
        <pt x="250" y="719" on="0"/>
        <pt x="151" y="807" on="0"/>
        <pt x="151" y="892" on="1"/>
        <pt x="245" y="892" on="1"/>
        <pt x="245" y="849" on="0"/>
        <pt x="292" y="798" on="0"/>
        <pt x="380" y="798" on="0"/>
        <pt x="427" y="849" on="0"/>
      </contour>
    </TTGlyph>
    <TTGlyph name="Acircumflex" xMin="28" yMin="0" xMax="647" yMax="892">
      <contour>
        <pt x="511" y="0" on="1"/>
        <pt x="463" y="153" on="1"/>
        <pt x="208" y="153" on="1"/>
        <pt x="160" y="0" on="1"/>
        <pt x="28" y="0" on="1"/>
        <pt x="256" y="674" on="1"/>
        <pt x="419" y="674" on="1"/>
        <pt x="647" y="0" on="1"/>
      </contour>
      <contour>
        <pt x="241" y="256" on="1"/>
        <pt x="431" y="256" on="1"/>
        <pt x="348" y="529" on="0"/>
        <pt x="336" y="580" on="1"/>
        <pt x="328" y="537" on="0"/>
      </contour>
      <contour>
        <pt x="339" y="822" on="1"/>
        <pt x="258" y="723" on="1"/>
        <pt x="141" y="723" on="1"/>
        <pt x="286" y="892" on="1"/>
        <pt x="392" y="892" on="1"/>
        <pt x="537" y="723" on="1"/>
        <pt x="420" y="723" on="1"/>
      </contour>
    </TTGlyph>
    <TTGlyph name="Adieresis" xMin="28" yMin="0" xMax="647" yMax="878">
      <contour>
        <pt x="511" y="0" on="1"/>
        <pt x="463" y="153" on="1"/>
        <pt x="208" y="153" on="1"/>
        <pt x="160" y="0" on="1"/>
        <pt x="28" y="0" on="1"/>
        <pt x="256" y="674" on="1"/>
        <pt x="419" y="674" on="1"/>
        <pt x="647" y="0" on="1"/>
      </contour>
      <contour>
        <pt x="241" y="256" on="1"/>
        <pt x="431" y="256" on="1"/>
        <pt x="348" y="529" on="0"/>
        <pt x="336" y="580" on="1"/>
        <pt x="328" y="537" on="0"/>
      </contour>
      <contour>
        <pt x="292" y="779" on="0"/>
        <pt x="252" y="739" on="0"/>
        <pt x="191" y="739" on="0"/>
        <pt x="151" y="779" on="0"/>
        <pt x="151" y="838" on="0"/>
        <pt x="191" y="878" on="0"/>
        <pt x="252" y="878" on="0"/>
        <pt x="292" y="838" on="0"/>
      </contour>
      <contour>
        <pt x="535" y="779" on="0"/>
        <pt x="495" y="739" on="0"/>
        <pt x="434" y="739" on="0"/>
        <pt x="393" y="779" on="0"/>
        <pt x="393" y="838" on="0"/>
        <pt x="434" y="878" on="0"/>
        <pt x="495" y="878" on="0"/>
        <pt x="535" y="838" on="0"/>
      </contour>
    </TTGlyph>
    <TTGlyph name="Agrave" xMin="28" yMin="0" xMax="647" yMax="892">
      <contour>
        <pt x="511" y="0" on="1"/>
        <pt x="463" y="153" on="1"/>
        <pt x="208" y="153" on="1"/>
        <pt x="160" y="0" on="1"/>
        <pt x="28" y="0" on="1"/>
        <pt x="256" y="674" on="1"/>
        <pt x="419" y="674" on="1"/>
        <pt x="647" y="0" on="1"/>
      </contour>
      <contour>
        <pt x="241" y="256" on="1"/>
        <pt x="431" y="256" on="1"/>
        <pt x="348" y="529" on="0"/>
        <pt x="336" y="580" on="1"/>
        <pt x="328" y="537" on="0"/>
      </contour>
      <contour>
        <pt x="386" y="723" on="1"/>
        <pt x="285" y="723" on="1"/>
        <pt x="169" y="892" on="1"/>
        <pt x="295" y="892" on="1"/>
      </contour>
    </TTGlyph>
    <TTGlyph name="Amacron" xMin="28" yMin="0" xMax="647" yMax="850">
      <contour>
        <pt x="511" y="0" on="1"/>
        <pt x="463" y="153" on="1"/>
        <pt x="208" y="153" on="1"/>
        <pt x="160" y="0" on="1"/>
        <pt x="28" y="0" on="1"/>
        <pt x="256" y="674" on="1"/>
        <pt x="419" y="674" on="1"/>
        <pt x="647" y="0" on="1"/>
      </contour>
      <contour>
        <pt x="241" y="256" on="1"/>
        <pt x="431" y="256" on="1"/>
        <pt x="348" y="529" on="0"/>
        <pt x="336" y="580" on="1"/>
        <pt x="328" y="537" on="0"/>
      </contour>
      <contour>
        <pt x="505" y="850" on="1"/>
        <pt x="505" y="767" on="1"/>
        <pt x="177" y="767" on="1"/>
        <pt x="177" y="850" on="1"/>
      </contour>
    </TTGlyph>
    <TTGlyph name="Aogonek" xMin="24" yMin="-253" xMax="658" yMax="674">
      <contour>
        <pt x="527" y="-128" on="1"/>
        <pt x="527" y="-172" on="0"/>
        <pt x="578" y="-172" on="1"/>
        <pt x="619" y="-172" on="0"/>
        <pt x="658" y="-145" on="1"/>
        <pt x="658" y="-230" on="1"/>
        <pt x="618" y="-253" on="0"/>
        <pt x="495" y="-253" on="0"/>
        <pt x="429" y="-189" on="0"/>
        <pt x="429" y="-139" on="1"/>
        <pt x="429" y="-61" on="0"/>
        <pt x="506" y="5" on="1"/>
        <pt x="460" y="153" on="1"/>
        <pt x="205" y="153" on="1"/>
        <pt x="157" y="0" on="1"/>
        <pt x="24" y="0" on="1"/>
        <pt x="253" y="674" on="1"/>
        <pt x="416" y="674" on="1"/>
        <pt x="643" y="0" on="1"/>
        <pt x="527" y="-67" on="0"/>
      </contour>
      <contour>
        <pt x="237" y="256" on="1"/>
        <pt x="428" y="256" on="1"/>
        <pt x="345" y="529" on="0"/>
        <pt x="333" y="580" on="1"/>
        <pt x="325" y="539" on="0"/>
      </contour>
    </TTGlyph>
    <TTGlyph name="Aring" xMin="28" yMin="0" xMax="647" yMax="962">
      <contour>
        <pt x="511" y="0" on="1"/>
        <pt x="463" y="153" on="1"/>
        <pt x="208" y="153" on="1"/>
        <pt x="160" y="0" on="1"/>
        <pt x="28" y="0" on="1"/>
        <pt x="256" y="674" on="1"/>
        <pt x="419" y="674" on="1"/>
        <pt x="647" y="0" on="1"/>
      </contour>
      <contour>
        <pt x="241" y="256" on="1"/>
        <pt x="431" y="256" on="1"/>
        <pt x="348" y="529" on="0"/>
        <pt x="336" y="580" on="1"/>
        <pt x="328" y="537" on="0"/>
      </contour>
      <contour>
        <pt x="393" y="712" on="0"/>
        <pt x="289" y="712" on="0"/>
        <pt x="216" y="785" on="0"/>
        <pt x="216" y="889" on="0"/>
        <pt x="289" y="962" on="0"/>
        <pt x="393" y="962" on="0"/>
        <pt x="466" y="889" on="0"/>
        <pt x="466" y="785" on="0"/>
      </contour>
      <contour>
        <pt x="364" y="894" on="0"/>
        <pt x="318" y="894" on="0"/>
        <pt x="288" y="861" on="0"/>
        <pt x="288" y="817" on="0"/>
        <pt x="318" y="784" on="0"/>
        <pt x="364" y="784" on="0"/>
        <pt x="394" y="817" on="0"/>
        <pt x="394" y="861" on="0"/>
      </contour>
    </TTGlyph>
    <TTGlyph name="Atilde" xMin="28" yMin="0" xMax="647" yMax="877">
      <contour>
        <pt x="511" y="0" on="1"/>
        <pt x="463" y="153" on="1"/>
        <pt x="208" y="153" on="1"/>
        <pt x="160" y="0" on="1"/>
        <pt x="28" y="0" on="1"/>
        <pt x="256" y="674" on="1"/>
        <pt x="419" y="674" on="1"/>
        <pt x="647" y="0" on="1"/>
      </contour>
      <contour>
        <pt x="241" y="256" on="1"/>
        <pt x="431" y="256" on="1"/>
        <pt x="348" y="529" on="0"/>
        <pt x="336" y="580" on="1"/>
        <pt x="328" y="537" on="0"/>
      </contour>
      <contour>
        <pt x="404" y="747" on="1"/>
        <pt x="374" y="747" on="0"/>
        <pt x="296" y="785" on="0"/>
        <pt x="257" y="785" on="0"/>
        <pt x="227" y="766" on="0"/>
        <pt x="209" y="741" on="1"/>
        <pt x="152" y="794" on="1"/>
        <pt x="168" y="827" on="0"/>
        <pt x="227" y="872" on="0"/>
        <pt x="297" y="872" on="0"/>
        <pt x="379" y="834" on="0"/>
        <pt x="398" y="834" on="1"/>
        <pt x="441" y="834" on="0"/>
        <pt x="462" y="877" on="1"/>
        <pt x="526" y="826" on="1"/>
        <pt x="487" y="747" on="0"/>
      </contour>
    </TTGlyph>
    <TTGlyph name="B" xMin="70" yMin="0" xMax="554" yMax="674">
      <contour>
        <pt x="70" y="674" on="1"/>
        <pt x="309" y="674" on="1"/>
        <pt x="417" y="674" on="0"/>
        <pt x="537" y="572" on="0"/>
        <pt x="537" y="491" on="1"/>
        <pt x="537" y="436" on="0"/>
        <pt x="477" y="355" on="0"/>
        <pt x="430" y="342" on="1"/>
        <pt x="484" y="329" on="0"/>
        <pt x="554" y="250" on="0"/>
        <pt x="554" y="102" on="0"/>
        <pt x="442" y="0" on="0"/>
        <pt x="343" y="0" on="1"/>
        <pt x="70" y="0" on="1"/>
      </contour>
      <contour>
        <pt x="196" y="571" on="1"/>
        <pt x="196" y="390" on="1"/>
        <pt x="272" y="390" on="1"/>
        <pt x="340" y="390" on="0"/>
        <pt x="408" y="444" on="0"/>
        <pt x="408" y="525" on="0"/>
        <pt x="351" y="571" on="0"/>
        <pt x="293" y="571" on="1"/>
      </contour>
      <contour>
        <pt x="196" y="103" on="1"/>
        <pt x="304" y="103" on="1"/>
        <pt x="425" y="103" on="0"/>
        <pt x="425" y="195" on="1"/>
        <pt x="425" y="289" on="0"/>
        <pt x="299" y="289" on="1"/>
        <pt x="196" y="289" on="1"/>
      </contour>
    </TTGlyph>
    <TTGlyph name="C" xMin="43" yMin="-8" xMax="562" yMax="683">
      <contour>
        <pt x="485" y="567" on="0"/>
        <pt x="301" y="567" on="0"/>
        <pt x="178" y="442" on="0"/>
        <pt x="178" y="232" on="0"/>
        <pt x="301" y="108" on="0"/>
        <pt x="495" y="108" on="0"/>
        <pt x="562" y="158" on="1"/>
        <pt x="562" y="32" on="1"/>
        <pt x="500" y="-8" on="0"/>
        <pt x="388" y="-8" on="1"/>
        <pt x="238" y="-8" on="0"/>
        <pt x="43" y="181" on="0"/>
        <pt x="43" y="490" on="0"/>
        <pt x="236" y="683" on="0"/>
        <pt x="388" y="683" on="1"/>
        <pt x="499" y="683" on="0"/>
        <pt x="561" y="646" on="1"/>
        <pt x="561" y="523" on="1"/>
      </contour>
    </TTGlyph>
    <TTGlyph name="Cacute" xMin="43" yMin="-8" xMax="562" yMax="892">
      <contour>
        <pt x="314" y="723" on="1"/>
        <pt x="405" y="892" on="1"/>
        <pt x="531" y="892" on="1"/>
        <pt x="415" y="723" on="1"/>
      </contour>
      <contour>
        <pt x="485" y="567" on="0"/>
        <pt x="301" y="567" on="0"/>
        <pt x="178" y="442" on="0"/>
        <pt x="178" y="232" on="0"/>
        <pt x="301" y="108" on="0"/>
        <pt x="495" y="108" on="0"/>
        <pt x="562" y="158" on="1"/>
        <pt x="562" y="32" on="1"/>
        <pt x="500" y="-8" on="0"/>
        <pt x="388" y="-8" on="1"/>
        <pt x="238" y="-8" on="0"/>
        <pt x="43" y="181" on="0"/>
        <pt x="43" y="490" on="0"/>
        <pt x="236" y="683" on="0"/>
        <pt x="388" y="683" on="1"/>
        <pt x="499" y="683" on="0"/>
        <pt x="561" y="646" on="1"/>
        <pt x="561" y="523" on="1"/>
      </contour>
    </TTGlyph>
    <TTGlyph name="Ccaron" xMin="43" yMin="-8" xMax="565" yMax="892">
      <contour>
        <pt x="420" y="723" on="1"/>
        <pt x="314" y="723" on="1"/>
        <pt x="169" y="892" on="1"/>
        <pt x="286" y="892" on="1"/>
        <pt x="367" y="793" on="1"/>
        <pt x="448" y="892" on="1"/>
        <pt x="565" y="892" on="1"/>
      </contour>
      <contour>
        <pt x="485" y="567" on="0"/>
        <pt x="301" y="567" on="0"/>
        <pt x="178" y="442" on="0"/>
        <pt x="178" y="232" on="0"/>
        <pt x="301" y="108" on="0"/>
        <pt x="495" y="108" on="0"/>
        <pt x="562" y="158" on="1"/>
        <pt x="562" y="32" on="1"/>
        <pt x="500" y="-8" on="0"/>
        <pt x="388" y="-8" on="1"/>
        <pt x="238" y="-8" on="0"/>
        <pt x="43" y="181" on="0"/>
        <pt x="43" y="490" on="0"/>
        <pt x="236" y="683" on="0"/>
        <pt x="388" y="683" on="1"/>
        <pt x="499" y="683" on="0"/>
        <pt x="561" y="646" on="1"/>
        <pt x="561" y="523" on="1"/>
      </contour>
    </TTGlyph>
    <TTGlyph name="Ccedilla" xMin="43" yMin="-262" xMax="562" yMax="683">
      <contour>
        <pt x="485" y="567" on="0"/>
        <pt x="301" y="567" on="0"/>
        <pt x="178" y="442" on="0"/>
        <pt x="178" y="232" on="0"/>
        <pt x="301" y="108" on="0"/>
        <pt x="495" y="108" on="0"/>
        <pt x="562" y="158" on="1"/>
        <pt x="562" y="32" on="1"/>
        <pt x="500" y="-8" on="0"/>
        <pt x="388" y="-8" on="1"/>
        <pt x="238" y="-8" on="0"/>
        <pt x="43" y="181" on="0"/>
        <pt x="43" y="490" on="0"/>
        <pt x="236" y="683" on="0"/>
        <pt x="388" y="683" on="1"/>
        <pt x="499" y="683" on="0"/>
        <pt x="561" y="646" on="1"/>
        <pt x="561" y="523" on="1"/>
      </contour>
      <contour>
        <pt x="421" y="-51" on="1"/>
        <pt x="439" y="-78" on="0"/>
        <pt x="439" y="-183" on="0"/>
        <pt x="353" y="-261" on="0"/>
        <pt x="270" y="-262" on="1"/>
        <pt x="270" y="-184" on="1"/>
        <pt x="349" y="-181" on="0"/>
        <pt x="349" y="-117" on="1"/>
        <pt x="349" y="-88" on="0"/>
        <pt x="324" y="-51" on="1"/>
      </contour>
    </TTGlyph>
    <TTGlyph name="Ccircumflex" xMin="43" yMin="-8" xMax="562" yMax="892">
      <contour>
        <pt x="301" y="892" on="1"/>
        <pt x="407" y="892" on="1"/>
        <pt x="552" y="723" on="1"/>
        <pt x="435" y="723" on="1"/>
        <pt x="354" y="822" on="1"/>
        <pt x="273" y="723" on="1"/>
        <pt x="156" y="723" on="1"/>
      </contour>
      <contour>
        <pt x="485" y="567" on="0"/>
        <pt x="301" y="567" on="0"/>
        <pt x="178" y="442" on="0"/>
        <pt x="178" y="232" on="0"/>
        <pt x="301" y="108" on="0"/>
        <pt x="495" y="108" on="0"/>
        <pt x="562" y="158" on="1"/>
        <pt x="562" y="32" on="1"/>
        <pt x="500" y="-8" on="0"/>
        <pt x="388" y="-8" on="1"/>
        <pt x="238" y="-8" on="0"/>
        <pt x="43" y="181" on="0"/>
        <pt x="43" y="490" on="0"/>
        <pt x="236" y="683" on="0"/>
        <pt x="388" y="683" on="1"/>
        <pt x="499" y="683" on="0"/>
        <pt x="561" y="646" on="1"/>
        <pt x="561" y="523" on="1"/>
      </contour>
    </TTGlyph>
    <TTGlyph name="Cdotaccent" xMin="43" yMin="-8" xMax="562" yMax="879">
      <contour>
        <pt x="485" y="567" on="0"/>
        <pt x="301" y="567" on="0"/>
        <pt x="178" y="442" on="0"/>
        <pt x="178" y="232" on="0"/>
        <pt x="301" y="108" on="0"/>
        <pt x="495" y="108" on="0"/>
        <pt x="562" y="158" on="1"/>
        <pt x="562" y="32" on="1"/>
        <pt x="500" y="-8" on="0"/>
        <pt x="388" y="-8" on="1"/>
        <pt x="238" y="-8" on="0"/>
        <pt x="43" y="181" on="0"/>
        <pt x="43" y="490" on="0"/>
        <pt x="236" y="683" on="0"/>
        <pt x="388" y="683" on="1"/>
        <pt x="499" y="683" on="0"/>
        <pt x="561" y="646" on="1"/>
        <pt x="561" y="523" on="1"/>
      </contour>
      <contour>
        <pt x="343" y="740" on="0"/>
        <pt x="303" y="780" on="0"/>
        <pt x="303" y="839" on="0"/>
        <pt x="343" y="879" on="0"/>
        <pt x="404" y="879" on="0"/>
        <pt x="444" y="839" on="0"/>
        <pt x="444" y="780" on="0"/>
        <pt x="404" y="740" on="0"/>
      </contour>
    </TTGlyph>
    <TTGlyph name="D" xMin="70" yMin="0" xMax="633" yMax="674">
      <contour>
        <pt x="70" y="674" on="1"/>
        <pt x="290" y="674" on="1"/>
        <pt x="441" y="674" on="0"/>
        <pt x="633" y="488" on="0"/>
        <pt x="633" y="191" on="0"/>
        <pt x="447" y="0" on="0"/>
        <pt x="290" y="0" on="1"/>
        <pt x="70" y="0" on="1"/>
      </contour>
      <contour>
        <pt x="199" y="105" on="1"/>
        <pt x="288" y="105" on="1"/>
        <pt x="394" y="105" on="0"/>
        <pt x="504" y="236" on="0"/>
        <pt x="504" y="443" on="0"/>
        <pt x="387" y="568" on="0"/>
        <pt x="286" y="568" on="1"/>
        <pt x="199" y="568" on="1"/>
      </contour>
    </TTGlyph>
    <TTGlyph name="Dcaron" xMin="70" yMin="0" xMax="633" yMax="892">
      <contour>
        <pt x="70" y="674" on="1"/>
        <pt x="290" y="674" on="1"/>
        <pt x="441" y="674" on="0"/>
        <pt x="633" y="488" on="0"/>
        <pt x="633" y="191" on="0"/>
        <pt x="447" y="0" on="0"/>
        <pt x="290" y="0" on="1"/>
        <pt x="70" y="0" on="1"/>
      </contour>
      <contour>
        <pt x="199" y="105" on="1"/>
        <pt x="288" y="105" on="1"/>
        <pt x="394" y="105" on="0"/>
        <pt x="504" y="236" on="0"/>
        <pt x="504" y="443" on="0"/>
        <pt x="387" y="568" on="0"/>
        <pt x="286" y="568" on="1"/>
        <pt x="199" y="568" on="1"/>
      </contour>
      <contour>
        <pt x="368" y="723" on="1"/>
        <pt x="262" y="723" on="1"/>
        <pt x="117" y="892" on="1"/>
        <pt x="234" y="892" on="1"/>
        <pt x="315" y="793" on="1"/>
        <pt x="396" y="892" on="1"/>
        <pt x="513" y="892" on="1"/>
      </contour>
    </TTGlyph>
    <TTGlyph name="Dcroat" xMin="64" yMin="0" xMax="700" yMax="674">
      <contour>
        <pt x="137" y="674" on="1"/>
        <pt x="357" y="674" on="1"/>
        <pt x="508" y="674" on="0"/>
        <pt x="700" y="488" on="0"/>
        <pt x="700" y="190" on="0"/>
        <pt x="515" y="0" on="0"/>
        <pt x="357" y="0" on="1"/>
        <pt x="137" y="0" on="1"/>
        <pt x="137" y="282" on="1"/>
        <pt x="64" y="282" on="1"/>
        <pt x="64" y="385" on="1"/>
        <pt x="137" y="385" on="1"/>
      </contour>
      <contour>
        <pt x="266" y="105" on="1"/>
        <pt x="355" y="105" on="1"/>
        <pt x="461" y="105" on="0"/>
        <pt x="572" y="236" on="0"/>
        <pt x="572" y="443" on="0"/>
        <pt x="454" y="568" on="0"/>
        <pt x="353" y="568" on="1"/>
        <pt x="266" y="568" on="1"/>
        <pt x="266" y="385" on="1"/>
        <pt x="418" y="385" on="1"/>
        <pt x="418" y="282" on="1"/>
        <pt x="266" y="282" on="1"/>
      </contour>
    </TTGlyph>
    <TTGlyph name="Delta" xMin="34" yMin="0" xMax="624" yMax="674">
      <contour>
        <pt x="624" y="0" on="1"/>
        <pt x="34" y="0" on="1"/>
        <pt x="34" y="88" on="1"/>
        <pt x="249" y="674" on="1"/>
        <pt x="412" y="674" on="1"/>
        <pt x="624" y="88" on="1"/>
      </contour>
      <contour>
        <pt x="168" y="103" on="1"/>
        <pt x="489" y="103" on="1"/>
        <pt x="329" y="581" on="1"/>
      </contour>
    </TTGlyph>
    <TTGlyph name="E" xMin="70" yMin="0" xMax="472" yMax="674">
      <contour>
        <pt x="197" y="103" on="1"/>
        <pt x="472" y="103" on="1"/>
        <pt x="472" y="0" on="1"/>
        <pt x="70" y="0" on="1"/>
        <pt x="70" y="674" on="1"/>
        <pt x="468" y="674" on="1"/>
        <pt x="468" y="571" on="1"/>
        <pt x="197" y="571" on="1"/>
        <pt x="197" y="388" on="1"/>
        <pt x="438" y="388" on="1"/>
        <pt x="438" y="286" on="1"/>
        <pt x="197" y="286" on="1"/>
      </contour>
    </TTGlyph>
    <TTGlyph name="Eacute" xMin="70" yMin="0" xMax="472" yMax="892">
      <contour>
        <pt x="197" y="103" on="1"/>
        <pt x="472" y="103" on="1"/>
        <pt x="472" y="0" on="1"/>
        <pt x="70" y="0" on="1"/>
        <pt x="70" y="674" on="1"/>
        <pt x="468" y="674" on="1"/>
        <pt x="468" y="571" on="1"/>
        <pt x="197" y="571" on="1"/>
        <pt x="197" y="388" on="1"/>
        <pt x="438" y="388" on="1"/>
        <pt x="438" y="286" on="1"/>
        <pt x="197" y="286" on="1"/>
      </contour>
      <contour>
        <pt x="448" y="892" on="1"/>
        <pt x="332" y="723" on="1"/>
        <pt x="231" y="723" on="1"/>
        <pt x="322" y="892" on="1"/>
      </contour>
    </TTGlyph>
    <TTGlyph name="Ebreve" xMin="70" yMin="0" xMax="472" yMax="892">
      <contour>
        <pt x="197" y="103" on="1"/>
        <pt x="472" y="103" on="1"/>
        <pt x="472" y="0" on="1"/>
        <pt x="70" y="0" on="1"/>
        <pt x="70" y="674" on="1"/>
        <pt x="468" y="674" on="1"/>
        <pt x="468" y="571" on="1"/>
        <pt x="197" y="571" on="1"/>
        <pt x="197" y="388" on="1"/>
        <pt x="438" y="388" on="1"/>
        <pt x="438" y="286" on="1"/>
        <pt x="197" y="286" on="1"/>
      </contour>
      <contour>
        <pt x="369" y="892" on="1"/>
        <pt x="463" y="892" on="1"/>
        <pt x="463" y="806" on="0"/>
        <pt x="364" y="719" on="0"/>
        <pt x="192" y="719" on="0"/>
        <pt x="93" y="807" on="0"/>
        <pt x="93" y="892" on="1"/>
        <pt x="187" y="892" on="1"/>
        <pt x="187" y="849" on="0"/>
        <pt x="234" y="798" on="0"/>
        <pt x="322" y="798" on="0"/>
        <pt x="369" y="849" on="0"/>
      </contour>
    </TTGlyph>
    <TTGlyph name="Ecaron" xMin="70" yMin="0" xMax="474" yMax="892">
      <contour>
        <pt x="197" y="286" on="1"/>
        <pt x="197" y="103" on="1"/>
        <pt x="472" y="103" on="1"/>
        <pt x="472" y="0" on="1"/>
        <pt x="70" y="0" on="1"/>
        <pt x="70" y="674" on="1"/>
        <pt x="468" y="674" on="1"/>
        <pt x="468" y="571" on="1"/>
        <pt x="197" y="571" on="1"/>
        <pt x="197" y="388" on="1"/>
        <pt x="438" y="388" on="1"/>
        <pt x="438" y="286" on="1"/>
      </contour>
      <contour>
        <pt x="329" y="723" on="1"/>
        <pt x="223" y="723" on="1"/>
        <pt x="78" y="892" on="1"/>
        <pt x="195" y="892" on="1"/>
        <pt x="276" y="793" on="1"/>
        <pt x="357" y="892" on="1"/>
        <pt x="474" y="892" on="1"/>
      </contour>
    </TTGlyph>
    <TTGlyph name="Ecircumflex" xMin="70" yMin="0" xMax="472" yMax="892">
      <contour>
        <pt x="197" y="103" on="1"/>
        <pt x="472" y="103" on="1"/>
        <pt x="472" y="0" on="1"/>
        <pt x="70" y="0" on="1"/>
        <pt x="70" y="674" on="1"/>
        <pt x="468" y="674" on="1"/>
        <pt x="468" y="571" on="1"/>
        <pt x="197" y="571" on="1"/>
        <pt x="197" y="388" on="1"/>
        <pt x="438" y="388" on="1"/>
        <pt x="438" y="286" on="1"/>
        <pt x="197" y="286" on="1"/>
      </contour>
      <contour>
        <pt x="273" y="822" on="1"/>
        <pt x="192" y="723" on="1"/>
        <pt x="75" y="723" on="1"/>
        <pt x="220" y="892" on="1"/>
        <pt x="326" y="892" on="1"/>
        <pt x="471" y="723" on="1"/>
        <pt x="354" y="723" on="1"/>
      </contour>
    </TTGlyph>
    <TTGlyph name="Edieresis" xMin="70" yMin="0" xMax="472" yMax="876">
      <contour>
        <pt x="197" y="103" on="1"/>
        <pt x="472" y="103" on="1"/>
        <pt x="472" y="0" on="1"/>
        <pt x="70" y="0" on="1"/>
        <pt x="70" y="674" on="1"/>
        <pt x="468" y="674" on="1"/>
        <pt x="468" y="571" on="1"/>
        <pt x="197" y="571" on="1"/>
        <pt x="197" y="388" on="1"/>
        <pt x="438" y="388" on="1"/>
        <pt x="438" y="286" on="1"/>
        <pt x="197" y="286" on="1"/>
      </contour>
      <contour>
        <pt x="220" y="777" on="0"/>
        <pt x="180" y="737" on="0"/>
        <pt x="119" y="737" on="0"/>
        <pt x="79" y="777" on="0"/>
        <pt x="79" y="836" on="0"/>
        <pt x="119" y="876" on="0"/>
        <pt x="180" y="876" on="0"/>
        <pt x="220" y="836" on="0"/>
      </contour>
      <contour>
        <pt x="463" y="777" on="0"/>
        <pt x="423" y="737" on="0"/>
        <pt x="362" y="737" on="0"/>
        <pt x="321" y="777" on="0"/>
        <pt x="321" y="836" on="0"/>
        <pt x="362" y="876" on="0"/>
        <pt x="423" y="876" on="0"/>
        <pt x="463" y="836" on="0"/>
      </contour>
    </TTGlyph>
    <TTGlyph name="Edotaccent" xMin="70" yMin="0" xMax="472" yMax="878">
      <contour>
        <pt x="197" y="103" on="1"/>
        <pt x="472" y="103" on="1"/>
        <pt x="472" y="0" on="1"/>
        <pt x="70" y="0" on="1"/>
        <pt x="70" y="674" on="1"/>
        <pt x="468" y="674" on="1"/>
        <pt x="468" y="571" on="1"/>
        <pt x="197" y="571" on="1"/>
        <pt x="197" y="388" on="1"/>
        <pt x="438" y="388" on="1"/>
        <pt x="438" y="286" on="1"/>
        <pt x="197" y="286" on="1"/>
      </contour>
      <contour>
        <pt x="349" y="779" on="0"/>
        <pt x="309" y="739" on="0"/>
        <pt x="248" y="739" on="0"/>
        <pt x="208" y="779" on="0"/>
        <pt x="208" y="838" on="0"/>
        <pt x="248" y="878" on="0"/>
        <pt x="309" y="878" on="0"/>
        <pt x="349" y="838" on="0"/>
      </contour>
    </TTGlyph>
    <TTGlyph name="Egrave" xMin="70" yMin="0" xMax="472" yMax="892">
      <contour>
        <pt x="197" y="103" on="1"/>
        <pt x="472" y="103" on="1"/>
        <pt x="472" y="0" on="1"/>
        <pt x="70" y="0" on="1"/>
        <pt x="70" y="674" on="1"/>
        <pt x="468" y="674" on="1"/>
        <pt x="468" y="571" on="1"/>
        <pt x="197" y="571" on="1"/>
        <pt x="197" y="388" on="1"/>
        <pt x="438" y="388" on="1"/>
        <pt x="438" y="286" on="1"/>
        <pt x="197" y="286" on="1"/>
      </contour>
      <contour>
        <pt x="336" y="723" on="1"/>
        <pt x="235" y="723" on="1"/>
        <pt x="119" y="892" on="1"/>
        <pt x="245" y="892" on="1"/>
      </contour>
    </TTGlyph>
    <TTGlyph name="Emacron" xMin="70" yMin="0" xMax="472" yMax="852">
      <contour>
        <pt x="197" y="103" on="1"/>
        <pt x="472" y="103" on="1"/>
        <pt x="472" y="0" on="1"/>
        <pt x="70" y="0" on="1"/>
        <pt x="70" y="674" on="1"/>
        <pt x="468" y="674" on="1"/>
        <pt x="468" y="571" on="1"/>
        <pt x="197" y="571" on="1"/>
        <pt x="197" y="388" on="1"/>
        <pt x="438" y="388" on="1"/>
        <pt x="438" y="286" on="1"/>
        <pt x="197" y="286" on="1"/>
      </contour>
      <contour>
        <pt x="433" y="852" on="1"/>
        <pt x="433" y="769" on="1"/>
        <pt x="105" y="769" on="1"/>
        <pt x="105" y="852" on="1"/>
      </contour>
    </TTGlyph>
    <TTGlyph name="Eng" xMin="70" yMin="-198" xMax="619" yMax="674">
      <contour>
        <pt x="492" y="674" on="1"/>
        <pt x="619" y="674" on="1"/>
        <pt x="619" y="-5" on="1"/>
        <pt x="619" y="-100" on="0"/>
        <pt x="522" y="-198" on="0"/>
        <pt x="372" y="-198" on="0"/>
        <pt x="335" y="-177" on="1"/>
        <pt x="335" y="-63" on="1"/>
        <pt x="373" y="-87" on="0"/>
        <pt x="415" y="-87" on="1"/>
        <pt x="492" y="-87" on="0"/>
        <pt x="492" y="-5" on="1"/>
        <pt x="492" y="0" on="1"/>
        <pt x="475" y="0" on="1"/>
        <pt x="311" y="280" on="1"/>
        <pt x="233" y="412" on="0"/>
        <pt x="185" y="522" on="1"/>
        <pt x="196" y="427" on="0"/>
        <pt x="196" y="281" on="1"/>
        <pt x="196" y="0" on="1"/>
        <pt x="70" y="0" on="1"/>
        <pt x="70" y="674" on="1"/>
        <pt x="213" y="674" on="1"/>
        <pt x="417" y="319" on="0"/>
        <pt x="478" y="205" on="0"/>
        <pt x="500" y="155" on="1"/>
        <pt x="492" y="238" on="0"/>
        <pt x="492" y="393" on="1"/>
      </contour>
    </TTGlyph>
    <TTGlyph name="Eogonek" xMin="70" yMin="-253" xMax="472" yMax="674">
      <contour>
        <pt x="472" y="0" on="1"/>
        <pt x="438" y="0" on="1"/>
        <pt x="322" y="-67" on="0"/>
        <pt x="322" y="-128" on="1"/>
        <pt x="322" y="-172" on="0"/>
        <pt x="374" y="-172" on="1"/>
        <pt x="413" y="-172" on="0"/>
        <pt x="454" y="-145" on="1"/>
        <pt x="454" y="-230" on="1"/>
        <pt x="413" y="-253" on="0"/>
        <pt x="290" y="-253" on="0"/>
        <pt x="224" y="-189" on="0"/>
        <pt x="224" y="-139" on="1"/>
        <pt x="224" y="-62" on="0"/>
        <pt x="303" y="0" on="1"/>
        <pt x="70" y="0" on="1"/>
        <pt x="70" y="674" on="1"/>
        <pt x="468" y="674" on="1"/>
        <pt x="468" y="571" on="1"/>
        <pt x="197" y="571" on="1"/>
        <pt x="197" y="388" on="1"/>
        <pt x="438" y="388" on="1"/>
        <pt x="438" y="286" on="1"/>
        <pt x="197" y="286" on="1"/>
        <pt x="197" y="103" on="1"/>
        <pt x="472" y="103" on="1"/>
      </contour>
    </TTGlyph>
    <TTGlyph name="Eth" xMin="64" yMin="0" xMax="700" yMax="674">
      <contour>
        <pt x="137" y="674" on="1"/>
        <pt x="357" y="674" on="1"/>
        <pt x="508" y="674" on="0"/>
        <pt x="700" y="488" on="0"/>
        <pt x="700" y="190" on="0"/>
        <pt x="515" y="0" on="0"/>
        <pt x="357" y="0" on="1"/>
        <pt x="137" y="0" on="1"/>
        <pt x="137" y="282" on="1"/>
        <pt x="64" y="282" on="1"/>
        <pt x="64" y="385" on="1"/>
        <pt x="137" y="385" on="1"/>
      </contour>
      <contour>
        <pt x="266" y="105" on="1"/>
        <pt x="355" y="105" on="1"/>
        <pt x="461" y="105" on="0"/>
        <pt x="572" y="236" on="0"/>
        <pt x="572" y="443" on="0"/>
        <pt x="454" y="568" on="0"/>
        <pt x="353" y="568" on="1"/>
        <pt x="266" y="568" on="1"/>
        <pt x="266" y="385" on="1"/>
        <pt x="418" y="385" on="1"/>
        <pt x="418" y="282" on="1"/>
        <pt x="266" y="282" on="1"/>
      </contour>
    </TTGlyph>
    <TTGlyph name="Euro" xMin="45" yMin="-8" xMax="570" yMax="662">
      <contour>
        <pt x="443" y="548" on="1"/>
        <pt x="324" y="548" on="0"/>
        <pt x="276" y="442" on="1"/>
        <pt x="463" y="442" on="1"/>
        <pt x="463" y="364" on="1"/>
        <pt x="255" y="364" on="1"/>
        <pt x="252" y="343" on="0"/>
        <pt x="252" y="308" on="0"/>
        <pt x="254" y="286" on="1"/>
        <pt x="463" y="286" on="1"/>
        <pt x="463" y="209" on="1"/>
        <pt x="274" y="209" on="1"/>
        <pt x="296" y="158" on="0"/>
        <pt x="382" y="104" on="0"/>
        <pt x="514" y="104" on="0"/>
        <pt x="570" y="144" on="1"/>
        <pt x="570" y="23" on="1"/>
        <pt x="511" y="-8" on="0"/>
        <pt x="321" y="-8" on="0"/>
        <pt x="170" y="109" on="0"/>
        <pt x="140" y="209" on="1"/>
        <pt x="45" y="209" on="1"/>
        <pt x="45" y="286" on="1"/>
        <pt x="126" y="286" on="1"/>
        <pt x="125" y="298" on="0"/>
        <pt x="125" y="336" on="0"/>
        <pt x="127" y="364" on="1"/>
        <pt x="45" y="364" on="1"/>
        <pt x="45" y="442" on="1"/>
        <pt x="141" y="442" on="1"/>
        <pt x="170" y="546" on="0"/>
        <pt x="324" y="662" on="0"/>
        <pt x="514" y="662" on="0"/>
        <pt x="570" y="630" on="1"/>
        <pt x="570" y="509" on="1"/>
        <pt x="517" y="548" on="0"/>
      </contour>
    </TTGlyph>
    <TTGlyph name="F" xMin="70" yMin="0" xMax="465" yMax="674">
      <contour>
        <pt x="465" y="571" on="1"/>
        <pt x="197" y="571" on="1"/>
        <pt x="197" y="372" on="1"/>
        <pt x="431" y="372" on="1"/>
        <pt x="431" y="269" on="1"/>
        <pt x="197" y="269" on="1"/>
        <pt x="197" y="0" on="1"/>
        <pt x="70" y="0" on="1"/>
        <pt x="70" y="674" on="1"/>
        <pt x="465" y="674" on="1"/>
      </contour>
    </TTGlyph>
    <TTGlyph name="G" xMin="43" yMin="-8" xMax="630" yMax="686">
      <contour>
        <pt x="630" y="393" on="1"/>
        <pt x="630" y="69" on="1"/>
        <pt x="629" y="69" on="1"/>
        <pt x="630" y="58" on="1"/>
        <pt x="538" y="-8" on="0"/>
        <pt x="400" y="-8" on="1"/>
        <pt x="240" y="-8" on="0"/>
        <pt x="43" y="178" on="0"/>
        <pt x="43" y="494" on="0"/>
        <pt x="246" y="686" on="0"/>
        <pt x="401" y="686" on="1"/>
        <pt x="516" y="686" on="0"/>
        <pt x="598" y="643" on="1"/>
        <pt x="598" y="514" on="1"/>
        <pt x="506" y="569" on="0"/>
        <pt x="302" y="569" on="0"/>
        <pt x="178" y="443" on="0"/>
        <pt x="178" y="231" on="0"/>
        <pt x="299" y="108" on="0"/>
        <pt x="405" y="108" on="1"/>
        <pt x="457" y="108" on="0"/>
        <pt x="506" y="126" on="1"/>
        <pt x="506" y="285" on="1"/>
        <pt x="382" y="285" on="1"/>
        <pt x="382" y="393" on="1"/>
      </contour>
    </TTGlyph>
    <TTGlyph name="Gbreve" xMin="43" yMin="-8" xMax="630" yMax="892">
      <contour>
        <pt x="630" y="393" on="1"/>
        <pt x="630" y="69" on="1"/>
        <pt x="629" y="69" on="1"/>
        <pt x="630" y="58" on="1"/>
        <pt x="538" y="-8" on="0"/>
        <pt x="400" y="-8" on="1"/>
        <pt x="240" y="-8" on="0"/>
        <pt x="43" y="178" on="0"/>
        <pt x="43" y="494" on="0"/>
        <pt x="246" y="686" on="0"/>
        <pt x="401" y="686" on="1"/>
        <pt x="516" y="686" on="0"/>
        <pt x="598" y="643" on="1"/>
        <pt x="598" y="514" on="1"/>
        <pt x="506" y="569" on="0"/>
        <pt x="302" y="569" on="0"/>
        <pt x="178" y="443" on="0"/>
        <pt x="178" y="231" on="0"/>
        <pt x="299" y="108" on="0"/>
        <pt x="405" y="108" on="1"/>
        <pt x="457" y="108" on="0"/>
        <pt x="506" y="126" on="1"/>
        <pt x="506" y="285" on="1"/>
        <pt x="382" y="285" on="1"/>
        <pt x="382" y="393" on="1"/>
      </contour>
      <contour>
        <pt x="465" y="892" on="1"/>
        <pt x="559" y="892" on="1"/>
        <pt x="559" y="806" on="0"/>
        <pt x="460" y="719" on="0"/>
        <pt x="288" y="719" on="0"/>
        <pt x="189" y="807" on="0"/>
        <pt x="189" y="892" on="1"/>
        <pt x="283" y="892" on="1"/>
        <pt x="283" y="849" on="0"/>
        <pt x="330" y="798" on="0"/>
        <pt x="418" y="798" on="0"/>
        <pt x="465" y="849" on="0"/>
      </contour>
    </TTGlyph>
    <TTGlyph name="Gcircumflex" xMin="43" yMin="-8" xMax="630" yMax="892">
      <contour>
        <pt x="630" y="393" on="1"/>
        <pt x="630" y="69" on="1"/>
        <pt x="629" y="69" on="1"/>
        <pt x="630" y="58" on="1"/>
        <pt x="538" y="-8" on="0"/>
        <pt x="400" y="-8" on="1"/>
        <pt x="240" y="-8" on="0"/>
        <pt x="43" y="178" on="0"/>
        <pt x="43" y="494" on="0"/>
        <pt x="246" y="686" on="0"/>
        <pt x="401" y="686" on="1"/>
        <pt x="516" y="686" on="0"/>
        <pt x="598" y="643" on="1"/>
        <pt x="598" y="514" on="1"/>
        <pt x="506" y="569" on="0"/>
        <pt x="302" y="569" on="0"/>
        <pt x="178" y="443" on="0"/>
        <pt x="178" y="231" on="0"/>
        <pt x="299" y="108" on="0"/>
        <pt x="405" y="108" on="1"/>
        <pt x="457" y="108" on="0"/>
        <pt x="506" y="126" on="1"/>
        <pt x="506" y="285" on="1"/>
        <pt x="382" y="285" on="1"/>
        <pt x="382" y="393" on="1"/>
      </contour>
      <contour>
        <pt x="378" y="822" on="1"/>
        <pt x="297" y="723" on="1"/>
        <pt x="180" y="723" on="1"/>
        <pt x="325" y="892" on="1"/>
        <pt x="431" y="892" on="1"/>
        <pt x="576" y="723" on="1"/>
        <pt x="459" y="723" on="1"/>
      </contour>
    </TTGlyph>
    <TTGlyph name="Gdotaccent" xMin="43" yMin="-8" xMax="630" yMax="878">
      <contour>
        <pt x="630" y="393" on="1"/>
        <pt x="630" y="69" on="1"/>
        <pt x="629" y="69" on="1"/>
        <pt x="630" y="58" on="1"/>
        <pt x="538" y="-8" on="0"/>
        <pt x="400" y="-8" on="1"/>
        <pt x="240" y="-8" on="0"/>
        <pt x="43" y="178" on="0"/>
        <pt x="43" y="494" on="0"/>
        <pt x="246" y="686" on="0"/>
        <pt x="401" y="686" on="1"/>
        <pt x="516" y="686" on="0"/>
        <pt x="598" y="643" on="1"/>
        <pt x="598" y="514" on="1"/>
        <pt x="506" y="569" on="0"/>
        <pt x="302" y="569" on="0"/>
        <pt x="178" y="443" on="0"/>
        <pt x="178" y="231" on="0"/>
        <pt x="299" y="108" on="0"/>
        <pt x="405" y="108" on="1"/>
        <pt x="457" y="108" on="0"/>
        <pt x="506" y="126" on="1"/>
        <pt x="506" y="285" on="1"/>
        <pt x="382" y="285" on="1"/>
        <pt x="382" y="393" on="1"/>
      </contour>
      <contour>
        <pt x="452" y="779" on="0"/>
        <pt x="412" y="739" on="0"/>
        <pt x="351" y="739" on="0"/>
        <pt x="311" y="779" on="0"/>
        <pt x="311" y="838" on="0"/>
        <pt x="351" y="878" on="0"/>
        <pt x="412" y="878" on="0"/>
        <pt x="452" y="838" on="0"/>
      </contour>
    </TTGlyph>
    <TTGlyph name="H" xMin="70" yMin="0" xMax="600" yMax="674">
      <contour>
        <pt x="473" y="674" on="1"/>
        <pt x="600" y="674" on="1"/>
        <pt x="600" y="0" on="1"/>
        <pt x="473" y="0" on="1"/>
        <pt x="473" y="283" on="1"/>
        <pt x="196" y="283" on="1"/>
        <pt x="196" y="0" on="1"/>
        <pt x="70" y="0" on="1"/>
        <pt x="70" y="674" on="1"/>
        <pt x="196" y="674" on="1"/>
        <pt x="196" y="392" on="1"/>
        <pt x="473" y="392" on="1"/>
      </contour>
    </TTGlyph>
    <TTGlyph name="Hbar" xMin="41" yMin="0" xMax="720" yMax="674">
      <contour>
        <pt x="720" y="574" on="1"/>
        <pt x="720" y="502" on="1"/>
        <pt x="646" y="502" on="1"/>
        <pt x="646" y="0" on="1"/>
        <pt x="519" y="0" on="1"/>
        <pt x="519" y="283" on="1"/>
        <pt x="241" y="283" on="1"/>
        <pt x="241" y="0" on="1"/>
        <pt x="115" y="0" on="1"/>
        <pt x="115" y="502" on="1"/>
        <pt x="41" y="502" on="1"/>
        <pt x="41" y="574" on="1"/>
        <pt x="115" y="574" on="1"/>
        <pt x="115" y="674" on="1"/>
        <pt x="241" y="674" on="1"/>
        <pt x="241" y="574" on="1"/>
        <pt x="519" y="574" on="1"/>
        <pt x="519" y="674" on="1"/>
        <pt x="646" y="674" on="1"/>
        <pt x="646" y="574" on="1"/>
      </contour>
      <contour>
        <pt x="519" y="392" on="1"/>
        <pt x="519" y="502" on="1"/>
        <pt x="241" y="502" on="1"/>
        <pt x="241" y="392" on="1"/>
      </contour>
    </TTGlyph>
    <TTGlyph name="Hcircumflex" xMin="70" yMin="0" xMax="600" yMax="892">
      <contour>
        <pt x="473" y="674" on="1"/>
        <pt x="600" y="674" on="1"/>
        <pt x="600" y="0" on="1"/>
        <pt x="473" y="0" on="1"/>
        <pt x="473" y="283" on="1"/>
        <pt x="196" y="283" on="1"/>
        <pt x="196" y="0" on="1"/>
        <pt x="70" y="0" on="1"/>
        <pt x="70" y="674" on="1"/>
        <pt x="196" y="674" on="1"/>
        <pt x="196" y="392" on="1"/>
        <pt x="473" y="392" on="1"/>
      </contour>
      <contour>
        <pt x="335" y="822" on="1"/>
        <pt x="254" y="723" on="1"/>
        <pt x="137" y="723" on="1"/>
        <pt x="282" y="892" on="1"/>
        <pt x="388" y="892" on="1"/>
        <pt x="533" y="723" on="1"/>
        <pt x="416" y="723" on="1"/>
      </contour>
    </TTGlyph>
    <TTGlyph name="I" xMin="78" yMin="0" xMax="204" yMax="674">
      <contour>
        <pt x="78" y="0" on="1"/>
        <pt x="78" y="674" on="1"/>
        <pt x="204" y="674" on="1"/>
        <pt x="204" y="0" on="1"/>
      </contour>
    </TTGlyph>
    <TTGlyph name="IJ" xMin="78" yMin="-1" xMax="565" yMax="674">
      <contour>
        <pt x="362" y="110" on="1"/>
        <pt x="439" y="110" on="0"/>
        <pt x="439" y="192" on="1"/>
        <pt x="439" y="673" on="1"/>
        <pt x="565" y="673" on="1"/>
        <pt x="565" y="192" on="1"/>
        <pt x="565" y="97" on="0"/>
        <pt x="469" y="-1" on="0"/>
        <pt x="385" y="-1" on="1"/>
        <pt x="322" y="-1" on="0"/>
        <pt x="282" y="20" on="1"/>
        <pt x="282" y="134" on="1"/>
        <pt x="320" y="110" on="0"/>
      </contour>
      <contour>
        <pt x="78" y="0" on="1"/>
        <pt x="78" y="674" on="1"/>
        <pt x="204" y="674" on="1"/>
        <pt x="204" y="0" on="1"/>
      </contour>
    </TTGlyph>
    <TTGlyph name="Iacute" xMin="78" yMin="0" xMax="311" yMax="892">
      <contour>
        <pt x="94" y="723" on="1"/>
        <pt x="185" y="892" on="1"/>
        <pt x="311" y="892" on="1"/>
        <pt x="195" y="723" on="1"/>
      </contour>
      <contour>
        <pt x="78" y="0" on="1"/>
        <pt x="78" y="674" on="1"/>
        <pt x="204" y="674" on="1"/>
        <pt x="204" y="0" on="1"/>
      </contour>
    </TTGlyph>
    <TTGlyph name="Ibreve" xMin="-42" yMin="0" xMax="328" yMax="892">
      <contour>
        <pt x="78" y="0" on="1"/>
        <pt x="78" y="674" on="1"/>
        <pt x="204" y="674" on="1"/>
        <pt x="204" y="0" on="1"/>
      </contour>
      <contour>
        <pt x="-42" y="892" on="1"/>
        <pt x="52" y="892" on="1"/>
        <pt x="52" y="849" on="0"/>
        <pt x="99" y="798" on="0"/>
        <pt x="187" y="798" on="0"/>
        <pt x="234" y="849" on="0"/>
        <pt x="234" y="892" on="1"/>
        <pt x="328" y="892" on="1"/>
        <pt x="328" y="806" on="0"/>
        <pt x="229" y="719" on="0"/>
        <pt x="57" y="719" on="0"/>
        <pt x="-42" y="807" on="0"/>
      </contour>
    </TTGlyph>
    <TTGlyph name="Icircumflex" xMin="-55" yMin="0" xMax="341" yMax="892">
      <contour>
        <pt x="78" y="0" on="1"/>
        <pt x="78" y="674" on="1"/>
        <pt x="204" y="674" on="1"/>
        <pt x="204" y="0" on="1"/>
      </contour>
      <contour>
        <pt x="90" y="892" on="1"/>
        <pt x="196" y="892" on="1"/>
        <pt x="341" y="723" on="1"/>
        <pt x="224" y="723" on="1"/>
        <pt x="143" y="822" on="1"/>
        <pt x="62" y="723" on="1"/>
        <pt x="-55" y="723" on="1"/>
      </contour>
    </TTGlyph>
    <TTGlyph name="Idieresis" xMin="-46" yMin="0" xMax="338" yMax="877">
      <contour>
        <pt x="237" y="738" on="0"/>
        <pt x="196" y="778" on="0"/>
        <pt x="196" y="837" on="0"/>
        <pt x="237" y="877" on="0"/>
        <pt x="298" y="877" on="0"/>
        <pt x="338" y="837" on="0"/>
        <pt x="338" y="778" on="0"/>
        <pt x="298" y="738" on="0"/>
      </contour>
      <contour>
        <pt x="-6" y="738" on="0"/>
        <pt x="-46" y="778" on="0"/>
        <pt x="-46" y="837" on="0"/>
        <pt x="-6" y="877" on="0"/>
        <pt x="55" y="877" on="0"/>
        <pt x="95" y="837" on="0"/>
        <pt x="95" y="778" on="0"/>
        <pt x="55" y="738" on="0"/>
      </contour>
      <contour>
        <pt x="78" y="0" on="1"/>
        <pt x="78" y="674" on="1"/>
        <pt x="204" y="674" on="1"/>
        <pt x="204" y="0" on="1"/>
      </contour>
    </TTGlyph>
    <TTGlyph name="Idotaccent" xMin="72" yMin="0" xMax="213" yMax="878">
      <contour>
        <pt x="112" y="739" on="0"/>
        <pt x="72" y="779" on="0"/>
        <pt x="72" y="838" on="0"/>
        <pt x="112" y="878" on="0"/>
        <pt x="173" y="878" on="0"/>
        <pt x="213" y="838" on="0"/>
        <pt x="213" y="779" on="0"/>
        <pt x="173" y="739" on="0"/>
      </contour>
      <contour>
        <pt x="78" y="0" on="1"/>
        <pt x="78" y="674" on="1"/>
        <pt x="204" y="674" on="1"/>
        <pt x="204" y="0" on="1"/>
      </contour>
    </TTGlyph>
    <TTGlyph name="Igrave" xMin="-30" yMin="0" xMax="204" yMax="892">
      <contour>
        <pt x="96" y="892" on="1"/>
        <pt x="187" y="723" on="1"/>
        <pt x="86" y="723" on="1"/>
        <pt x="-30" y="892" on="1"/>
      </contour>
      <contour>
        <pt x="78" y="0" on="1"/>
        <pt x="78" y="674" on="1"/>
        <pt x="204" y="674" on="1"/>
        <pt x="204" y="0" on="1"/>
      </contour>
    </TTGlyph>
    <TTGlyph name="Imacron" xMin="-23" yMin="0" xMax="305" yMax="849">
      <contour>
        <pt x="305" y="766" on="1"/>
        <pt x="-23" y="766" on="1"/>
        <pt x="-23" y="849" on="1"/>
        <pt x="305" y="849" on="1"/>
      </contour>
      <contour>
        <pt x="78" y="0" on="1"/>
        <pt x="78" y="674" on="1"/>
        <pt x="204" y="674" on="1"/>
        <pt x="204" y="0" on="1"/>
      </contour>
    </TTGlyph>
    <TTGlyph name="Iogonek" xMin="-10" yMin="-253" xMax="220" yMax="674">
      <contour>
        <pt x="204" y="674" on="1"/>
        <pt x="204" y="0" on="1"/>
        <pt x="88" y="-67" on="0"/>
        <pt x="88" y="-128" on="1"/>
        <pt x="88" y="-172" on="0"/>
        <pt x="140" y="-172" on="1"/>
        <pt x="180" y="-172" on="0"/>
        <pt x="220" y="-145" on="1"/>
        <pt x="220" y="-230" on="1"/>
        <pt x="179" y="-253" on="0"/>
        <pt x="56" y="-253" on="0"/>
        <pt x="-10" y="-189" on="0"/>
        <pt x="-10" y="-139" on="1"/>
        <pt x="-10" y="-60" on="0"/>
        <pt x="78" y="7" on="1"/>
        <pt x="78" y="674" on="1"/>
      </contour>
    </TTGlyph>
    <TTGlyph name="Itilde" xMin="-50" yMin="0" xMax="324" yMax="876">
      <contour>
        <pt x="202" y="746" on="1"/>
        <pt x="172" y="746" on="0"/>
        <pt x="95" y="784" on="0"/>
        <pt x="55" y="784" on="0"/>
        <pt x="25" y="765" on="0"/>
        <pt x="7" y="740" on="1"/>
        <pt x="-50" y="793" on="1"/>
        <pt x="-34" y="826" on="0"/>
        <pt x="25" y="871" on="0"/>
        <pt x="95" y="871" on="0"/>
        <pt x="177" y="833" on="0"/>
        <pt x="196" y="833" on="1"/>
        <pt x="239" y="833" on="0"/>
        <pt x="260" y="876" on="1"/>
        <pt x="324" y="825" on="1"/>
        <pt x="285" y="746" on="0"/>
      </contour>
      <contour>
        <pt x="78" y="0" on="1"/>
        <pt x="78" y="674" on="1"/>
        <pt x="204" y="674" on="1"/>
        <pt x="204" y="0" on="1"/>
      </contour>
    </TTGlyph>
    <TTGlyph name="J" xMin="30" yMin="-1" xMax="313" yMax="673">
      <contour>
        <pt x="110" y="110" on="1"/>
        <pt x="187" y="110" on="0"/>
        <pt x="187" y="192" on="1"/>
        <pt x="187" y="673" on="1"/>
        <pt x="313" y="673" on="1"/>
        <pt x="313" y="192" on="1"/>
        <pt x="313" y="97" on="0"/>
        <pt x="217" y="-1" on="0"/>
        <pt x="133" y="-1" on="1"/>
        <pt x="70" y="-1" on="0"/>
        <pt x="30" y="20" on="1"/>
        <pt x="30" y="134" on="1"/>
        <pt x="68" y="110" on="0"/>
      </contour>
    </TTGlyph>
    <TTGlyph name="Jcircumflex" xMin="30" yMin="-1" xMax="450" yMax="892">
      <contour>
        <pt x="199" y="892" on="1"/>
        <pt x="305" y="892" on="1"/>
        <pt x="450" y="723" on="1"/>
        <pt x="333" y="723" on="1"/>
        <pt x="252" y="822" on="1"/>
        <pt x="171" y="723" on="1"/>
        <pt x="54" y="723" on="1"/>
      </contour>
      <contour>
        <pt x="110" y="110" on="1"/>
        <pt x="187" y="110" on="0"/>
        <pt x="187" y="192" on="1"/>
        <pt x="187" y="673" on="1"/>
        <pt x="313" y="673" on="1"/>
        <pt x="313" y="192" on="1"/>
        <pt x="313" y="97" on="0"/>
        <pt x="217" y="-1" on="0"/>
        <pt x="133" y="-1" on="1"/>
        <pt x="70" y="-1" on="0"/>
        <pt x="30" y="20" on="1"/>
        <pt x="30" y="134" on="1"/>
        <pt x="68" y="110" on="0"/>
      </contour>
    </TTGlyph>
    <TTGlyph name="K" xMin="70" yMin="0" xMax="607" yMax="674">
      <contour>
        <pt x="356" y="336" on="1"/>
        <pt x="607" y="0" on="1"/>
        <pt x="448" y="0" on="1"/>
        <pt x="206" y="334" on="1"/>
        <pt x="439" y="674" on="1"/>
        <pt x="590" y="674" on="1"/>
      </contour>
      <contour>
        <pt x="70" y="0" on="1"/>
        <pt x="70" y="674" on="1"/>
        <pt x="196" y="674" on="1"/>
        <pt x="196" y="0" on="1"/>
      </contour>
    </TTGlyph>
    <TTGlyph name="L" xMin="70" yMin="0" xMax="459" yMax="674">
      <contour>
        <pt x="196" y="112" on="1"/>
        <pt x="459" y="112" on="1"/>
        <pt x="459" y="0" on="1"/>
        <pt x="70" y="0" on="1"/>
        <pt x="70" y="674" on="1"/>
        <pt x="196" y="674" on="1"/>
      </contour>
    </TTGlyph>
    <TTGlyph name="Lacute" xMin="70" yMin="0" xMax="473" yMax="892">
      <contour>
        <pt x="196" y="674" on="1"/>
        <pt x="196" y="112" on="1"/>
        <pt x="459" y="112" on="1"/>
        <pt x="459" y="0" on="1"/>
        <pt x="70" y="0" on="1"/>
        <pt x="70" y="674" on="1"/>
      </contour>
      <contour>
        <pt x="473" y="892" on="1"/>
        <pt x="357" y="723" on="1"/>
        <pt x="256" y="723" on="1"/>
        <pt x="347" y="892" on="1"/>
      </contour>
    </TTGlyph>
    <TTGlyph name="Lcaron" xMin="70" yMin="0" xMax="472" yMax="700">
      <contour>
        <pt x="196" y="674" on="1"/>
        <pt x="196" y="112" on="1"/>
        <pt x="459" y="112" on="1"/>
        <pt x="459" y="0" on="1"/>
        <pt x="70" y="0" on="1"/>
        <pt x="70" y="674" on="1"/>
      </contour>
      <contour>
        <pt x="472" y="700" on="1"/>
        <pt x="358" y="496" on="1"/>
        <pt x="267" y="496" on="1"/>
        <pt x="343" y="700" on="1"/>
      </contour>
    </TTGlyph>
    <TTGlyph name="Ldot" xMin="70" yMin="0" xMax="459" yMax="674">
      <contour>
        <pt x="196" y="112" on="1"/>
        <pt x="459" y="112" on="1"/>
        <pt x="459" y="0" on="1"/>
        <pt x="70" y="0" on="1"/>
        <pt x="70" y="674" on="1"/>
        <pt x="196" y="674" on="1"/>
      </contour>
      <contour>
        <pt x="393" y="311" on="0"/>
        <pt x="331" y="311" on="0"/>
        <pt x="289" y="353" on="0"/>
        <pt x="289" y="414" on="0"/>
        <pt x="331" y="456" on="0"/>
        <pt x="393" y="456" on="0"/>
        <pt x="435" y="414" on="0"/>
        <pt x="435" y="353" on="0"/>
      </contour>
    </TTGlyph>
    <TTGlyph name="Lslash" xMin="39" yMin="0" xMax="504" yMax="674">
      <contour>
        <pt x="241" y="112" on="1"/>
        <pt x="504" y="112" on="1"/>
        <pt x="504" y="0" on="1"/>
        <pt x="114" y="0" on="1"/>
        <pt x="114" y="219" on="1"/>
        <pt x="39" y="174" on="1"/>
        <pt x="39" y="279" on="1"/>
        <pt x="114" y="324" on="1"/>
        <pt x="114" y="674" on="1"/>
        <pt x="241" y="674" on="1"/>
        <pt x="241" y="401" on="1"/>
        <pt x="399" y="496" on="1"/>
        <pt x="399" y="391" on="1"/>
        <pt x="241" y="296" on="1"/>
      </contour>
    </TTGlyph>
    <TTGlyph name="M" xMin="58" yMin="0" xMax="822" yMax="674">
      <contour>
        <pt x="58" y="0" on="1"/>
        <pt x="112" y="674" on="1"/>
        <pt x="256" y="674" on="1"/>
        <pt x="379" y="346" on="0"/>
        <pt x="414" y="244" on="0"/>
        <pt x="432" y="183" on="1"/>
        <pt x="463" y="287" on="0"/>
        <pt x="518" y="429" on="1"/>
        <pt x="612" y="674" on="1"/>
        <pt x="756" y="674" on="1"/>
        <pt x="822" y="0" on="1"/>
        <pt x="696" y="0" on="1"/>
        <pt x="672" y="263" on="1"/>
        <pt x="654" y="499" on="1"/>
        <pt x="627" y="423" on="0"/>
        <pt x="474" y="10" on="1"/>
        <pt x="388" y="10" on="1"/>
        <pt x="296" y="263" on="1"/>
        <pt x="217" y="496" on="1"/>
        <pt x="217" y="434" on="0"/>
        <pt x="184" y="0" on="1"/>
      </contour>
    </TTGlyph>
    <TTGlyph name="N" xMin="70" yMin="0" xMax="619" yMax="674">
      <contour>
        <pt x="70" y="0" on="1"/>
        <pt x="70" y="674" on="1"/>
        <pt x="213" y="674" on="1"/>
        <pt x="417" y="319" on="0"/>
        <pt x="478" y="205" on="0"/>
        <pt x="500" y="155" on="1"/>
        <pt x="492" y="238" on="0"/>
        <pt x="492" y="393" on="1"/>
        <pt x="492" y="674" on="1"/>
        <pt x="619" y="674" on="1"/>
        <pt x="619" y="0" on="1"/>
        <pt x="475" y="0" on="1"/>
        <pt x="311" y="280" on="1"/>
        <pt x="233" y="412" on="0"/>
        <pt x="185" y="522" on="1"/>
        <pt x="196" y="427" on="0"/>
        <pt x="196" y="281" on="1"/>
        <pt x="196" y="0" on="1"/>
      </contour>
    </TTGlyph>
    <TTGlyph name="Nacute" xMin="70" yMin="0" xMax="619" yMax="892">
      <contour>
        <pt x="70" y="0" on="1"/>
        <pt x="70" y="674" on="1"/>
        <pt x="213" y="674" on="1"/>
        <pt x="417" y="319" on="0"/>
        <pt x="478" y="205" on="0"/>
        <pt x="500" y="155" on="1"/>
        <pt x="492" y="238" on="0"/>
        <pt x="492" y="393" on="1"/>
        <pt x="492" y="674" on="1"/>
        <pt x="619" y="674" on="1"/>
        <pt x="619" y="0" on="1"/>
        <pt x="475" y="0" on="1"/>
        <pt x="311" y="280" on="1"/>
        <pt x="233" y="412" on="0"/>
        <pt x="185" y="522" on="1"/>
        <pt x="196" y="427" on="0"/>
        <pt x="196" y="281" on="1"/>
        <pt x="196" y="0" on="1"/>
      </contour>
      <contour>
        <pt x="311" y="723" on="1"/>
        <pt x="402" y="892" on="1"/>
        <pt x="528" y="892" on="1"/>
        <pt x="412" y="723" on="1"/>
      </contour>
    </TTGlyph>
    <TTGlyph name="Ncaron" xMin="70" yMin="0" xMax="619" yMax="892">
      <contour>
        <pt x="406" y="723" on="1"/>
        <pt x="300" y="723" on="1"/>
        <pt x="155" y="892" on="1"/>
        <pt x="272" y="892" on="1"/>
        <pt x="353" y="793" on="1"/>
        <pt x="434" y="892" on="1"/>
        <pt x="551" y="892" on="1"/>
      </contour>
      <contour>
        <pt x="70" y="0" on="1"/>
        <pt x="70" y="674" on="1"/>
        <pt x="213" y="674" on="1"/>
        <pt x="417" y="319" on="0"/>
        <pt x="478" y="205" on="0"/>
        <pt x="500" y="155" on="1"/>
        <pt x="492" y="238" on="0"/>
        <pt x="492" y="393" on="1"/>
        <pt x="492" y="674" on="1"/>
        <pt x="619" y="674" on="1"/>
        <pt x="619" y="0" on="1"/>
        <pt x="475" y="0" on="1"/>
        <pt x="311" y="280" on="1"/>
        <pt x="233" y="412" on="0"/>
        <pt x="185" y="522" on="1"/>
        <pt x="196" y="427" on="0"/>
        <pt x="196" y="281" on="1"/>
        <pt x="196" y="0" on="1"/>
      </contour>
    </TTGlyph>
    <TTGlyph name="Ntilde" xMin="70" yMin="0" xMax="619" yMax="877">
      <contour>
        <pt x="415" y="747" on="1"/>
        <pt x="384" y="747" on="0"/>
        <pt x="308" y="785" on="0"/>
        <pt x="268" y="785" on="0"/>
        <pt x="238" y="766" on="0"/>
        <pt x="220" y="741" on="1"/>
        <pt x="163" y="794" on="1"/>
        <pt x="179" y="827" on="0"/>
        <pt x="238" y="872" on="0"/>
        <pt x="308" y="872" on="0"/>
        <pt x="390" y="834" on="0"/>
        <pt x="409" y="834" on="1"/>
        <pt x="452" y="834" on="0"/>
        <pt x="473" y="877" on="1"/>
        <pt x="537" y="826" on="1"/>
        <pt x="498" y="747" on="0"/>
      </contour>
      <contour>
        <pt x="70" y="0" on="1"/>
        <pt x="70" y="674" on="1"/>
        <pt x="213" y="674" on="1"/>
        <pt x="417" y="319" on="0"/>
        <pt x="478" y="205" on="0"/>
        <pt x="500" y="155" on="1"/>
        <pt x="492" y="238" on="0"/>
        <pt x="492" y="393" on="1"/>
        <pt x="492" y="674" on="1"/>
        <pt x="619" y="674" on="1"/>
        <pt x="619" y="0" on="1"/>
        <pt x="475" y="0" on="1"/>
        <pt x="311" y="280" on="1"/>
        <pt x="233" y="412" on="0"/>
        <pt x="185" y="522" on="1"/>
        <pt x="196" y="427" on="0"/>
        <pt x="196" y="281" on="1"/>
        <pt x="196" y="0" on="1"/>
      </contour>
    </TTGlyph>
    <TTGlyph name="O" xMin="43" yMin="-7" xMax="680" yMax="686">
      <contour>
        <pt x="276" y="570" on="0"/>
        <pt x="178" y="446" on="0"/>
        <pt x="178" y="233" on="0"/>
        <pt x="278" y="109" on="0"/>
        <pt x="447" y="109" on="0"/>
        <pt x="545" y="232" on="0"/>
        <pt x="545" y="446" on="0"/>
        <pt x="447" y="570" on="0"/>
      </contour>
      <contour>
        <pt x="217" y="-7" on="0"/>
        <pt x="43" y="183" on="0"/>
        <pt x="43" y="496" on="0"/>
        <pt x="216" y="686" on="0"/>
        <pt x="508" y="686" on="0"/>
        <pt x="680" y="497" on="0"/>
        <pt x="680" y="183" on="0"/>
        <pt x="507" y="-7" on="0"/>
      </contour>
    </TTGlyph>
    <TTGlyph name="OE" xMin="43" yMin="-7" xMax="938" yMax="686">
      <contour>
        <pt x="656" y="103" on="1"/>
        <pt x="938" y="103" on="1"/>
        <pt x="938" y="0" on="1"/>
        <pt x="535" y="0" on="1"/>
        <pt x="535" y="58" on="1"/>
        <pt x="459" y="-7" on="0"/>
        <pt x="357" y="-7" on="1"/>
        <pt x="212" y="-7" on="0"/>
        <pt x="43" y="182" on="0"/>
        <pt x="43" y="496" on="0"/>
        <pt x="212" y="686" on="0"/>
        <pt x="356" y="686" on="1"/>
        <pt x="460" y="686" on="0"/>
        <pt x="535" y="622" on="1"/>
        <pt x="535" y="674" on="1"/>
        <pt x="934" y="674" on="1"/>
        <pt x="934" y="571" on="1"/>
        <pt x="656" y="571" on="1"/>
        <pt x="656" y="388" on="1"/>
        <pt x="904" y="388" on="1"/>
        <pt x="904" y="286" on="1"/>
        <pt x="656" y="286" on="1"/>
      </contour>
      <contour>
        <pt x="178" y="232" on="0"/>
        <pt x="273" y="109" on="0"/>
        <pt x="442" y="109" on="0"/>
        <pt x="535" y="232" on="0"/>
        <pt x="535" y="447" on="0"/>
        <pt x="441" y="570" on="0"/>
        <pt x="272" y="570" on="0"/>
        <pt x="178" y="446" on="0"/>
      </contour>
    </TTGlyph>
    <TTGlyph name="Oacute" xMin="43" yMin="-7" xMax="680" yMax="892">
      <contour>
        <pt x="276" y="570" on="0"/>
        <pt x="178" y="446" on="0"/>
        <pt x="178" y="233" on="0"/>
        <pt x="278" y="109" on="0"/>
        <pt x="447" y="109" on="0"/>
        <pt x="545" y="232" on="0"/>
        <pt x="545" y="446" on="0"/>
        <pt x="447" y="570" on="0"/>
      </contour>
      <contour>
        <pt x="217" y="-7" on="0"/>
        <pt x="43" y="183" on="0"/>
        <pt x="43" y="496" on="0"/>
        <pt x="216" y="686" on="0"/>
        <pt x="508" y="686" on="0"/>
        <pt x="680" y="497" on="0"/>
        <pt x="680" y="183" on="0"/>
        <pt x="507" y="-7" on="0"/>
      </contour>
      <contour>
        <pt x="316" y="723" on="1"/>
        <pt x="407" y="892" on="1"/>
        <pt x="533" y="892" on="1"/>
        <pt x="417" y="723" on="1"/>
      </contour>
    </TTGlyph>
    <TTGlyph name="Obreve" xMin="43" yMin="-7" xMax="680" yMax="892">
      <contour>
        <pt x="217" y="-7" on="0"/>
        <pt x="43" y="183" on="0"/>
        <pt x="43" y="496" on="0"/>
        <pt x="216" y="686" on="0"/>
        <pt x="508" y="686" on="0"/>
        <pt x="680" y="497" on="0"/>
        <pt x="680" y="183" on="0"/>
        <pt x="507" y="-7" on="0"/>
      </contour>
      <contour>
        <pt x="276" y="570" on="0"/>
        <pt x="178" y="446" on="0"/>
        <pt x="178" y="233" on="0"/>
        <pt x="278" y="109" on="0"/>
        <pt x="447" y="109" on="0"/>
        <pt x="545" y="232" on="0"/>
        <pt x="545" y="446" on="0"/>
        <pt x="447" y="570" on="0"/>
      </contour>
      <contour>
        <pt x="186" y="892" on="1"/>
        <pt x="280" y="892" on="1"/>
        <pt x="280" y="849" on="0"/>
        <pt x="327" y="798" on="0"/>
        <pt x="415" y="798" on="0"/>
        <pt x="462" y="849" on="0"/>
        <pt x="462" y="892" on="1"/>
        <pt x="556" y="892" on="1"/>
        <pt x="556" y="806" on="0"/>
        <pt x="457" y="719" on="0"/>
        <pt x="285" y="719" on="0"/>
        <pt x="186" y="807" on="0"/>
      </contour>
    </TTGlyph>
    <TTGlyph name="Ocircumflex" xMin="43" yMin="-7" xMax="680" yMax="892">
      <contour>
        <pt x="314" y="892" on="1"/>
        <pt x="420" y="892" on="1"/>
        <pt x="565" y="723" on="1"/>
        <pt x="448" y="723" on="1"/>
        <pt x="367" y="822" on="1"/>
        <pt x="286" y="723" on="1"/>
        <pt x="169" y="723" on="1"/>
      </contour>
      <contour>
        <pt x="217" y="-7" on="0"/>
        <pt x="43" y="183" on="0"/>
        <pt x="43" y="496" on="0"/>
        <pt x="216" y="686" on="0"/>
        <pt x="508" y="686" on="0"/>
        <pt x="680" y="497" on="0"/>
        <pt x="680" y="183" on="0"/>
        <pt x="507" y="-7" on="0"/>
      </contour>
      <contour>
        <pt x="276" y="570" on="0"/>
        <pt x="178" y="446" on="0"/>
        <pt x="178" y="233" on="0"/>
        <pt x="278" y="109" on="0"/>
        <pt x="447" y="109" on="0"/>
        <pt x="545" y="232" on="0"/>
        <pt x="545" y="446" on="0"/>
        <pt x="447" y="570" on="0"/>
      </contour>
    </TTGlyph>
    <TTGlyph name="Odieresis" xMin="43" yMin="-7" xMax="680" yMax="878">
      <contour>
        <pt x="276" y="570" on="0"/>
        <pt x="178" y="446" on="0"/>
        <pt x="178" y="233" on="0"/>
        <pt x="278" y="109" on="0"/>
        <pt x="447" y="109" on="0"/>
        <pt x="545" y="232" on="0"/>
        <pt x="545" y="446" on="0"/>
        <pt x="447" y="570" on="0"/>
      </contour>
      <contour>
        <pt x="217" y="-7" on="0"/>
        <pt x="43" y="183" on="0"/>
        <pt x="43" y="496" on="0"/>
        <pt x="216" y="686" on="0"/>
        <pt x="508" y="686" on="0"/>
        <pt x="680" y="497" on="0"/>
        <pt x="680" y="183" on="0"/>
        <pt x="507" y="-7" on="0"/>
      </contour>
      <contour>
        <pt x="459" y="739" on="0"/>
        <pt x="418" y="779" on="0"/>
        <pt x="418" y="838" on="0"/>
        <pt x="459" y="878" on="0"/>
        <pt x="520" y="878" on="0"/>
        <pt x="560" y="838" on="0"/>
        <pt x="560" y="779" on="0"/>
        <pt x="520" y="739" on="0"/>
      </contour>
      <contour>
        <pt x="216" y="739" on="0"/>
        <pt x="176" y="779" on="0"/>
        <pt x="176" y="838" on="0"/>
        <pt x="216" y="878" on="0"/>
        <pt x="277" y="878" on="0"/>
        <pt x="317" y="838" on="0"/>
        <pt x="317" y="779" on="0"/>
        <pt x="277" y="739" on="0"/>
      </contour>
    </TTGlyph>
    <TTGlyph name="Ograve" xMin="43" yMin="-7" xMax="680" yMax="892">
      <contour>
        <pt x="330" y="892" on="1"/>
        <pt x="421" y="723" on="1"/>
        <pt x="320" y="723" on="1"/>
        <pt x="204" y="892" on="1"/>
      </contour>
      <contour>
        <pt x="276" y="570" on="0"/>
        <pt x="178" y="446" on="0"/>
        <pt x="178" y="233" on="0"/>
        <pt x="278" y="109" on="0"/>
        <pt x="447" y="109" on="0"/>
        <pt x="545" y="232" on="0"/>
        <pt x="545" y="446" on="0"/>
        <pt x="447" y="570" on="0"/>
      </contour>
      <contour>
        <pt x="217" y="-7" on="0"/>
        <pt x="43" y="183" on="0"/>
        <pt x="43" y="496" on="0"/>
        <pt x="216" y="686" on="0"/>
        <pt x="508" y="686" on="0"/>
        <pt x="680" y="497" on="0"/>
        <pt x="680" y="183" on="0"/>
        <pt x="507" y="-7" on="0"/>
      </contour>
    </TTGlyph>
    <TTGlyph name="Ohungarumlaut" xMin="43" yMin="-7" xMax="680" yMax="892">
      <contour>
        <pt x="276" y="570" on="0"/>
        <pt x="178" y="446" on="0"/>
        <pt x="178" y="233" on="0"/>
        <pt x="278" y="109" on="0"/>
        <pt x="447" y="109" on="0"/>
        <pt x="545" y="232" on="0"/>
        <pt x="545" y="446" on="0"/>
        <pt x="447" y="570" on="0"/>
      </contour>
      <contour>
        <pt x="217" y="-7" on="0"/>
        <pt x="43" y="183" on="0"/>
        <pt x="43" y="496" on="0"/>
        <pt x="216" y="686" on="0"/>
        <pt x="508" y="686" on="0"/>
        <pt x="680" y="497" on="0"/>
        <pt x="680" y="183" on="0"/>
        <pt x="507" y="-7" on="0"/>
      </contour>
      <contour>
        <pt x="239" y="723" on="1"/>
        <pt x="329" y="892" on="1"/>
        <pt x="446" y="892" on="1"/>
        <pt x="329" y="723" on="1"/>
      </contour>
      <contour>
        <pt x="414" y="723" on="1"/>
        <pt x="511" y="892" on="1"/>
        <pt x="637" y="892" on="1"/>
        <pt x="505" y="723" on="1"/>
      </contour>
    </TTGlyph>
    <TTGlyph name="Omacron" xMin="43" yMin="-7" xMax="680" yMax="849">
      <contour>
        <pt x="276" y="570" on="0"/>
        <pt x="178" y="446" on="0"/>
        <pt x="178" y="233" on="0"/>
        <pt x="278" y="109" on="0"/>
        <pt x="447" y="109" on="0"/>
        <pt x="545" y="232" on="0"/>
        <pt x="545" y="446" on="0"/>
        <pt x="447" y="570" on="0"/>
      </contour>
      <contour>
        <pt x="217" y="-7" on="0"/>
        <pt x="43" y="183" on="0"/>
        <pt x="43" y="496" on="0"/>
        <pt x="216" y="686" on="0"/>
        <pt x="508" y="686" on="0"/>
        <pt x="680" y="497" on="0"/>
        <pt x="680" y="183" on="0"/>
        <pt x="507" y="-7" on="0"/>
      </contour>
      <contour>
        <pt x="525" y="766" on="1"/>
        <pt x="197" y="766" on="1"/>
        <pt x="197" y="849" on="1"/>
        <pt x="525" y="849" on="1"/>
      </contour>
    </TTGlyph>
    <TTGlyph name="Oslash" xMin="39" yMin="-8" xMax="677" yMax="686">
      <contour>
        <pt x="599" y="580" on="1"/>
        <pt x="676" y="488" on="0"/>
        <pt x="676" y="183" on="0"/>
        <pt x="503" y="-7" on="0"/>
        <pt x="358" y="-7" on="1"/>
        <pt x="264" y="-7" on="0"/>
        <pt x="194" y="34" on="1"/>
        <pt x="163" y="-8" on="1"/>
        <pt x="40" y="-8" on="1"/>
        <pt x="118" y="97" on="1"/>
        <pt x="39" y="190" on="0"/>
        <pt x="39" y="496" on="0"/>
        <pt x="212" y="686" on="0"/>
        <pt x="357" y="686" on="1"/>
        <pt x="451" y="686" on="0"/>
        <pt x="524" y="644" on="1"/>
        <pt x="554" y="685" on="1"/>
        <pt x="677" y="685" on="1"/>
      </contour>
      <contour>
        <pt x="357" y="576" on="1"/>
        <pt x="270" y="576" on="0"/>
        <pt x="169" y="449" on="0"/>
        <pt x="169" y="339" on="1"/>
        <pt x="169" y="260" on="0"/>
        <pt x="196" y="203" on="1"/>
        <pt x="454" y="550" on="1"/>
        <pt x="413" y="576" on="0"/>
      </contour>
      <contour>
        <pt x="358" y="103" on="1"/>
        <pt x="445" y="103" on="0"/>
        <pt x="546" y="230" on="0"/>
        <pt x="546" y="339" on="1"/>
        <pt x="546" y="417" on="0"/>
        <pt x="520" y="474" on="1"/>
        <pt x="264" y="128" on="1"/>
        <pt x="302" y="103" on="0"/>
      </contour>
    </TTGlyph>
    <TTGlyph name="Otilde" xMin="43" yMin="-7" xMax="680" yMax="877">
      <contour>
        <pt x="427" y="747" on="1"/>
        <pt x="396" y="747" on="0"/>
        <pt x="320" y="785" on="0"/>
        <pt x="280" y="785" on="0"/>
        <pt x="250" y="766" on="0"/>
        <pt x="232" y="741" on="1"/>
        <pt x="175" y="794" on="1"/>
        <pt x="191" y="827" on="0"/>
        <pt x="250" y="872" on="0"/>
        <pt x="320" y="872" on="0"/>
        <pt x="402" y="834" on="0"/>
        <pt x="421" y="834" on="1"/>
        <pt x="464" y="834" on="0"/>
        <pt x="485" y="877" on="1"/>
        <pt x="549" y="826" on="1"/>
        <pt x="510" y="747" on="0"/>
      </contour>
      <contour>
        <pt x="276" y="570" on="0"/>
        <pt x="178" y="446" on="0"/>
        <pt x="178" y="233" on="0"/>
        <pt x="278" y="109" on="0"/>
        <pt x="447" y="109" on="0"/>
        <pt x="545" y="232" on="0"/>
        <pt x="545" y="446" on="0"/>
        <pt x="447" y="570" on="0"/>
      </contour>
      <contour>
        <pt x="217" y="-7" on="0"/>
        <pt x="43" y="183" on="0"/>
        <pt x="43" y="496" on="0"/>
        <pt x="216" y="686" on="0"/>
        <pt x="508" y="686" on="0"/>
        <pt x="680" y="497" on="0"/>
        <pt x="680" y="183" on="0"/>
        <pt x="507" y="-7" on="0"/>
      </contour>
    </TTGlyph>
    <TTGlyph name="P" xMin="70" yMin="0" xMax="532" yMax="674">
      <contour>
        <pt x="70" y="674" on="1"/>
        <pt x="281" y="674" on="1"/>
        <pt x="395" y="674" on="0"/>
        <pt x="532" y="550" on="0"/>
        <pt x="532" y="350" on="0"/>
        <pt x="391" y="229" on="0"/>
        <pt x="284" y="229" on="1"/>
        <pt x="196" y="229" on="1"/>
        <pt x="196" y="0" on="1"/>
        <pt x="70" y="0" on="1"/>
      </contour>
      <contour>
        <pt x="196" y="331" on="1"/>
        <pt x="285" y="331" on="1"/>
        <pt x="341" y="335" on="0"/>
        <pt x="404" y="403" on="0"/>
        <pt x="404" y="501" on="0"/>
        <pt x="338" y="570" on="0"/>
        <pt x="281" y="571" on="1"/>
        <pt x="196" y="571" on="1"/>
      </contour>
    </TTGlyph>
    <TTGlyph name="Q" xMin="43" yMin="-147" xMax="717" yMax="686">
      <contour>
        <pt x="362" y="-7" on="1"/>
        <pt x="217" y="-7" on="0"/>
        <pt x="43" y="183" on="0"/>
        <pt x="43" y="496" on="0"/>
        <pt x="216" y="686" on="0"/>
        <pt x="508" y="686" on="0"/>
        <pt x="680" y="497" on="0"/>
        <pt x="680" y="339" on="1"/>
        <pt x="680" y="229" on="0"/>
        <pt x="592" y="67" on="0"/>
        <pt x="512" y="27" on="1"/>
        <pt x="717" y="-92" on="1"/>
        <pt x="575" y="-147" on="1"/>
        <pt x="377" y="-7" on="1"/>
      </contour>
      <contour>
        <pt x="276" y="570" on="0"/>
        <pt x="178" y="446" on="0"/>
        <pt x="178" y="233" on="0"/>
        <pt x="278" y="109" on="0"/>
        <pt x="447" y="109" on="0"/>
        <pt x="545" y="232" on="0"/>
        <pt x="545" y="446" on="0"/>
        <pt x="447" y="570" on="0"/>
      </contour>
    </TTGlyph>
    <TTGlyph name="R" xMin="70" yMin="0" xMax="569" yMax="674">
      <contour>
        <pt x="196" y="246" on="1"/>
        <pt x="196" y="0" on="1"/>
        <pt x="70" y="0" on="1"/>
        <pt x="70" y="674" on="1"/>
        <pt x="278" y="674" on="1"/>
        <pt x="393" y="674" on="0"/>
        <pt x="524" y="558" on="0"/>
        <pt x="524" y="461" on="1"/>
        <pt x="523" y="389" on="0"/>
        <pt x="455" y="290" on="0"/>
        <pt x="396" y="266" on="1"/>
        <pt x="569" y="0" on="1"/>
        <pt x="418" y="0" on="1"/>
        <pt x="265" y="246" on="1"/>
      </contour>
      <contour>
        <pt x="196" y="570" on="1"/>
        <pt x="196" y="350" on="1"/>
        <pt x="280" y="350" on="1"/>
        <pt x="338" y="350" on="0"/>
        <pt x="396" y="409" on="0"/>
        <pt x="396" y="514" on="0"/>
        <pt x="335" y="570" on="0"/>
        <pt x="278" y="570" on="1"/>
      </contour>
    </TTGlyph>
    <TTGlyph name="Racute" xMin="70" yMin="0" xMax="569" yMax="892">
      <contour>
        <pt x="196" y="246" on="1"/>
        <pt x="196" y="0" on="1"/>
        <pt x="70" y="0" on="1"/>
        <pt x="70" y="674" on="1"/>
        <pt x="278" y="674" on="1"/>
        <pt x="393" y="674" on="0"/>
        <pt x="524" y="558" on="0"/>
        <pt x="524" y="461" on="1"/>
        <pt x="523" y="389" on="0"/>
        <pt x="455" y="290" on="0"/>
        <pt x="396" y="266" on="1"/>
        <pt x="569" y="0" on="1"/>
        <pt x="418" y="0" on="1"/>
        <pt x="265" y="246" on="1"/>
      </contour>
      <contour>
        <pt x="196" y="570" on="1"/>
        <pt x="196" y="350" on="1"/>
        <pt x="280" y="350" on="1"/>
        <pt x="338" y="350" on="0"/>
        <pt x="396" y="409" on="0"/>
        <pt x="396" y="514" on="0"/>
        <pt x="335" y="570" on="0"/>
        <pt x="278" y="570" on="1"/>
      </contour>
      <contour>
        <pt x="452" y="892" on="1"/>
        <pt x="336" y="723" on="1"/>
        <pt x="235" y="723" on="1"/>
        <pt x="326" y="892" on="1"/>
      </contour>
    </TTGlyph>
    <TTGlyph name="Rcaron" xMin="70" yMin="0" xMax="569" yMax="892">
      <contour>
        <pt x="196" y="246" on="1"/>
        <pt x="196" y="0" on="1"/>
        <pt x="70" y="0" on="1"/>
        <pt x="70" y="674" on="1"/>
        <pt x="278" y="674" on="1"/>
        <pt x="393" y="674" on="0"/>
        <pt x="524" y="558" on="0"/>
        <pt x="524" y="461" on="1"/>
        <pt x="523" y="389" on="0"/>
        <pt x="455" y="290" on="0"/>
        <pt x="396" y="266" on="1"/>
        <pt x="569" y="0" on="1"/>
        <pt x="418" y="0" on="1"/>
        <pt x="265" y="246" on="1"/>
      </contour>
      <contour>
        <pt x="196" y="570" on="1"/>
        <pt x="196" y="350" on="1"/>
        <pt x="280" y="350" on="1"/>
        <pt x="338" y="350" on="0"/>
        <pt x="396" y="409" on="0"/>
        <pt x="396" y="514" on="0"/>
        <pt x="335" y="570" on="0"/>
        <pt x="278" y="570" on="1"/>
      </contour>
      <contour>
        <pt x="355" y="723" on="1"/>
        <pt x="249" y="723" on="1"/>
        <pt x="104" y="892" on="1"/>
        <pt x="221" y="892" on="1"/>
        <pt x="302" y="793" on="1"/>
        <pt x="383" y="892" on="1"/>
        <pt x="500" y="892" on="1"/>
      </contour>
    </TTGlyph>
    <TTGlyph name="S" xMin="49" yMin="-8" xMax="477" yMax="679">
      <contour>
        <pt x="285" y="569" on="1"/>
        <pt x="238" y="569" on="0"/>
        <pt x="185" y="527" on="0"/>
        <pt x="185" y="461" on="0"/>
        <pt x="242" y="418" on="0"/>
        <pt x="339" y="374" on="0"/>
        <pt x="389" y="347" on="0"/>
        <pt x="418" y="323" on="1"/>
        <pt x="477" y="275" on="0"/>
        <pt x="477" y="99" on="0"/>
        <pt x="348" y="-8" on="0"/>
        <pt x="129" y="-8" on="0"/>
        <pt x="54" y="35" on="1"/>
        <pt x="54" y="164" on="1"/>
        <pt x="140" y="102" on="0"/>
        <pt x="242" y="102" on="1"/>
        <pt x="288" y="102" on="0"/>
        <pt x="344" y="147" on="0"/>
        <pt x="344" y="185" on="1"/>
        <pt x="344" y="203" on="0"/>
        <pt x="330" y="231" on="0"/>
        <pt x="308" y="245" on="1"/>
        <pt x="266" y="273" on="0"/>
        <pt x="213" y="294" on="1"/>
        <pt x="176" y="311" on="0"/>
        <pt x="130" y="338" on="0"/>
        <pt x="103" y="361" on="1"/>
        <pt x="49" y="407" on="0"/>
        <pt x="49" y="575" on="0"/>
        <pt x="176" y="679" on="0"/>
        <pt x="376" y="679" on="0"/>
        <pt x="445" y="646" on="1"/>
        <pt x="445" y="524" on="1"/>
        <pt x="370" y="569" on="0"/>
      </contour>
    </TTGlyph>
    <TTGlyph name="Sacute" xMin="49" yMin="-8" xMax="477" yMax="892">
      <contour>
        <pt x="285" y="569" on="1"/>
        <pt x="238" y="569" on="0"/>
        <pt x="185" y="527" on="0"/>
        <pt x="185" y="461" on="0"/>
        <pt x="242" y="418" on="0"/>
        <pt x="339" y="374" on="0"/>
        <pt x="389" y="347" on="0"/>
        <pt x="418" y="323" on="1"/>
        <pt x="477" y="275" on="0"/>
        <pt x="477" y="99" on="0"/>
        <pt x="348" y="-8" on="0"/>
        <pt x="129" y="-8" on="0"/>
        <pt x="54" y="35" on="1"/>
        <pt x="54" y="164" on="1"/>
        <pt x="140" y="102" on="0"/>
        <pt x="242" y="102" on="1"/>
        <pt x="288" y="102" on="0"/>
        <pt x="344" y="147" on="0"/>
        <pt x="344" y="185" on="1"/>
        <pt x="344" y="203" on="0"/>
        <pt x="330" y="231" on="0"/>
        <pt x="308" y="245" on="1"/>
        <pt x="266" y="273" on="0"/>
        <pt x="213" y="294" on="1"/>
        <pt x="176" y="311" on="0"/>
        <pt x="130" y="338" on="0"/>
        <pt x="103" y="361" on="1"/>
        <pt x="49" y="407" on="0"/>
        <pt x="49" y="575" on="0"/>
        <pt x="176" y="679" on="0"/>
        <pt x="376" y="679" on="0"/>
        <pt x="445" y="646" on="1"/>
        <pt x="445" y="524" on="1"/>
        <pt x="370" y="569" on="0"/>
      </contour>
      <contour>
        <pt x="219" y="723" on="1"/>
        <pt x="310" y="892" on="1"/>
        <pt x="436" y="892" on="1"/>
        <pt x="320" y="723" on="1"/>
      </contour>
    </TTGlyph>
    <TTGlyph name="Scaron" xMin="49" yMin="-8" xMax="477" yMax="892">
      <contour>
        <pt x="318" y="723" on="1"/>
        <pt x="212" y="723" on="1"/>
        <pt x="67" y="892" on="1"/>
        <pt x="184" y="892" on="1"/>
        <pt x="265" y="793" on="1"/>
        <pt x="346" y="892" on="1"/>
        <pt x="463" y="892" on="1"/>
      </contour>
      <contour>
        <pt x="285" y="569" on="1"/>
        <pt x="238" y="569" on="0"/>
        <pt x="185" y="527" on="0"/>
        <pt x="185" y="461" on="0"/>
        <pt x="242" y="418" on="0"/>
        <pt x="339" y="374" on="0"/>
        <pt x="389" y="347" on="0"/>
        <pt x="418" y="323" on="1"/>
        <pt x="477" y="275" on="0"/>
        <pt x="477" y="99" on="0"/>
        <pt x="348" y="-8" on="0"/>
        <pt x="129" y="-8" on="0"/>
        <pt x="54" y="35" on="1"/>
        <pt x="54" y="164" on="1"/>
        <pt x="140" y="102" on="0"/>
        <pt x="242" y="102" on="1"/>
        <pt x="288" y="102" on="0"/>
        <pt x="344" y="147" on="0"/>
        <pt x="344" y="185" on="1"/>
        <pt x="344" y="203" on="0"/>
        <pt x="330" y="231" on="0"/>
        <pt x="308" y="245" on="1"/>
        <pt x="266" y="273" on="0"/>
        <pt x="213" y="294" on="1"/>
        <pt x="176" y="311" on="0"/>
        <pt x="130" y="338" on="0"/>
        <pt x="103" y="361" on="1"/>
        <pt x="49" y="407" on="0"/>
        <pt x="49" y="575" on="0"/>
        <pt x="176" y="679" on="0"/>
        <pt x="376" y="679" on="0"/>
        <pt x="445" y="646" on="1"/>
        <pt x="445" y="524" on="1"/>
        <pt x="370" y="569" on="0"/>
      </contour>
    </TTGlyph>
    <TTGlyph name="Scircumflex" xMin="49" yMin="-8" xMax="477" yMax="892">
      <contour>
        <pt x="213" y="892" on="1"/>
        <pt x="319" y="892" on="1"/>
        <pt x="464" y="723" on="1"/>
        <pt x="347" y="723" on="1"/>
        <pt x="266" y="822" on="1"/>
        <pt x="185" y="723" on="1"/>
        <pt x="68" y="723" on="1"/>
      </contour>
      <contour>
        <pt x="285" y="569" on="1"/>
        <pt x="238" y="569" on="0"/>
        <pt x="185" y="527" on="0"/>
        <pt x="185" y="461" on="0"/>
        <pt x="242" y="418" on="0"/>
        <pt x="339" y="374" on="0"/>
        <pt x="389" y="347" on="0"/>
        <pt x="418" y="323" on="1"/>
        <pt x="477" y="275" on="0"/>
        <pt x="477" y="99" on="0"/>
        <pt x="348" y="-8" on="0"/>
        <pt x="129" y="-8" on="0"/>
        <pt x="54" y="35" on="1"/>
        <pt x="54" y="164" on="1"/>
        <pt x="140" y="102" on="0"/>
        <pt x="242" y="102" on="1"/>
        <pt x="288" y="102" on="0"/>
        <pt x="344" y="147" on="0"/>
        <pt x="344" y="185" on="1"/>
        <pt x="344" y="203" on="0"/>
        <pt x="330" y="231" on="0"/>
        <pt x="308" y="245" on="1"/>
        <pt x="266" y="273" on="0"/>
        <pt x="213" y="294" on="1"/>
        <pt x="176" y="311" on="0"/>
        <pt x="130" y="338" on="0"/>
        <pt x="103" y="361" on="1"/>
        <pt x="49" y="407" on="0"/>
        <pt x="49" y="575" on="0"/>
        <pt x="176" y="679" on="0"/>
        <pt x="376" y="679" on="0"/>
        <pt x="445" y="646" on="1"/>
        <pt x="445" y="524" on="1"/>
        <pt x="370" y="569" on="0"/>
      </contour>
    </TTGlyph>
    <TTGlyph name="T" xMin="26" yMin="0" xMax="495" yMax="674">
      <contour>
        <pt x="495" y="674" on="1"/>
        <pt x="495" y="570" on="1"/>
        <pt x="324" y="570" on="1"/>
        <pt x="324" y="0" on="1"/>
        <pt x="197" y="0" on="1"/>
        <pt x="197" y="570" on="1"/>
        <pt x="26" y="570" on="1"/>
        <pt x="26" y="674" on="1"/>
      </contour>
    </TTGlyph>
    <TTGlyph name="Tbar" xMin="26" yMin="0" xMax="495" yMax="674">
      <contour>
        <pt x="495" y="570" on="1"/>
        <pt x="324" y="570" on="1"/>
        <pt x="324" y="376" on="1"/>
        <pt x="437" y="376" on="1"/>
        <pt x="437" y="282" on="1"/>
        <pt x="324" y="282" on="1"/>
        <pt x="324" y="0" on="1"/>
        <pt x="197" y="0" on="1"/>
        <pt x="197" y="282" on="1"/>
        <pt x="84" y="282" on="1"/>
        <pt x="84" y="376" on="1"/>
        <pt x="197" y="376" on="1"/>
        <pt x="197" y="570" on="1"/>
        <pt x="26" y="570" on="1"/>
        <pt x="26" y="674" on="1"/>
        <pt x="495" y="674" on="1"/>
      </contour>
    </TTGlyph>
    <TTGlyph name="Tcaron" xMin="26" yMin="0" xMax="495" yMax="892">
      <contour>
        <pt x="495" y="674" on="1"/>
        <pt x="495" y="570" on="1"/>
        <pt x="324" y="570" on="1"/>
        <pt x="324" y="0" on="1"/>
        <pt x="197" y="0" on="1"/>
        <pt x="197" y="570" on="1"/>
        <pt x="26" y="570" on="1"/>
        <pt x="26" y="674" on="1"/>
      </contour>
      <contour>
        <pt x="314" y="723" on="1"/>
        <pt x="208" y="723" on="1"/>
        <pt x="63" y="892" on="1"/>
        <pt x="180" y="892" on="1"/>
        <pt x="261" y="793" on="1"/>
        <pt x="342" y="892" on="1"/>
        <pt x="459" y="892" on="1"/>
      </contour>
    </TTGlyph>
    <TTGlyph name="Thorn" xMin="70" yMin="0" xMax="529" yMax="674">
      <contour>
        <pt x="196" y="559" on="1"/>
        <pt x="278" y="559" on="1"/>
        <pt x="394" y="559" on="0"/>
        <pt x="529" y="435" on="0"/>
        <pt x="529" y="235" on="0"/>
        <pt x="390" y="115" on="0"/>
        <pt x="281" y="115" on="1"/>
        <pt x="196" y="115" on="1"/>
        <pt x="196" y="0" on="1"/>
        <pt x="70" y="0" on="1"/>
        <pt x="70" y="674" on="1"/>
        <pt x="196" y="674" on="1"/>
      </contour>
      <contour>
        <pt x="196" y="217" on="1"/>
        <pt x="275" y="217" on="1"/>
        <pt x="338" y="217" on="0"/>
        <pt x="401" y="283" on="0"/>
        <pt x="401" y="386" on="0"/>
        <pt x="339" y="456" on="0"/>
        <pt x="271" y="456" on="1"/>
        <pt x="196" y="456" on="1"/>
      </contour>
    </TTGlyph>
    <TTGlyph name="U" xMin="66" yMin="-9" xMax="593" yMax="674">
      <contour>
        <pt x="467" y="258" on="1"/>
        <pt x="467" y="674" on="1"/>
        <pt x="593" y="674" on="1"/>
        <pt x="593" y="259" on="1"/>
        <pt x="593" y="128" on="0"/>
        <pt x="452" y="-9" on="0"/>
        <pt x="209" y="-9" on="0"/>
        <pt x="66" y="126" on="0"/>
        <pt x="66" y="252" on="1"/>
        <pt x="66" y="674" on="1"/>
        <pt x="192" y="674" on="1"/>
        <pt x="192" y="253" on="1"/>
        <pt x="192" y="176" on="0"/>
        <pt x="268" y="107" on="0"/>
        <pt x="329" y="107" on="1"/>
        <pt x="467" y="107" on="0"/>
      </contour>
    </TTGlyph>
    <TTGlyph name="Uacute" xMin="66" yMin="-9" xMax="593" yMax="892">
      <contour>
        <pt x="467" y="258" on="1"/>
        <pt x="467" y="674" on="1"/>
        <pt x="593" y="674" on="1"/>
        <pt x="593" y="259" on="1"/>
        <pt x="593" y="128" on="0"/>
        <pt x="452" y="-9" on="0"/>
        <pt x="209" y="-9" on="0"/>
        <pt x="66" y="126" on="0"/>
        <pt x="66" y="252" on="1"/>
        <pt x="66" y="674" on="1"/>
        <pt x="192" y="674" on="1"/>
        <pt x="192" y="253" on="1"/>
        <pt x="192" y="176" on="0"/>
        <pt x="268" y="107" on="0"/>
        <pt x="329" y="107" on="1"/>
        <pt x="467" y="107" on="0"/>
      </contour>
      <contour>
        <pt x="292" y="723" on="1"/>
        <pt x="383" y="892" on="1"/>
        <pt x="509" y="892" on="1"/>
        <pt x="393" y="723" on="1"/>
      </contour>
    </TTGlyph>
    <TTGlyph name="Ubreve" xMin="66" yMin="-9" xMax="593" yMax="892">
      <contour>
        <pt x="467" y="258" on="1"/>
        <pt x="467" y="674" on="1"/>
        <pt x="593" y="674" on="1"/>
        <pt x="593" y="259" on="1"/>
        <pt x="593" y="128" on="0"/>
        <pt x="452" y="-9" on="0"/>
        <pt x="209" y="-9" on="0"/>
        <pt x="66" y="126" on="0"/>
        <pt x="66" y="252" on="1"/>
        <pt x="66" y="674" on="1"/>
        <pt x="192" y="674" on="1"/>
        <pt x="192" y="253" on="1"/>
        <pt x="192" y="176" on="0"/>
        <pt x="268" y="107" on="0"/>
        <pt x="329" y="107" on="1"/>
        <pt x="467" y="107" on="0"/>
      </contour>
      <contour>
        <pt x="143" y="892" on="1"/>
        <pt x="237" y="892" on="1"/>
        <pt x="237" y="849" on="0"/>
        <pt x="284" y="798" on="0"/>
        <pt x="372" y="798" on="0"/>
        <pt x="419" y="849" on="0"/>
        <pt x="419" y="892" on="1"/>
        <pt x="513" y="892" on="1"/>
        <pt x="513" y="806" on="0"/>
        <pt x="414" y="719" on="0"/>
        <pt x="242" y="719" on="0"/>
        <pt x="143" y="807" on="0"/>
      </contour>
    </TTGlyph>
    <TTGlyph name="Ucircumflex" xMin="66" yMin="-9" xMax="593" yMax="892">
      <contour>
        <pt x="276" y="892" on="1"/>
        <pt x="382" y="892" on="1"/>
        <pt x="527" y="723" on="1"/>
        <pt x="410" y="723" on="1"/>
        <pt x="329" y="822" on="1"/>
        <pt x="248" y="723" on="1"/>
        <pt x="131" y="723" on="1"/>
      </contour>
      <contour>
        <pt x="467" y="258" on="1"/>
        <pt x="467" y="674" on="1"/>
        <pt x="593" y="674" on="1"/>
        <pt x="593" y="259" on="1"/>
        <pt x="593" y="128" on="0"/>
        <pt x="452" y="-9" on="0"/>
        <pt x="209" y="-9" on="0"/>
        <pt x="66" y="126" on="0"/>
        <pt x="66" y="252" on="1"/>
        <pt x="66" y="674" on="1"/>
        <pt x="192" y="674" on="1"/>
        <pt x="192" y="253" on="1"/>
        <pt x="192" y="176" on="0"/>
        <pt x="268" y="107" on="0"/>
        <pt x="329" y="107" on="1"/>
        <pt x="467" y="107" on="0"/>
      </contour>
    </TTGlyph>
    <TTGlyph name="Udieresis" xMin="66" yMin="-9" xMax="593" yMax="877">
      <contour>
        <pt x="467" y="258" on="1"/>
        <pt x="467" y="674" on="1"/>
        <pt x="593" y="674" on="1"/>
        <pt x="593" y="259" on="1"/>
        <pt x="593" y="128" on="0"/>
        <pt x="452" y="-9" on="0"/>
        <pt x="209" y="-9" on="0"/>
        <pt x="66" y="126" on="0"/>
        <pt x="66" y="252" on="1"/>
        <pt x="66" y="674" on="1"/>
        <pt x="192" y="674" on="1"/>
        <pt x="192" y="253" on="1"/>
        <pt x="192" y="176" on="0"/>
        <pt x="268" y="107" on="0"/>
        <pt x="329" y="107" on="1"/>
        <pt x="467" y="107" on="0"/>
      </contour>
      <contour>
        <pt x="424" y="738" on="0"/>
        <pt x="383" y="778" on="0"/>
        <pt x="383" y="837" on="0"/>
        <pt x="424" y="877" on="0"/>
        <pt x="485" y="877" on="0"/>
        <pt x="525" y="837" on="0"/>
        <pt x="525" y="778" on="0"/>
        <pt x="485" y="738" on="0"/>
      </contour>
      <contour>
        <pt x="181" y="738" on="0"/>
        <pt x="141" y="778" on="0"/>
        <pt x="141" y="837" on="0"/>
        <pt x="181" y="877" on="0"/>
        <pt x="242" y="877" on="0"/>
        <pt x="282" y="837" on="0"/>
        <pt x="282" y="778" on="0"/>
        <pt x="242" y="738" on="0"/>
      </contour>
    </TTGlyph>
    <TTGlyph name="Ugrave" xMin="66" yMin="-9" xMax="593" yMax="892">
      <contour>
        <pt x="295" y="892" on="1"/>
        <pt x="386" y="723" on="1"/>
        <pt x="285" y="723" on="1"/>
        <pt x="169" y="892" on="1"/>
      </contour>
      <contour>
        <pt x="467" y="258" on="1"/>
        <pt x="467" y="674" on="1"/>
        <pt x="593" y="674" on="1"/>
        <pt x="593" y="259" on="1"/>
        <pt x="593" y="128" on="0"/>
        <pt x="452" y="-9" on="0"/>
        <pt x="209" y="-9" on="0"/>
        <pt x="66" y="126" on="0"/>
        <pt x="66" y="252" on="1"/>
        <pt x="66" y="674" on="1"/>
        <pt x="192" y="674" on="1"/>
        <pt x="192" y="253" on="1"/>
        <pt x="192" y="176" on="0"/>
        <pt x="268" y="107" on="0"/>
        <pt x="329" y="107" on="1"/>
        <pt x="467" y="107" on="0"/>
      </contour>
    </TTGlyph>
    <TTGlyph name="Uhungarumlaut" xMin="66" yMin="-9" xMax="596" yMax="892">
      <contour>
        <pt x="198" y="723" on="1"/>
        <pt x="288" y="892" on="1"/>
        <pt x="405" y="892" on="1"/>
        <pt x="288" y="723" on="1"/>
      </contour>
      <contour>
        <pt x="373" y="723" on="1"/>
        <pt x="470" y="892" on="1"/>
        <pt x="596" y="892" on="1"/>
        <pt x="464" y="723" on="1"/>
      </contour>
      <contour>
        <pt x="467" y="258" on="1"/>
        <pt x="467" y="674" on="1"/>
        <pt x="593" y="674" on="1"/>
        <pt x="593" y="259" on="1"/>
        <pt x="593" y="128" on="0"/>
        <pt x="452" y="-9" on="0"/>
        <pt x="209" y="-9" on="0"/>
        <pt x="66" y="126" on="0"/>
        <pt x="66" y="252" on="1"/>
        <pt x="66" y="674" on="1"/>
        <pt x="192" y="674" on="1"/>
        <pt x="192" y="253" on="1"/>
        <pt x="192" y="176" on="0"/>
        <pt x="268" y="107" on="0"/>
        <pt x="329" y="107" on="1"/>
        <pt x="467" y="107" on="0"/>
      </contour>
    </TTGlyph>
    <TTGlyph name="Umacron" xMin="66" yMin="-9" xMax="593" yMax="849">
      <contour>
        <pt x="500" y="766" on="1"/>
        <pt x="172" y="766" on="1"/>
        <pt x="172" y="849" on="1"/>
        <pt x="500" y="849" on="1"/>
      </contour>
      <contour>
        <pt x="467" y="258" on="1"/>
        <pt x="467" y="674" on="1"/>
        <pt x="593" y="674" on="1"/>
        <pt x="593" y="259" on="1"/>
        <pt x="593" y="128" on="0"/>
        <pt x="452" y="-9" on="0"/>
        <pt x="209" y="-9" on="0"/>
        <pt x="66" y="126" on="0"/>
        <pt x="66" y="252" on="1"/>
        <pt x="66" y="674" on="1"/>
        <pt x="192" y="674" on="1"/>
        <pt x="192" y="253" on="1"/>
        <pt x="192" y="176" on="0"/>
        <pt x="268" y="107" on="0"/>
        <pt x="329" y="107" on="1"/>
        <pt x="467" y="107" on="0"/>
      </contour>
    </TTGlyph>
    <TTGlyph name="Uogonek" xMin="66" yMin="-245" xMax="593" yMax="674">
      <contour>
        <pt x="467" y="674" on="1"/>
        <pt x="593" y="674" on="1"/>
        <pt x="593" y="259" on="1"/>
        <pt x="593" y="160" on="0"/>
        <pt x="510" y="32" on="0"/>
        <pt x="435" y="7" on="1"/>
        <pt x="321" y="-60" on="0"/>
        <pt x="321" y="-120" on="1"/>
        <pt x="321" y="-164" on="0"/>
        <pt x="373" y="-164" on="1"/>
        <pt x="412" y="-164" on="0"/>
        <pt x="453" y="-137" on="1"/>
        <pt x="453" y="-222" on="1"/>
        <pt x="412" y="-245" on="0"/>
        <pt x="289" y="-245" on="0"/>
        <pt x="223" y="-181" on="0"/>
        <pt x="223" y="-131" on="1"/>
        <pt x="223" y="-64" on="0"/>
        <pt x="285" y="-7" on="1"/>
        <pt x="183" y="5" on="0"/>
        <pt x="66" y="138" on="0"/>
        <pt x="66" y="252" on="1"/>
        <pt x="66" y="674" on="1"/>
        <pt x="192" y="674" on="1"/>
        <pt x="192" y="253" on="1"/>
        <pt x="192" y="176" on="0"/>
        <pt x="268" y="107" on="0"/>
        <pt x="329" y="107" on="1"/>
        <pt x="467" y="107" on="0"/>
        <pt x="467" y="258" on="1"/>
      </contour>
    </TTGlyph>
    <TTGlyph name="Uring" xMin="66" yMin="-9" xMax="593" yMax="962">
      <contour>
        <pt x="467" y="258" on="1"/>
        <pt x="467" y="674" on="1"/>
        <pt x="593" y="674" on="1"/>
        <pt x="593" y="259" on="1"/>
        <pt x="593" y="128" on="0"/>
        <pt x="452" y="-9" on="0"/>
        <pt x="209" y="-9" on="0"/>
        <pt x="66" y="126" on="0"/>
        <pt x="66" y="252" on="1"/>
        <pt x="66" y="674" on="1"/>
        <pt x="192" y="674" on="1"/>
        <pt x="192" y="253" on="1"/>
        <pt x="192" y="176" on="0"/>
        <pt x="268" y="107" on="0"/>
        <pt x="329" y="107" on="1"/>
        <pt x="467" y="107" on="0"/>
      </contour>
      <contour>
        <pt x="279" y="861" on="0"/>
        <pt x="279" y="817" on="0"/>
        <pt x="309" y="784" on="0"/>
        <pt x="355" y="784" on="0"/>
        <pt x="385" y="817" on="0"/>
        <pt x="385" y="861" on="0"/>
        <pt x="355" y="894" on="0"/>
        <pt x="309" y="894" on="0"/>
      </contour>
      <contour>
        <pt x="207" y="785" on="0"/>
        <pt x="207" y="889" on="0"/>
        <pt x="280" y="962" on="0"/>
        <pt x="384" y="962" on="0"/>
        <pt x="457" y="889" on="0"/>
        <pt x="457" y="785" on="0"/>
        <pt x="384" y="712" on="0"/>
        <pt x="280" y="712" on="0"/>
      </contour>
    </TTGlyph>
    <TTGlyph name="Utilde" xMin="66" yMin="-9" xMax="593" yMax="876">
      <contour>
        <pt x="402" y="746" on="1"/>
        <pt x="372" y="746" on="0"/>
        <pt x="294" y="784" on="0"/>
        <pt x="255" y="784" on="0"/>
        <pt x="225" y="765" on="0"/>
        <pt x="207" y="740" on="1"/>
        <pt x="150" y="793" on="1"/>
        <pt x="166" y="826" on="0"/>
        <pt x="225" y="871" on="0"/>
        <pt x="295" y="871" on="0"/>
        <pt x="377" y="833" on="0"/>
        <pt x="396" y="833" on="1"/>
        <pt x="439" y="833" on="0"/>
        <pt x="460" y="876" on="1"/>
        <pt x="524" y="825" on="1"/>
        <pt x="485" y="746" on="0"/>
      </contour>
      <contour>
        <pt x="467" y="258" on="1"/>
        <pt x="467" y="674" on="1"/>
        <pt x="593" y="674" on="1"/>
        <pt x="593" y="259" on="1"/>
        <pt x="593" y="128" on="0"/>
        <pt x="452" y="-9" on="0"/>
        <pt x="209" y="-9" on="0"/>
        <pt x="66" y="126" on="0"/>
        <pt x="66" y="252" on="1"/>
        <pt x="66" y="674" on="1"/>
        <pt x="192" y="674" on="1"/>
        <pt x="192" y="253" on="1"/>
        <pt x="192" y="176" on="0"/>
        <pt x="268" y="107" on="0"/>
        <pt x="329" y="107" on="1"/>
        <pt x="467" y="107" on="0"/>
      </contour>
    </TTGlyph>
    <TTGlyph name="V" xMin="25" yMin="0" xMax="625" yMax="674">
      <contour>
        <pt x="625" y="674" on="1"/>
        <pt x="395" y="0" on="1"/>
        <pt x="251" y="0" on="1"/>
        <pt x="25" y="674" on="1"/>
        <pt x="162" y="674" on="1"/>
        <pt x="296" y="241" on="0"/>
        <pt x="325" y="114" on="1"/>
        <pt x="349" y="226" on="0"/>
        <pt x="406" y="406" on="1"/>
        <pt x="490" y="674" on="1"/>
      </contour>
    </TTGlyph>
    <TTGlyph name="W" xMin="25" yMin="0" xMax="933" yMax="674">
      <contour>
        <pt x="431" y="664" on="1"/>
        <pt x="533" y="664" on="1"/>
        <pt x="602" y="425" on="1"/>
        <pt x="682" y="135" on="1"/>
        <pt x="707" y="274" on="0"/>
        <pt x="744" y="426" on="1"/>
        <pt x="805" y="674" on="1"/>
        <pt x="933" y="674" on="1"/>
        <pt x="761" y="0" on="1"/>
        <pt x="615" y="0" on="1"/>
        <pt x="503" y="391" on="0"/>
        <pt x="483" y="473" on="1"/>
        <pt x="469" y="401" on="0"/>
        <pt x="350" y="0" on="1"/>
        <pt x="205" y="0" on="1"/>
        <pt x="25" y="674" on="1"/>
        <pt x="158" y="674" on="1"/>
        <pt x="244" y="333" on="0"/>
        <pt x="285" y="137" on="1"/>
        <pt x="318" y="266" on="0"/>
      </contour>
    </TTGlyph>
    <TTGlyph name="Wacute" xMin="25" yMin="0" xMax="933" yMax="892">
      <contour>
        <pt x="444" y="723" on="1"/>
        <pt x="535" y="892" on="1"/>
        <pt x="661" y="892" on="1"/>
        <pt x="545" y="723" on="1"/>
      </contour>
      <contour>
        <pt x="431" y="664" on="1"/>
        <pt x="533" y="664" on="1"/>
        <pt x="602" y="425" on="1"/>
        <pt x="682" y="135" on="1"/>
        <pt x="707" y="274" on="0"/>
        <pt x="744" y="426" on="1"/>
        <pt x="805" y="674" on="1"/>
        <pt x="933" y="674" on="1"/>
        <pt x="761" y="0" on="1"/>
        <pt x="615" y="0" on="1"/>
        <pt x="503" y="391" on="0"/>
        <pt x="483" y="473" on="1"/>
        <pt x="469" y="401" on="0"/>
        <pt x="350" y="0" on="1"/>
        <pt x="205" y="0" on="1"/>
        <pt x="25" y="674" on="1"/>
        <pt x="158" y="674" on="1"/>
        <pt x="244" y="333" on="0"/>
        <pt x="285" y="137" on="1"/>
        <pt x="318" y="266" on="0"/>
      </contour>
    </TTGlyph>
    <TTGlyph name="Wcircumflex" xMin="25" yMin="0" xMax="933" yMax="892">
      <contour>
        <pt x="433" y="892" on="1"/>
        <pt x="539" y="892" on="1"/>
        <pt x="684" y="723" on="1"/>
        <pt x="567" y="723" on="1"/>
        <pt x="486" y="822" on="1"/>
        <pt x="405" y="723" on="1"/>
        <pt x="288" y="723" on="1"/>
      </contour>
      <contour>
        <pt x="431" y="664" on="1"/>
        <pt x="533" y="664" on="1"/>
        <pt x="602" y="425" on="1"/>
        <pt x="682" y="135" on="1"/>
        <pt x="707" y="274" on="0"/>
        <pt x="744" y="426" on="1"/>
        <pt x="805" y="674" on="1"/>
        <pt x="933" y="674" on="1"/>
        <pt x="761" y="0" on="1"/>
        <pt x="615" y="0" on="1"/>
        <pt x="503" y="391" on="0"/>
        <pt x="483" y="473" on="1"/>
        <pt x="469" y="401" on="0"/>
        <pt x="350" y="0" on="1"/>
        <pt x="205" y="0" on="1"/>
        <pt x="25" y="674" on="1"/>
        <pt x="158" y="674" on="1"/>
        <pt x="244" y="333" on="0"/>
        <pt x="285" y="137" on="1"/>
        <pt x="318" y="266" on="0"/>
      </contour>
    </TTGlyph>
    <TTGlyph name="Wdieresis" xMin="25" yMin="0" xMax="933" yMax="877">
      <contour>
        <pt x="331" y="738" on="0"/>
        <pt x="291" y="778" on="0"/>
        <pt x="291" y="837" on="0"/>
        <pt x="331" y="877" on="0"/>
        <pt x="392" y="877" on="0"/>
        <pt x="432" y="837" on="0"/>
        <pt x="432" y="778" on="0"/>
        <pt x="392" y="738" on="0"/>
      </contour>
      <contour>
        <pt x="574" y="738" on="0"/>
        <pt x="533" y="778" on="0"/>
        <pt x="533" y="837" on="0"/>
        <pt x="574" y="877" on="0"/>
        <pt x="635" y="877" on="0"/>
        <pt x="675" y="837" on="0"/>
        <pt x="675" y="778" on="0"/>
        <pt x="635" y="738" on="0"/>
      </contour>
      <contour>
        <pt x="431" y="664" on="1"/>
        <pt x="533" y="664" on="1"/>
        <pt x="602" y="425" on="1"/>
        <pt x="682" y="135" on="1"/>
        <pt x="707" y="274" on="0"/>
        <pt x="744" y="426" on="1"/>
        <pt x="805" y="674" on="1"/>
        <pt x="933" y="674" on="1"/>
        <pt x="761" y="0" on="1"/>
        <pt x="615" y="0" on="1"/>
        <pt x="503" y="391" on="0"/>
        <pt x="483" y="473" on="1"/>
        <pt x="469" y="401" on="0"/>
        <pt x="350" y="0" on="1"/>
        <pt x="205" y="0" on="1"/>
        <pt x="25" y="674" on="1"/>
        <pt x="158" y="674" on="1"/>
        <pt x="244" y="333" on="0"/>
        <pt x="285" y="137" on="1"/>
        <pt x="318" y="266" on="0"/>
      </contour>
    </TTGlyph>
    <TTGlyph name="Wgrave" xMin="25" yMin="0" xMax="933" yMax="892">
      <contour>
        <pt x="431" y="664" on="1"/>
        <pt x="533" y="664" on="1"/>
        <pt x="602" y="425" on="1"/>
        <pt x="682" y="135" on="1"/>
        <pt x="707" y="274" on="0"/>
        <pt x="744" y="426" on="1"/>
        <pt x="805" y="674" on="1"/>
        <pt x="933" y="674" on="1"/>
        <pt x="761" y="0" on="1"/>
        <pt x="615" y="0" on="1"/>
        <pt x="503" y="391" on="0"/>
        <pt x="483" y="473" on="1"/>
        <pt x="469" y="401" on="0"/>
        <pt x="350" y="0" on="1"/>
        <pt x="205" y="0" on="1"/>
        <pt x="25" y="674" on="1"/>
        <pt x="158" y="674" on="1"/>
        <pt x="244" y="333" on="0"/>
        <pt x="285" y="137" on="1"/>
        <pt x="318" y="266" on="0"/>
      </contour>
      <contour>
        <pt x="438" y="892" on="1"/>
        <pt x="529" y="723" on="1"/>
        <pt x="428" y="723" on="1"/>
        <pt x="312" y="892" on="1"/>
      </contour>
    </TTGlyph>
    <TTGlyph name="X" xMin="32" yMin="0" xMax="613" yMax="674">
      <contour>
        <pt x="318" y="453" on="1"/>
        <pt x="443" y="674" on="1"/>
        <pt x="596" y="674" on="1"/>
        <pt x="392" y="341" on="1"/>
        <pt x="613" y="0" on="1"/>
        <pt x="463" y="0" on="1"/>
        <pt x="320" y="233" on="1"/>
        <pt x="305" y="204" on="0"/>
        <pt x="192" y="17" on="0"/>
        <pt x="183" y="0" on="1"/>
        <pt x="32" y="0" on="1"/>
        <pt x="246" y="341" on="1"/>
        <pt x="42" y="674" on="1"/>
        <pt x="189" y="674" on="1"/>
      </contour>
    </TTGlyph>
    <TTGlyph name="Y" xMin="18" yMin="0" xMax="606" yMax="674">
      <contour>
        <pt x="374" y="0" on="1"/>
        <pt x="248" y="0" on="1"/>
        <pt x="248" y="246" on="1"/>
        <pt x="18" y="674" on="1"/>
        <pt x="165" y="674" on="1"/>
        <pt x="286" y="412" on="0"/>
        <pt x="310" y="347" on="1"/>
        <pt x="319" y="384" on="0"/>
        <pt x="413" y="576" on="1"/>
        <pt x="459" y="674" on="1"/>
        <pt x="606" y="674" on="1"/>
        <pt x="374" y="250" on="1"/>
      </contour>
    </TTGlyph>
    <TTGlyph name="Yacute" xMin="18" yMin="0" xMax="606" yMax="892">
      <contour>
        <pt x="374" y="0" on="1"/>
        <pt x="248" y="0" on="1"/>
        <pt x="248" y="246" on="1"/>
        <pt x="18" y="674" on="1"/>
        <pt x="165" y="674" on="1"/>
        <pt x="286" y="412" on="0"/>
        <pt x="310" y="347" on="1"/>
        <pt x="319" y="384" on="0"/>
        <pt x="413" y="576" on="1"/>
        <pt x="459" y="674" on="1"/>
        <pt x="606" y="674" on="1"/>
        <pt x="374" y="250" on="1"/>
      </contour>
      <contour>
        <pt x="494" y="892" on="1"/>
        <pt x="378" y="723" on="1"/>
        <pt x="277" y="723" on="1"/>
        <pt x="368" y="892" on="1"/>
      </contour>
    </TTGlyph>
    <TTGlyph name="Ycircumflex" xMin="18" yMin="0" xMax="606" yMax="892">
      <contour>
        <pt x="374" y="0" on="1"/>
        <pt x="248" y="0" on="1"/>
        <pt x="248" y="246" on="1"/>
        <pt x="18" y="674" on="1"/>
        <pt x="165" y="674" on="1"/>
        <pt x="286" y="412" on="0"/>
        <pt x="310" y="347" on="1"/>
        <pt x="319" y="384" on="0"/>
        <pt x="413" y="576" on="1"/>
        <pt x="459" y="674" on="1"/>
        <pt x="606" y="674" on="1"/>
        <pt x="374" y="250" on="1"/>
      </contour>
      <contour>
        <pt x="312" y="822" on="1"/>
        <pt x="231" y="723" on="1"/>
        <pt x="114" y="723" on="1"/>
        <pt x="259" y="892" on="1"/>
        <pt x="365" y="892" on="1"/>
        <pt x="510" y="723" on="1"/>
        <pt x="393" y="723" on="1"/>
      </contour>
    </TTGlyph>
    <TTGlyph name="Ydieresis" xMin="18" yMin="0" xMax="606" yMax="877">
      <contour>
        <pt x="374" y="0" on="1"/>
        <pt x="248" y="0" on="1"/>
        <pt x="248" y="246" on="1"/>
        <pt x="18" y="674" on="1"/>
        <pt x="165" y="674" on="1"/>
        <pt x="286" y="412" on="0"/>
        <pt x="310" y="347" on="1"/>
        <pt x="319" y="384" on="0"/>
        <pt x="413" y="576" on="1"/>
        <pt x="459" y="674" on="1"/>
        <pt x="606" y="674" on="1"/>
        <pt x="374" y="250" on="1"/>
      </contour>
      <contour>
        <pt x="266" y="778" on="0"/>
        <pt x="226" y="738" on="0"/>
        <pt x="165" y="738" on="0"/>
        <pt x="125" y="778" on="0"/>
        <pt x="125" y="837" on="0"/>
        <pt x="165" y="877" on="0"/>
        <pt x="226" y="877" on="0"/>
        <pt x="266" y="837" on="0"/>
      </contour>
      <contour>
        <pt x="509" y="778" on="0"/>
        <pt x="469" y="738" on="0"/>
        <pt x="408" y="738" on="0"/>
        <pt x="367" y="778" on="0"/>
        <pt x="367" y="837" on="0"/>
        <pt x="408" y="877" on="0"/>
        <pt x="469" y="877" on="0"/>
        <pt x="509" y="837" on="0"/>
      </contour>
    </TTGlyph>
    <TTGlyph name="Ygrave" xMin="18" yMin="0" xMax="606" yMax="892">
      <contour>
        <pt x="374" y="0" on="1"/>
        <pt x="248" y="0" on="1"/>
        <pt x="248" y="246" on="1"/>
        <pt x="18" y="674" on="1"/>
        <pt x="165" y="674" on="1"/>
        <pt x="286" y="412" on="0"/>
        <pt x="310" y="347" on="1"/>
        <pt x="319" y="384" on="0"/>
        <pt x="413" y="576" on="1"/>
        <pt x="459" y="674" on="1"/>
        <pt x="606" y="674" on="1"/>
        <pt x="374" y="250" on="1"/>
      </contour>
      <contour>
        <pt x="369" y="723" on="1"/>
        <pt x="268" y="723" on="1"/>
        <pt x="152" y="892" on="1"/>
        <pt x="278" y="892" on="1"/>
      </contour>
    </TTGlyph>
    <TTGlyph name="Z" xMin="57" yMin="0" xMax="544" yMax="674">
      <contour>
        <pt x="531" y="674" on="1"/>
        <pt x="531" y="581" on="1"/>
        <pt x="208" y="103" on="1"/>
        <pt x="544" y="103" on="1"/>
        <pt x="544" y="0" on="1"/>
        <pt x="57" y="0" on="1"/>
        <pt x="57" y="96" on="1"/>
        <pt x="379" y="571" on="1"/>
        <pt x="62" y="571" on="1"/>
        <pt x="62" y="674" on="1"/>
      </contour>
    </TTGlyph>
    <TTGlyph name="Zacute" xMin="57" yMin="0" xMax="544" yMax="892">
      <contour>
        <pt x="531" y="674" on="1"/>
        <pt x="531" y="581" on="1"/>
        <pt x="208" y="103" on="1"/>
        <pt x="544" y="103" on="1"/>
        <pt x="544" y="0" on="1"/>
        <pt x="57" y="0" on="1"/>
        <pt x="57" y="96" on="1"/>
        <pt x="379" y="571" on="1"/>
        <pt x="62" y="571" on="1"/>
        <pt x="62" y="674" on="1"/>
      </contour>
      <contour>
        <pt x="269" y="723" on="1"/>
        <pt x="360" y="892" on="1"/>
        <pt x="486" y="892" on="1"/>
        <pt x="370" y="723" on="1"/>
      </contour>
    </TTGlyph>
    <TTGlyph name="Zcaron" xMin="57" yMin="0" xMax="544" yMax="892">
      <contour>
        <pt x="359" y="723" on="1"/>
        <pt x="253" y="723" on="1"/>
        <pt x="108" y="892" on="1"/>
        <pt x="225" y="892" on="1"/>
        <pt x="306" y="793" on="1"/>
        <pt x="387" y="892" on="1"/>
        <pt x="504" y="892" on="1"/>
      </contour>
      <contour>
        <pt x="531" y="674" on="1"/>
        <pt x="531" y="581" on="1"/>
        <pt x="208" y="103" on="1"/>
        <pt x="544" y="103" on="1"/>
        <pt x="544" y="0" on="1"/>
        <pt x="57" y="0" on="1"/>
        <pt x="57" y="96" on="1"/>
        <pt x="379" y="571" on="1"/>
        <pt x="62" y="571" on="1"/>
        <pt x="62" y="674" on="1"/>
      </contour>
    </TTGlyph>
    <TTGlyph name="Zdotaccent" xMin="57" yMin="0" xMax="544" yMax="878">
      <contour>
        <pt x="284" y="739" on="0"/>
        <pt x="244" y="779" on="0"/>
        <pt x="244" y="838" on="0"/>
        <pt x="284" y="878" on="0"/>
        <pt x="345" y="878" on="0"/>
        <pt x="385" y="838" on="0"/>
        <pt x="385" y="779" on="0"/>
        <pt x="345" y="739" on="0"/>
      </contour>
      <contour>
        <pt x="531" y="674" on="1"/>
        <pt x="531" y="581" on="1"/>
        <pt x="208" y="103" on="1"/>
        <pt x="544" y="103" on="1"/>
        <pt x="544" y="0" on="1"/>
        <pt x="57" y="0" on="1"/>
        <pt x="57" y="96" on="1"/>
        <pt x="379" y="571" on="1"/>
        <pt x="62" y="571" on="1"/>
        <pt x="62" y="674" on="1"/>
      </contour>
    </TTGlyph>
    <TTGlyph name="a" xMin="40" yMin="-4" xMax="448" yMax="516">
      <contour>
        <pt x="242" y="516" on="1"/>
        <pt x="448" y="516" on="0"/>
        <pt x="448" y="324" on="1"/>
        <pt x="448" y="0" on="1"/>
        <pt x="329" y="0" on="1"/>
        <pt x="329" y="61" on="1"/>
        <pt x="294" y="-4" on="0"/>
        <pt x="197" y="-4" on="1"/>
        <pt x="125" y="-4" on="0"/>
        <pt x="40" y="80" on="0"/>
        <pt x="40" y="216" on="0"/>
        <pt x="148" y="298" on="0"/>
        <pt x="250" y="298" on="1"/>
        <pt x="324" y="298" on="1"/>
        <pt x="324" y="329" on="1"/>
        <pt x="324" y="371" on="0"/>
        <pt x="280" y="415" on="0"/>
        <pt x="227" y="415" on="1"/>
        <pt x="146" y="415" on="0"/>
        <pt x="78" y="370" on="1"/>
        <pt x="78" y="481" on="1"/>
        <pt x="135" y="516" on="0"/>
      </contour>
      <contour>
        <pt x="324" y="218" on="1"/>
        <pt x="262" y="218" on="1"/>
        <pt x="215" y="218" on="0"/>
        <pt x="165" y="179" on="0"/>
        <pt x="165" y="149" on="1"/>
        <pt x="165" y="85" on="0"/>
        <pt x="239" y="85" on="1"/>
        <pt x="279" y="85" on="0"/>
        <pt x="324" y="132" on="0"/>
        <pt x="324" y="170" on="1"/>
      </contour>
    </TTGlyph>
    <TTGlyph name="aacute" xMin="40" yMin="-4" xMax="448" yMax="725">
      <contour>
        <pt x="242" y="516" on="1"/>
        <pt x="448" y="516" on="0"/>
        <pt x="448" y="324" on="1"/>
        <pt x="448" y="0" on="1"/>
        <pt x="329" y="0" on="1"/>
        <pt x="329" y="61" on="1"/>
        <pt x="294" y="-4" on="0"/>
        <pt x="197" y="-4" on="1"/>
        <pt x="125" y="-4" on="0"/>
        <pt x="40" y="80" on="0"/>
        <pt x="40" y="216" on="0"/>
        <pt x="148" y="298" on="0"/>
        <pt x="250" y="298" on="1"/>
        <pt x="324" y="298" on="1"/>
        <pt x="324" y="329" on="1"/>
        <pt x="324" y="371" on="0"/>
        <pt x="280" y="415" on="0"/>
        <pt x="227" y="415" on="1"/>
        <pt x="146" y="415" on="0"/>
        <pt x="78" y="370" on="1"/>
        <pt x="78" y="481" on="1"/>
        <pt x="135" y="516" on="0"/>
      </contour>
      <contour>
        <pt x="324" y="218" on="1"/>
        <pt x="262" y="218" on="1"/>
        <pt x="215" y="218" on="0"/>
        <pt x="165" y="179" on="0"/>
        <pt x="165" y="149" on="1"/>
        <pt x="165" y="85" on="0"/>
        <pt x="239" y="85" on="1"/>
        <pt x="279" y="85" on="0"/>
        <pt x="324" y="132" on="0"/>
        <pt x="324" y="170" on="1"/>
      </contour>
      <contour>
        <pt x="422" y="725" on="1"/>
        <pt x="306" y="556" on="1"/>
        <pt x="205" y="556" on="1"/>
        <pt x="296" y="725" on="1"/>
      </contour>
    </TTGlyph>
    <TTGlyph name="abreve" xMin="40" yMin="-4" xMax="448" yMax="724">
      <contour>
        <pt x="242" y="516" on="1"/>
        <pt x="448" y="516" on="0"/>
        <pt x="448" y="324" on="1"/>
        <pt x="448" y="0" on="1"/>
        <pt x="329" y="0" on="1"/>
        <pt x="329" y="61" on="1"/>
        <pt x="294" y="-4" on="0"/>
        <pt x="197" y="-4" on="1"/>
        <pt x="125" y="-4" on="0"/>
        <pt x="40" y="80" on="0"/>
        <pt x="40" y="216" on="0"/>
        <pt x="148" y="298" on="0"/>
        <pt x="250" y="298" on="1"/>
        <pt x="324" y="298" on="1"/>
        <pt x="324" y="329" on="1"/>
        <pt x="324" y="371" on="0"/>
        <pt x="280" y="415" on="0"/>
        <pt x="227" y="415" on="1"/>
        <pt x="146" y="415" on="0"/>
        <pt x="78" y="370" on="1"/>
        <pt x="78" y="481" on="1"/>
        <pt x="135" y="516" on="0"/>
      </contour>
      <contour>
        <pt x="324" y="218" on="1"/>
        <pt x="262" y="218" on="1"/>
        <pt x="215" y="218" on="0"/>
        <pt x="165" y="179" on="0"/>
        <pt x="165" y="149" on="1"/>
        <pt x="165" y="85" on="0"/>
        <pt x="239" y="85" on="1"/>
        <pt x="279" y="85" on="0"/>
        <pt x="324" y="132" on="0"/>
        <pt x="324" y="170" on="1"/>
      </contour>
      <contour>
        <pt x="345" y="724" on="1"/>
        <pt x="439" y="724" on="1"/>
        <pt x="439" y="638" on="0"/>
        <pt x="340" y="551" on="0"/>
        <pt x="168" y="551" on="0"/>
        <pt x="69" y="639" on="0"/>
        <pt x="69" y="724" on="1"/>
        <pt x="163" y="724" on="1"/>
        <pt x="163" y="681" on="0"/>
        <pt x="210" y="630" on="0"/>
        <pt x="298" y="630" on="0"/>
        <pt x="345" y="681" on="0"/>
      </contour>
    </TTGlyph>
    <TTGlyph name="acircumflex" xMin="40" yMin="-4" xMax="453" yMax="725">
      <contour>
        <pt x="242" y="516" on="1"/>
        <pt x="448" y="516" on="0"/>
        <pt x="448" y="324" on="1"/>
        <pt x="448" y="0" on="1"/>
        <pt x="329" y="0" on="1"/>
        <pt x="329" y="61" on="1"/>
        <pt x="294" y="-4" on="0"/>
        <pt x="197" y="-4" on="1"/>
        <pt x="125" y="-4" on="0"/>
        <pt x="40" y="80" on="0"/>
        <pt x="40" y="216" on="0"/>
        <pt x="148" y="298" on="0"/>
        <pt x="250" y="298" on="1"/>
        <pt x="324" y="298" on="1"/>
        <pt x="324" y="329" on="1"/>
        <pt x="324" y="371" on="0"/>
        <pt x="280" y="415" on="0"/>
        <pt x="227" y="415" on="1"/>
        <pt x="146" y="415" on="0"/>
        <pt x="78" y="370" on="1"/>
        <pt x="78" y="481" on="1"/>
        <pt x="135" y="516" on="0"/>
      </contour>
      <contour>
        <pt x="324" y="218" on="1"/>
        <pt x="262" y="218" on="1"/>
        <pt x="215" y="218" on="0"/>
        <pt x="165" y="179" on="0"/>
        <pt x="165" y="149" on="1"/>
        <pt x="165" y="85" on="0"/>
        <pt x="239" y="85" on="1"/>
        <pt x="279" y="85" on="0"/>
        <pt x="324" y="132" on="0"/>
        <pt x="324" y="170" on="1"/>
      </contour>
      <contour>
        <pt x="255" y="655" on="1"/>
        <pt x="174" y="556" on="1"/>
        <pt x="57" y="556" on="1"/>
        <pt x="202" y="725" on="1"/>
        <pt x="308" y="725" on="1"/>
        <pt x="453" y="556" on="1"/>
        <pt x="336" y="556" on="1"/>
      </contour>
    </TTGlyph>
    <TTGlyph name="acute" xMin="127" yMin="629" xMax="344" yMax="798">
      <contour>
        <pt x="127" y="629" on="1"/>
        <pt x="218" y="798" on="1"/>
        <pt x="344" y="798" on="1"/>
        <pt x="228" y="629" on="1"/>
      </contour>
    </TTGlyph>
    <TTGlyph name="adieresis" xMin="40" yMin="-4" xMax="452" yMax="709">
      <contour>
        <pt x="242" y="516" on="1"/>
        <pt x="448" y="516" on="0"/>
        <pt x="448" y="324" on="1"/>
        <pt x="448" y="0" on="1"/>
        <pt x="329" y="0" on="1"/>
        <pt x="329" y="61" on="1"/>
        <pt x="294" y="-4" on="0"/>
        <pt x="197" y="-4" on="1"/>
        <pt x="125" y="-4" on="0"/>
        <pt x="40" y="80" on="0"/>
        <pt x="40" y="216" on="0"/>
        <pt x="148" y="298" on="0"/>
        <pt x="250" y="298" on="1"/>
        <pt x="324" y="298" on="1"/>
        <pt x="324" y="329" on="1"/>
        <pt x="324" y="371" on="0"/>
        <pt x="280" y="415" on="0"/>
        <pt x="227" y="415" on="1"/>
        <pt x="146" y="415" on="0"/>
        <pt x="78" y="370" on="1"/>
        <pt x="78" y="481" on="1"/>
        <pt x="135" y="516" on="0"/>
      </contour>
      <contour>
        <pt x="324" y="218" on="1"/>
        <pt x="262" y="218" on="1"/>
        <pt x="215" y="218" on="0"/>
        <pt x="165" y="179" on="0"/>
        <pt x="165" y="149" on="1"/>
        <pt x="165" y="85" on="0"/>
        <pt x="239" y="85" on="1"/>
        <pt x="279" y="85" on="0"/>
        <pt x="324" y="132" on="0"/>
        <pt x="324" y="170" on="1"/>
      </contour>
      <contour>
        <pt x="209" y="610" on="0"/>
        <pt x="169" y="570" on="0"/>
        <pt x="108" y="570" on="0"/>
        <pt x="68" y="610" on="0"/>
        <pt x="68" y="669" on="0"/>
        <pt x="108" y="709" on="0"/>
        <pt x="169" y="709" on="0"/>
        <pt x="209" y="669" on="0"/>
      </contour>
      <contour>
        <pt x="452" y="610" on="0"/>
        <pt x="412" y="570" on="0"/>
        <pt x="351" y="570" on="0"/>
        <pt x="310" y="610" on="0"/>
        <pt x="310" y="669" on="0"/>
        <pt x="351" y="709" on="0"/>
        <pt x="412" y="709" on="0"/>
        <pt x="452" y="669" on="0"/>
      </contour>
    </TTGlyph>
    <TTGlyph name="ae" xMin="45" yMin="-5" xMax="772" yMax="516">
      <contour>
        <pt x="462" y="151" on="0"/>
        <pt x="546" y="92" on="0"/>
        <pt x="684" y="92" on="0"/>
        <pt x="739" y="132" on="1"/>
        <pt x="739" y="28" on="1"/>
        <pt x="685" y="-5" on="0"/>
        <pt x="592" y="-5" on="1"/>
        <pt x="532" y="-5" on="0"/>
        <pt x="423" y="45" on="0"/>
        <pt x="394" y="92" on="1"/>
        <pt x="376" y="51" on="0"/>
        <pt x="287" y="-4" on="0"/>
        <pt x="136" y="-4" on="0"/>
        <pt x="45" y="75" on="0"/>
        <pt x="45" y="216" on="0"/>
        <pt x="154" y="298" on="0"/>
        <pt x="256" y="298" on="1"/>
        <pt x="329" y="298" on="1"/>
        <pt x="329" y="329" on="1"/>
        <pt x="329" y="371" on="0"/>
        <pt x="285" y="415" on="0"/>
        <pt x="232" y="415" on="1"/>
        <pt x="149" y="415" on="0"/>
        <pt x="83" y="370" on="1"/>
        <pt x="83" y="481" on="1"/>
        <pt x="143" y="516" on="0"/>
        <pt x="240" y="516" on="1"/>
        <pt x="359" y="516" on="0"/>
        <pt x="395" y="435" on="1"/>
        <pt x="447" y="512" on="0"/>
        <pt x="659" y="512" on="0"/>
        <pt x="772" y="392" on="0"/>
        <pt x="772" y="275" on="1"/>
        <pt x="772" y="249" on="0"/>
        <pt x="765" y="205" on="1"/>
        <pt x="449" y="205" on="1"/>
      </contour>
      <contour>
        <pt x="658" y="295" on="1"/>
        <pt x="658" y="309" on="1"/>
        <pt x="656" y="360" on="0"/>
        <pt x="607" y="418" on="0"/>
        <pt x="520" y="418" on="0"/>
        <pt x="455" y="355" on="0"/>
        <pt x="446" y="295" on="1"/>
      </contour>
      <contour>
        <pt x="329" y="173" on="1"/>
        <pt x="329" y="217" on="1"/>
        <pt x="272" y="217" on="1"/>
        <pt x="223" y="217" on="0"/>
        <pt x="170" y="181" on="0"/>
        <pt x="170" y="149" on="1"/>
        <pt x="170" y="86" on="0"/>
        <pt x="244" y="86" on="1"/>
        <pt x="282" y="86" on="0"/>
        <pt x="329" y="133" on="0"/>
      </contour>
    </TTGlyph>
    <TTGlyph name="agrave" xMin="40" yMin="-4" xMax="448" yMax="725">
      <contour>
        <pt x="242" y="516" on="1"/>
        <pt x="448" y="516" on="0"/>
        <pt x="448" y="324" on="1"/>
        <pt x="448" y="0" on="1"/>
        <pt x="329" y="0" on="1"/>
        <pt x="329" y="61" on="1"/>
        <pt x="294" y="-4" on="0"/>
        <pt x="197" y="-4" on="1"/>
        <pt x="125" y="-4" on="0"/>
        <pt x="40" y="80" on="0"/>
        <pt x="40" y="216" on="0"/>
        <pt x="148" y="298" on="0"/>
        <pt x="250" y="298" on="1"/>
        <pt x="324" y="298" on="1"/>
        <pt x="324" y="329" on="1"/>
        <pt x="324" y="371" on="0"/>
        <pt x="280" y="415" on="0"/>
        <pt x="227" y="415" on="1"/>
        <pt x="146" y="415" on="0"/>
        <pt x="78" y="370" on="1"/>
        <pt x="78" y="481" on="1"/>
        <pt x="135" y="516" on="0"/>
      </contour>
      <contour>
        <pt x="324" y="218" on="1"/>
        <pt x="262" y="218" on="1"/>
        <pt x="215" y="218" on="0"/>
        <pt x="165" y="179" on="0"/>
        <pt x="165" y="149" on="1"/>
        <pt x="165" y="85" on="0"/>
        <pt x="239" y="85" on="1"/>
        <pt x="279" y="85" on="0"/>
        <pt x="324" y="132" on="0"/>
        <pt x="324" y="170" on="1"/>
      </contour>
      <contour>
        <pt x="313" y="556" on="1"/>
        <pt x="212" y="556" on="1"/>
        <pt x="96" y="725" on="1"/>
        <pt x="222" y="725" on="1"/>
      </contour>
    </TTGlyph>
    <TTGlyph name="amacron" xMin="40" yMin="-4" xMax="448" yMax="682">
      <contour>
        <pt x="242" y="516" on="1"/>
        <pt x="448" y="516" on="0"/>
        <pt x="448" y="324" on="1"/>
        <pt x="448" y="0" on="1"/>
        <pt x="329" y="0" on="1"/>
        <pt x="329" y="61" on="1"/>
        <pt x="294" y="-4" on="0"/>
        <pt x="197" y="-4" on="1"/>
        <pt x="125" y="-4" on="0"/>
        <pt x="40" y="80" on="0"/>
        <pt x="40" y="216" on="0"/>
        <pt x="148" y="298" on="0"/>
        <pt x="250" y="298" on="1"/>
        <pt x="324" y="298" on="1"/>
        <pt x="324" y="329" on="1"/>
        <pt x="324" y="371" on="0"/>
        <pt x="280" y="415" on="0"/>
        <pt x="227" y="415" on="1"/>
        <pt x="146" y="415" on="0"/>
        <pt x="78" y="370" on="1"/>
        <pt x="78" y="481" on="1"/>
        <pt x="135" y="516" on="0"/>
      </contour>
      <contour>
        <pt x="324" y="218" on="1"/>
        <pt x="262" y="218" on="1"/>
        <pt x="215" y="218" on="0"/>
        <pt x="165" y="179" on="0"/>
        <pt x="165" y="149" on="1"/>
        <pt x="165" y="85" on="0"/>
        <pt x="239" y="85" on="1"/>
        <pt x="279" y="85" on="0"/>
        <pt x="324" y="132" on="0"/>
        <pt x="324" y="170" on="1"/>
      </contour>
      <contour>
        <pt x="418" y="682" on="1"/>
        <pt x="418" y="599" on="1"/>
        <pt x="90" y="599" on="1"/>
        <pt x="90" y="682" on="1"/>
      </contour>
    </TTGlyph>
    <TTGlyph name="ampersand" xMin="56" yMin="-8" xMax="724" yMax="689">
      <contour>
        <pt x="522" y="47" on="1"/>
        <pt x="440" y="-8" on="0"/>
        <pt x="203" y="-8" on="0"/>
        <pt x="56" y="100" on="0"/>
        <pt x="56" y="181" on="1"/>
        <pt x="56" y="242" on="0"/>
        <pt x="128" y="326" on="0"/>
        <pt x="206" y="352" on="1"/>
        <pt x="127" y="437" on="0"/>
        <pt x="127" y="594" on="0"/>
        <pt x="242" y="689" on="0"/>
        <pt x="428" y="689" on="0"/>
        <pt x="542" y="590" on="0"/>
        <pt x="542" y="507" on="1"/>
        <pt x="542" y="448" on="0"/>
        <pt x="473" y="357" on="0"/>
        <pt x="393" y="319" on="1"/>
        <pt x="518" y="197" on="1"/>
        <pt x="539" y="235" on="0"/>
        <pt x="541" y="288" on="1"/>
        <pt x="651" y="288" on="1"/>
        <pt x="648" y="194" on="0"/>
        <pt x="598" y="121" on="1"/>
        <pt x="691" y="30" on="0"/>
        <pt x="724" y="0" on="1"/>
        <pt x="572" y="0" on="1"/>
        <pt x="559" y="12" on="0"/>
      </contour>
      <contour>
        <pt x="420" y="541" on="0"/>
        <pt x="373" y="588" on="0"/>
        <pt x="296" y="588" on="0"/>
        <pt x="250" y="548" on="0"/>
        <pt x="250" y="511" on="1"/>
        <pt x="250" y="464" on="0"/>
        <pt x="326" y="386" on="1"/>
        <pt x="420" y="434" on="0"/>
        <pt x="420" y="501" on="1"/>
      </contour>
      <contour>
        <pt x="224" y="265" on="0"/>
        <pt x="179" y="218" on="0"/>
        <pt x="179" y="144" on="0"/>
        <pt x="263" y="94" on="0"/>
        <pt x="392" y="94" on="0"/>
        <pt x="444" y="122" on="1"/>
        <pt x="277" y="283" on="1"/>
      </contour>
    </TTGlyph>
    <TTGlyph name="aogonek" xMin="40" yMin="-253" xMax="463" yMax="516">
      <contour>
        <pt x="448" y="324" on="1"/>
        <pt x="448" y="0" on="1"/>
        <pt x="332" y="-66" on="0"/>
        <pt x="332" y="-128" on="1"/>
        <pt x="332" y="-172" on="0"/>
        <pt x="383" y="-172" on="1"/>
        <pt x="422" y="-172" on="0"/>
        <pt x="463" y="-145" on="1"/>
        <pt x="463" y="-230" on="1"/>
        <pt x="423" y="-253" on="0"/>
        <pt x="300" y="-253" on="0"/>
        <pt x="234" y="-189" on="0"/>
        <pt x="234" y="-139" on="1"/>
        <pt x="234" y="-54" on="0"/>
        <pt x="329" y="12" on="1"/>
        <pt x="329" y="62" on="1"/>
        <pt x="288" y="-4" on="0"/>
        <pt x="197" y="-4" on="1"/>
        <pt x="124" y="-4" on="0"/>
        <pt x="40" y="78" on="0"/>
        <pt x="40" y="216" on="0"/>
        <pt x="149" y="298" on="0"/>
        <pt x="251" y="298" on="1"/>
        <pt x="324" y="298" on="1"/>
        <pt x="324" y="329" on="1"/>
        <pt x="324" y="371" on="0"/>
        <pt x="280" y="415" on="0"/>
        <pt x="227" y="415" on="1"/>
        <pt x="144" y="415" on="0"/>
        <pt x="78" y="370" on="1"/>
        <pt x="78" y="481" on="1"/>
        <pt x="138" y="516" on="0"/>
        <pt x="242" y="516" on="1"/>
        <pt x="448" y="516" on="0"/>
      </contour>
      <contour>
        <pt x="324" y="217" on="1"/>
        <pt x="267" y="217" on="1"/>
        <pt x="218" y="217" on="0"/>
        <pt x="165" y="181" on="0"/>
        <pt x="165" y="149" on="1"/>
        <pt x="165" y="86" on="0"/>
        <pt x="239" y="86" on="1"/>
        <pt x="278" y="86" on="0"/>
        <pt x="324" y="132" on="0"/>
        <pt x="324" y="168" on="1"/>
      </contour>
    </TTGlyph>
    <TTGlyph name="approxequal" xMin="32" yMin="158" xMax="565" yMax="519">
      <contour>
        <pt x="414" y="363" on="1"/>
        <pt x="364" y="363" on="0"/>
        <pt x="240" y="419" on="0"/>
        <pt x="210" y="419" on="1"/>
        <pt x="154" y="419" on="0"/>
        <pt x="109" y="360" on="1"/>
        <pt x="32" y="422" on="1"/>
        <pt x="101" y="519" on="0"/>
        <pt x="188" y="519" on="1"/>
        <pt x="245" y="519" on="0"/>
        <pt x="370" y="463" on="0"/>
        <pt x="395" y="463" on="1"/>
        <pt x="445" y="463" on="0"/>
        <pt x="487" y="519" on="1"/>
        <pt x="565" y="458" on="1"/>
        <pt x="502" y="363" on="0"/>
      </contour>
      <contour>
        <pt x="414" y="161" on="1"/>
        <pt x="364" y="161" on="0"/>
        <pt x="240" y="216" on="0"/>
        <pt x="210" y="216" on="1"/>
        <pt x="153" y="216" on="0"/>
        <pt x="109" y="158" on="1"/>
        <pt x="32" y="220" on="1"/>
        <pt x="102" y="316" on="0"/>
        <pt x="188" y="316" on="1"/>
        <pt x="245" y="316" on="0"/>
        <pt x="370" y="261" on="0"/>
        <pt x="395" y="261" on="1"/>
        <pt x="445" y="261" on="0"/>
        <pt x="487" y="317" on="1"/>
        <pt x="565" y="255" on="1"/>
        <pt x="503" y="161" on="0"/>
      </contour>
    </TTGlyph>
    <TTGlyph name="aring" xMin="40" yMin="-4" xMax="448" yMax="795">
      <contour>
        <pt x="242" y="516" on="1"/>
        <pt x="448" y="516" on="0"/>
        <pt x="448" y="324" on="1"/>
        <pt x="448" y="0" on="1"/>
        <pt x="329" y="0" on="1"/>
        <pt x="329" y="61" on="1"/>
        <pt x="294" y="-4" on="0"/>
        <pt x="197" y="-4" on="1"/>
        <pt x="125" y="-4" on="0"/>
        <pt x="40" y="80" on="0"/>
        <pt x="40" y="216" on="0"/>
        <pt x="148" y="298" on="0"/>
        <pt x="250" y="298" on="1"/>
        <pt x="324" y="298" on="1"/>
        <pt x="324" y="329" on="1"/>
        <pt x="324" y="371" on="0"/>
        <pt x="280" y="415" on="0"/>
        <pt x="227" y="415" on="1"/>
        <pt x="146" y="415" on="0"/>
        <pt x="78" y="370" on="1"/>
        <pt x="78" y="481" on="1"/>
        <pt x="135" y="516" on="0"/>
      </contour>
      <contour>
        <pt x="324" y="218" on="1"/>
        <pt x="262" y="218" on="1"/>
        <pt x="215" y="218" on="0"/>
        <pt x="165" y="179" on="0"/>
        <pt x="165" y="149" on="1"/>
        <pt x="165" y="85" on="0"/>
        <pt x="239" y="85" on="1"/>
        <pt x="279" y="85" on="0"/>
        <pt x="324" y="132" on="0"/>
        <pt x="324" y="170" on="1"/>
      </contour>
      <contour>
        <pt x="310" y="545" on="0"/>
        <pt x="206" y="545" on="0"/>
        <pt x="133" y="618" on="0"/>
        <pt x="133" y="722" on="0"/>
        <pt x="206" y="795" on="0"/>
        <pt x="310" y="795" on="0"/>
        <pt x="383" y="722" on="0"/>
        <pt x="383" y="618" on="0"/>
      </contour>
      <contour>
        <pt x="281" y="727" on="0"/>
        <pt x="235" y="727" on="0"/>
        <pt x="205" y="694" on="0"/>
        <pt x="205" y="650" on="0"/>
        <pt x="235" y="617" on="0"/>
        <pt x="281" y="617" on="0"/>
        <pt x="311" y="650" on="0"/>
        <pt x="311" y="694" on="0"/>
      </contour>
    </TTGlyph>
    <TTGlyph name="asciicircum" xMin="38" yMin="332" xMax="442" yMax="594">
      <contour>
        <pt x="442" y="332" on="1"/>
        <pt x="328" y="332" on="1"/>
        <pt x="240" y="501" on="1"/>
        <pt x="151" y="332" on="1"/>
        <pt x="38" y="332" on="1"/>
        <pt x="185" y="594" on="1"/>
        <pt x="296" y="594" on="1"/>
      </contour>
    </TTGlyph>
    <TTGlyph name="asciitilde" xMin="31" yMin="187" xMax="601" yMax="359">
      <contour>
        <pt x="440" y="191" on="1"/>
        <pt x="386" y="191" on="0"/>
        <pt x="253" y="249" on="0"/>
        <pt x="222" y="249" on="1"/>
        <pt x="162" y="249" on="0"/>
        <pt x="114" y="187" on="1"/>
        <pt x="31" y="254" on="1"/>
        <pt x="62" y="298" on="0"/>
        <pt x="149" y="358" on="0"/>
        <pt x="258" y="358" on="0"/>
        <pt x="391" y="300" on="0"/>
        <pt x="449" y="300" on="0"/>
        <pt x="494" y="330" on="0"/>
        <pt x="517" y="359" on="1"/>
        <pt x="601" y="293" on="1"/>
        <pt x="534" y="191" on="0"/>
      </contour>
    </TTGlyph>
    <TTGlyph name="asterisk" xMin="28" yMin="281" xMax="442" yMax="674">
      <contour>
        <pt x="305" y="451" on="1"/>
        <pt x="301" y="451" on="1"/>
        <pt x="321" y="438" on="0"/>
        <pt x="336" y="417" on="1"/>
        <pt x="393" y="338" on="1"/>
        <pt x="314" y="281" on="1"/>
        <pt x="257" y="359" on="1"/>
        <pt x="242" y="382" on="0"/>
        <pt x="236" y="401" on="1"/>
        <pt x="230" y="382" on="0"/>
        <pt x="214" y="360" on="1"/>
        <pt x="156" y="281" on="1"/>
        <pt x="77" y="338" on="1"/>
        <pt x="135" y="417" on="1"/>
        <pt x="151" y="437" on="0"/>
        <pt x="169" y="450" on="1"/>
        <pt x="166" y="450" on="1"/>
        <pt x="144" y="450" on="0"/>
        <pt x="121" y="458" on="1"/>
        <pt x="28" y="488" on="1"/>
        <pt x="59" y="581" on="1"/>
        <pt x="151" y="551" on="1"/>
        <pt x="175" y="543" on="0"/>
        <pt x="194" y="529" on="1"/>
        <pt x="186" y="550" on="0"/>
        <pt x="186" y="577" on="1"/>
        <pt x="186" y="674" on="1"/>
        <pt x="284" y="674" on="1"/>
        <pt x="284" y="577" on="1"/>
        <pt x="284" y="550" on="0"/>
        <pt x="276" y="529" on="1"/>
        <pt x="292" y="542" on="0"/>
        <pt x="319" y="551" on="1"/>
        <pt x="412" y="581" on="1"/>
        <pt x="442" y="488" on="1"/>
        <pt x="350" y="458" on="1"/>
        <pt x="326" y="451" on="0"/>
      </contour>
    </TTGlyph>
    <TTGlyph name="at" xMin="48" yMin="-198" xMax="910" yMax="649">
      <contour>
        <pt x="448" y="-198" on="1"/>
        <pt x="262" y="-198" on="0"/>
        <pt x="48" y="30" on="0"/>
        <pt x="48" y="199" on="1"/>
        <pt x="48" y="324" on="0"/>
        <pt x="173" y="532" on="0"/>
        <pt x="384" y="649" on="0"/>
        <pt x="509" y="649" on="1"/>
        <pt x="675" y="649" on="0"/>
        <pt x="910" y="442" on="0"/>
        <pt x="910" y="272" on="1"/>
        <pt x="910" y="155" on="0"/>
        <pt x="795" y="8" on="0"/>
        <pt x="717" y="8" on="1"/>
        <pt x="609" y="8" on="0"/>
        <pt x="578" y="109" on="1"/>
        <pt x="532" y="8" on="0"/>
        <pt x="427" y="8" on="1"/>
        <pt x="349" y="8" on="0"/>
        <pt x="258" y="123" on="0"/>
        <pt x="258" y="308" on="0"/>
        <pt x="376" y="433" on="0"/>
        <pt x="539" y="433" on="0"/>
        <pt x="578" y="364" on="1"/>
        <pt x="580" y="386" on="0"/>
        <pt x="582" y="430" on="1"/>
        <pt x="680" y="430" on="1"/>
        <pt x="664" y="281" on="0"/>
        <pt x="664" y="208" on="1"/>
        <pt x="664" y="102" on="0"/>
        <pt x="721" y="102" on="1"/>
        <pt x="759" y="102" on="0"/>
        <pt x="809" y="190" on="0"/>
        <pt x="809" y="264" on="1"/>
        <pt x="809" y="404" on="0"/>
        <pt x="638" y="550" on="0"/>
        <pt x="355" y="550" on="0"/>
        <pt x="156" y="341" on="0"/>
        <pt x="156" y="58" on="0"/>
        <pt x="325" y="-99" on="0"/>
        <pt x="448" y="-99" on="1"/>
        <pt x="550" y="-99" on="0"/>
        <pt x="640" y="-54" on="1"/>
        <pt x="636" y="-159" on="1"/>
        <pt x="555" y="-198" on="0"/>
      </contour>
      <contour>
        <pt x="569" y="199" on="1"/>
        <pt x="569" y="228" on="0"/>
        <pt x="571" y="242" on="1"/>
        <pt x="564" y="292" on="0"/>
        <pt x="514" y="344" on="0"/>
        <pt x="429" y="344" on="0"/>
        <pt x="366" y="267" on="0"/>
        <pt x="366" y="155" on="0"/>
        <pt x="419" y="97" on="0"/>
        <pt x="494" y="97" on="0"/>
        <pt x="557" y="150" on="0"/>
      </contour>
    </TTGlyph>
    <TTGlyph name="atilde" xMin="40" yMin="-4" xMax="448" yMax="710">
      <contour>
        <pt x="242" y="516" on="1"/>
        <pt x="448" y="516" on="0"/>
        <pt x="448" y="324" on="1"/>
        <pt x="448" y="0" on="1"/>
        <pt x="329" y="0" on="1"/>
        <pt x="329" y="61" on="1"/>
        <pt x="294" y="-4" on="0"/>
        <pt x="197" y="-4" on="1"/>
        <pt x="125" y="-4" on="0"/>
        <pt x="40" y="80" on="0"/>
        <pt x="40" y="216" on="0"/>
        <pt x="148" y="298" on="0"/>
        <pt x="250" y="298" on="1"/>
        <pt x="324" y="298" on="1"/>
        <pt x="324" y="329" on="1"/>
        <pt x="324" y="371" on="0"/>
        <pt x="280" y="415" on="0"/>
        <pt x="227" y="415" on="1"/>
        <pt x="146" y="415" on="0"/>
        <pt x="78" y="370" on="1"/>
        <pt x="78" y="481" on="1"/>
        <pt x="135" y="516" on="0"/>
      </contour>
      <contour>
        <pt x="324" y="218" on="1"/>
        <pt x="262" y="218" on="1"/>
        <pt x="215" y="218" on="0"/>
        <pt x="165" y="179" on="0"/>
        <pt x="165" y="149" on="1"/>
        <pt x="165" y="85" on="0"/>
        <pt x="239" y="85" on="1"/>
        <pt x="279" y="85" on="0"/>
        <pt x="324" y="132" on="0"/>
        <pt x="324" y="170" on="1"/>
      </contour>
      <contour>
        <pt x="319" y="580" on="1"/>
        <pt x="288" y="580" on="0"/>
        <pt x="212" y="618" on="0"/>
        <pt x="172" y="618" on="0"/>
        <pt x="142" y="599" on="0"/>
        <pt x="124" y="574" on="1"/>
        <pt x="67" y="627" on="1"/>
        <pt x="83" y="660" on="0"/>
        <pt x="142" y="705" on="0"/>
        <pt x="212" y="705" on="0"/>
        <pt x="294" y="667" on="0"/>
        <pt x="313" y="667" on="1"/>
        <pt x="356" y="667" on="0"/>
        <pt x="377" y="710" on="1"/>
        <pt x="441" y="659" on="1"/>
        <pt x="402" y="580" on="0"/>
      </contour>
    </TTGlyph>
    <TTGlyph name="b" xMin="66" yMin="-7" xMax="557" yMax="707">
      <contour>
        <pt x="187" y="707" on="1"/>
        <pt x="187" y="430" on="1"/>
        <pt x="240" y="514" on="0"/>
        <pt x="434" y="514" on="0"/>
        <pt x="557" y="373" on="0"/>
        <pt x="557" y="145" on="0"/>
        <pt x="440" y="-7" on="0"/>
        <pt x="240" y="-7" on="0"/>
        <pt x="187" y="78" on="1"/>
        <pt x="187" y="0" on="1"/>
        <pt x="66" y="0" on="1"/>
        <pt x="66" y="707" on="1"/>
      </contour>
      <contour>
        <pt x="187" y="179" on="0"/>
        <pt x="259" y="96" on="0"/>
        <pt x="365" y="96" on="0"/>
        <pt x="435" y="182" on="0"/>
        <pt x="435" y="327" on="0"/>
        <pt x="364" y="412" on="0"/>
        <pt x="263" y="412" on="0"/>
        <pt x="187" y="335" on="0"/>
      </contour>
    </TTGlyph>
    <TTGlyph name="backslash" xMin="-41" yMin="-103" xMax="446" yMax="707">
      <contour>
        <pt x="85" y="707" on="1"/>
        <pt x="446" y="-103" on="1"/>
        <pt x="321" y="-103" on="1"/>
        <pt x="-41" y="707" on="1"/>
      </contour>
    </TTGlyph>
    <TTGlyph name="bar" xMin="73" yMin="-194" xMax="187" yMax="695">
      <contour>
        <pt x="73" y="-194" on="1"/>
        <pt x="73" y="695" on="1"/>
        <pt x="187" y="695" on="1"/>
        <pt x="187" y="-194" on="1"/>
      </contour>
    </TTGlyph>
    <TTGlyph name="braceleft" xMin="43" yMin="-200" xMax="342" yMax="714">
      <contour>
        <pt x="342" y="591" on="1"/>
        <pt x="327" y="600" on="0"/>
        <pt x="286" y="600" on="0"/>
        <pt x="255" y="564" on="0"/>
        <pt x="255" y="520" on="0"/>
        <pt x="270" y="432" on="0"/>
        <pt x="270" y="406" on="1"/>
        <pt x="270" y="347" on="0"/>
        <pt x="204" y="266" on="0"/>
        <pt x="152" y="258" on="1"/>
        <pt x="204" y="250" on="0"/>
        <pt x="270" y="167" on="0"/>
        <pt x="270" y="108" on="1"/>
        <pt x="270" y="82" on="0"/>
        <pt x="255" y="-5" on="0"/>
        <pt x="255" y="-50" on="0"/>
        <pt x="285" y="-85" on="0"/>
        <pt x="327" y="-85" on="0"/>
        <pt x="342" y="-76" on="1"/>
        <pt x="342" y="-189" on="1"/>
        <pt x="311" y="-200" on="0"/>
        <pt x="283" y="-200" on="1"/>
        <pt x="219" y="-200" on="0"/>
        <pt x="135" y="-105" on="0"/>
        <pt x="135" y="-31" on="1"/>
        <pt x="135" y="-7" on="0"/>
        <pt x="151" y="75" on="0"/>
        <pt x="151" y="94" on="1"/>
        <pt x="151" y="135" on="0"/>
        <pt x="106" y="195" on="0"/>
        <pt x="65" y="199" on="1"/>
        <pt x="43" y="199" on="1"/>
        <pt x="43" y="316" on="1"/>
        <pt x="54" y="316" on="0"/>
        <pt x="65" y="317" on="1"/>
        <pt x="105" y="319" on="0"/>
        <pt x="151" y="380" on="0"/>
        <pt x="151" y="421" on="1"/>
        <pt x="151" y="439" on="0"/>
        <pt x="135" y="522" on="0"/>
        <pt x="135" y="546" on="1"/>
        <pt x="135" y="620" on="0"/>
        <pt x="219" y="714" on="0"/>
        <pt x="283" y="714" on="1"/>
        <pt x="313" y="714" on="0"/>
        <pt x="342" y="704" on="1"/>
      </contour>
    </TTGlyph>
    <TTGlyph name="braceright" xMin="21" yMin="-200" xMax="320" yMax="714">
      <contour>
        <pt x="79" y="714" on="1"/>
        <pt x="143" y="714" on="0"/>
        <pt x="227" y="620" on="0"/>
        <pt x="227" y="546" on="1"/>
        <pt x="227" y="522" on="0"/>
        <pt x="212" y="439" on="0"/>
        <pt x="212" y="421" on="1"/>
        <pt x="212" y="380" on="0"/>
        <pt x="257" y="319" on="0"/>
        <pt x="298" y="317" on="1"/>
        <pt x="308" y="316" on="0"/>
        <pt x="320" y="316" on="1"/>
        <pt x="320" y="199" on="1"/>
        <pt x="298" y="199" on="1"/>
        <pt x="257" y="195" on="0"/>
        <pt x="212" y="135" on="0"/>
        <pt x="212" y="94" on="1"/>
        <pt x="212" y="75" on="0"/>
        <pt x="227" y="-7" on="0"/>
        <pt x="227" y="-31" on="1"/>
        <pt x="227" y="-105" on="0"/>
        <pt x="143" y="-200" on="0"/>
        <pt x="79" y="-200" on="1"/>
        <pt x="52" y="-200" on="0"/>
        <pt x="21" y="-189" on="1"/>
        <pt x="21" y="-76" on="1"/>
        <pt x="36" y="-85" on="0"/>
        <pt x="77" y="-85" on="0"/>
        <pt x="108" y="-50" on="0"/>
        <pt x="108" y="-5" on="0"/>
        <pt x="93" y="82" on="0"/>
        <pt x="93" y="108" on="1"/>
        <pt x="93" y="167" on="0"/>
        <pt x="159" y="250" on="0"/>
        <pt x="211" y="258" on="1"/>
        <pt x="159" y="266" on="0"/>
        <pt x="93" y="347" on="0"/>
        <pt x="93" y="406" on="1"/>
        <pt x="93" y="432" on="0"/>
        <pt x="108" y="520" on="0"/>
        <pt x="108" y="564" on="0"/>
        <pt x="77" y="600" on="0"/>
        <pt x="36" y="600" on="0"/>
        <pt x="21" y="591" on="1"/>
        <pt x="21" y="704" on="1"/>
        <pt x="50" y="714" on="0"/>
      </contour>
    </TTGlyph>
    <TTGlyph name="bracketleft" xMin="70" yMin="-191" xMax="332" yMax="707">
      <contour>
        <pt x="332" y="602" on="1"/>
        <pt x="185" y="602" on="1"/>
        <pt x="185" y="-85" on="1"/>
        <pt x="332" y="-85" on="1"/>
        <pt x="332" y="-191" on="1"/>
        <pt x="70" y="-191" on="1"/>
        <pt x="70" y="707" on="1"/>
        <pt x="332" y="707" on="1"/>
      </contour>
    </TTGlyph>
    <TTGlyph name="bracketright" xMin="11" yMin="-191" xMax="273" yMax="707">
      <contour>
        <pt x="273" y="707" on="1"/>
        <pt x="273" y="-191" on="1"/>
        <pt x="11" y="-191" on="1"/>
        <pt x="11" y="-85" on="1"/>
        <pt x="158" y="-85" on="1"/>
        <pt x="158" y="602" on="1"/>
        <pt x="11" y="602" on="1"/>
        <pt x="11" y="707" on="1"/>
      </contour>
    </TTGlyph>
    <TTGlyph name="breve" xMin="50" yMin="625" xMax="420" yMax="798">
      <contour>
        <pt x="50" y="798" on="1"/>
        <pt x="144" y="798" on="1"/>
        <pt x="144" y="755" on="0"/>
        <pt x="191" y="704" on="0"/>
        <pt x="279" y="704" on="0"/>
        <pt x="326" y="755" on="0"/>
        <pt x="326" y="798" on="1"/>
        <pt x="420" y="798" on="1"/>
        <pt x="420" y="712" on="0"/>
        <pt x="321" y="625" on="0"/>
        <pt x="149" y="625" on="0"/>
        <pt x="50" y="713" on="0"/>
      </contour>
    </TTGlyph>
    <TTGlyph name="brokenbar" xMin="73" yMin="-140" xMax="187" yMax="703">
      <contour>
        <pt x="187" y="-140" on="1"/>
        <pt x="73" y="-140" on="1"/>
        <pt x="73" y="195" on="1"/>
        <pt x="187" y="195" on="1"/>
      </contour>
      <contour>
        <pt x="187" y="368" on="1"/>
        <pt x="73" y="368" on="1"/>
        <pt x="73" y="703" on="1"/>
        <pt x="187" y="703" on="1"/>
      </contour>
    </TTGlyph>
    <TTGlyph name="bullet" xMin="85" yMin="223" xMax="350" yMax="489">
      <contour>
        <pt x="85" y="299" on="0"/>
        <pt x="85" y="413" on="0"/>
        <pt x="160" y="489" on="0"/>
        <pt x="273" y="489" on="0"/>
        <pt x="350" y="412" on="0"/>
        <pt x="350" y="300" on="0"/>
        <pt x="274" y="223" on="0"/>
        <pt x="161" y="223" on="0"/>
      </contour>
    </TTGlyph>
    <TTGlyph name="c" xMin="38" yMin="-9" xMax="432" yMax="515">
      <contour>
        <pt x="163" y="180" on="0"/>
        <pt x="246" y="92" on="0"/>
        <pt x="379" y="92" on="0"/>
        <pt x="432" y="126" on="1"/>
        <pt x="432" y="22" on="1"/>
        <pt x="379" y="-9" on="0"/>
        <pt x="300" y="-9" on="1"/>
        <pt x="183" y="-9" on="0"/>
        <pt x="38" y="139" on="0"/>
        <pt x="39" y="363" on="0"/>
        <pt x="182" y="515" on="0"/>
        <pt x="306" y="515" on="1"/>
        <pt x="380" y="515" on="0"/>
        <pt x="432" y="487" on="1"/>
        <pt x="432" y="381" on="1"/>
        <pt x="382" y="413" on="0"/>
        <pt x="248" y="413" on="0"/>
        <pt x="162" y="325" on="0"/>
        <pt x="161" y="252" on="1"/>
      </contour>
    </TTGlyph>
    <TTGlyph name="cacute" xMin="38" yMin="-9" xMax="463" yMax="724">
      <contour>
        <pt x="163" y="180" on="0"/>
        <pt x="246" y="92" on="0"/>
        <pt x="379" y="92" on="0"/>
        <pt x="432" y="126" on="1"/>
        <pt x="432" y="22" on="1"/>
        <pt x="379" y="-9" on="0"/>
        <pt x="300" y="-9" on="1"/>
        <pt x="183" y="-9" on="0"/>
        <pt x="38" y="139" on="0"/>
        <pt x="39" y="363" on="0"/>
        <pt x="182" y="515" on="0"/>
        <pt x="306" y="515" on="1"/>
        <pt x="380" y="515" on="0"/>
        <pt x="432" y="487" on="1"/>
        <pt x="432" y="381" on="1"/>
        <pt x="382" y="413" on="0"/>
        <pt x="248" y="413" on="0"/>
        <pt x="162" y="325" on="0"/>
        <pt x="161" y="252" on="1"/>
      </contour>
      <contour>
        <pt x="246" y="555" on="1"/>
        <pt x="337" y="724" on="1"/>
        <pt x="463" y="724" on="1"/>
        <pt x="347" y="555" on="1"/>
      </contour>
    </TTGlyph>
    <TTGlyph name="caron" xMin="37" yMin="629" xMax="433" yMax="798">
      <contour>
        <pt x="288" y="629" on="1"/>
        <pt x="182" y="629" on="1"/>
        <pt x="37" y="798" on="1"/>
        <pt x="154" y="798" on="1"/>
        <pt x="235" y="699" on="1"/>
        <pt x="316" y="798" on="1"/>
        <pt x="433" y="798" on="1"/>
      </contour>
    </TTGlyph>
    <TTGlyph name="ccaron" xMin="38" yMin="-9" xMax="473" yMax="725">
      <contour>
        <pt x="328" y="556" on="1"/>
        <pt x="222" y="556" on="1"/>
        <pt x="77" y="725" on="1"/>
        <pt x="194" y="725" on="1"/>
        <pt x="275" y="626" on="1"/>
        <pt x="356" y="725" on="1"/>
        <pt x="473" y="725" on="1"/>
      </contour>
      <contour>
        <pt x="432" y="381" on="1"/>
        <pt x="382" y="413" on="0"/>
        <pt x="248" y="413" on="0"/>
        <pt x="162" y="325" on="0"/>
        <pt x="161" y="252" on="1"/>
        <pt x="163" y="180" on="0"/>
        <pt x="246" y="92" on="0"/>
        <pt x="379" y="92" on="0"/>
        <pt x="432" y="126" on="1"/>
        <pt x="432" y="22" on="1"/>
        <pt x="379" y="-9" on="0"/>
        <pt x="300" y="-9" on="1"/>
        <pt x="183" y="-9" on="0"/>
        <pt x="38" y="139" on="0"/>
        <pt x="39" y="363" on="0"/>
        <pt x="182" y="515" on="0"/>
        <pt x="306" y="515" on="1"/>
        <pt x="380" y="515" on="0"/>
        <pt x="432" y="487" on="1"/>
      </contour>
    </TTGlyph>
    <TTGlyph name="ccedilla" xMin="38" yMin="-262" xMax="432" yMax="515">
      <contour>
        <pt x="340" y="-51" on="1"/>
        <pt x="358" y="-78" on="0"/>
        <pt x="358" y="-183" on="0"/>
        <pt x="272" y="-261" on="0"/>
        <pt x="189" y="-262" on="1"/>
        <pt x="189" y="-184" on="1"/>
        <pt x="268" y="-181" on="0"/>
        <pt x="268" y="-117" on="1"/>
        <pt x="268" y="-88" on="0"/>
        <pt x="243" y="-51" on="1"/>
      </contour>
      <contour>
        <pt x="163" y="180" on="0"/>
        <pt x="246" y="92" on="0"/>
        <pt x="379" y="92" on="0"/>
        <pt x="432" y="126" on="1"/>
        <pt x="432" y="22" on="1"/>
        <pt x="379" y="-9" on="0"/>
        <pt x="300" y="-9" on="1"/>
        <pt x="183" y="-9" on="0"/>
        <pt x="38" y="139" on="0"/>
        <pt x="39" y="363" on="0"/>
        <pt x="182" y="515" on="0"/>
        <pt x="306" y="515" on="1"/>
        <pt x="380" y="515" on="0"/>
        <pt x="432" y="487" on="1"/>
        <pt x="432" y="381" on="1"/>
        <pt x="382" y="413" on="0"/>
        <pt x="248" y="413" on="0"/>
        <pt x="162" y="325" on="0"/>
        <pt x="161" y="252" on="1"/>
      </contour>
    </TTGlyph>
    <TTGlyph name="ccircumflex" xMin="38" yMin="-9" xMax="468" yMax="725">
      <contour>
        <pt x="217" y="725" on="1"/>
        <pt x="323" y="725" on="1"/>
        <pt x="468" y="556" on="1"/>
        <pt x="351" y="556" on="1"/>
        <pt x="270" y="655" on="1"/>
        <pt x="189" y="556" on="1"/>
        <pt x="72" y="556" on="1"/>
      </contour>
      <contour>
        <pt x="432" y="381" on="1"/>
        <pt x="382" y="413" on="0"/>
        <pt x="248" y="413" on="0"/>
        <pt x="162" y="325" on="0"/>
        <pt x="161" y="252" on="1"/>
        <pt x="163" y="180" on="0"/>
        <pt x="246" y="92" on="0"/>
        <pt x="379" y="92" on="0"/>
        <pt x="432" y="126" on="1"/>
        <pt x="432" y="22" on="1"/>
        <pt x="379" y="-9" on="0"/>
        <pt x="300" y="-9" on="1"/>
        <pt x="183" y="-9" on="0"/>
        <pt x="38" y="139" on="0"/>
        <pt x="39" y="363" on="0"/>
        <pt x="182" y="515" on="0"/>
        <pt x="306" y="515" on="1"/>
        <pt x="380" y="515" on="0"/>
        <pt x="432" y="487" on="1"/>
      </contour>
    </TTGlyph>
    <TTGlyph name="cdotaccent" xMin="38" yMin="-9" xMax="432" yMax="711">
      <contour>
        <pt x="261" y="572" on="0"/>
        <pt x="221" y="612" on="0"/>
        <pt x="221" y="671" on="0"/>
        <pt x="261" y="711" on="0"/>
        <pt x="322" y="711" on="0"/>
        <pt x="362" y="671" on="0"/>
        <pt x="362" y="612" on="0"/>
        <pt x="322" y="572" on="0"/>
      </contour>
      <contour>
        <pt x="163" y="180" on="0"/>
        <pt x="246" y="92" on="0"/>
        <pt x="379" y="92" on="0"/>
        <pt x="432" y="126" on="1"/>
        <pt x="432" y="22" on="1"/>
        <pt x="379" y="-9" on="0"/>
        <pt x="300" y="-9" on="1"/>
        <pt x="183" y="-9" on="0"/>
        <pt x="38" y="139" on="0"/>
        <pt x="39" y="363" on="0"/>
        <pt x="182" y="515" on="0"/>
        <pt x="306" y="515" on="1"/>
        <pt x="380" y="515" on="0"/>
        <pt x="432" y="487" on="1"/>
        <pt x="432" y="381" on="1"/>
        <pt x="382" y="413" on="0"/>
        <pt x="248" y="413" on="0"/>
        <pt x="162" y="325" on="0"/>
        <pt x="161" y="252" on="1"/>
      </contour>
    </TTGlyph>
    <TTGlyph name="cedilla" xMin="150" yMin="-262" xMax="319" yMax="-51">
      <contour>
        <pt x="301" y="-51" on="1"/>
        <pt x="319" y="-78" on="0"/>
        <pt x="319" y="-183" on="0"/>
        <pt x="233" y="-261" on="0"/>
        <pt x="150" y="-262" on="1"/>
        <pt x="150" y="-184" on="1"/>
        <pt x="229" y="-181" on="0"/>
        <pt x="229" y="-117" on="1"/>
        <pt x="229" y="-88" on="0"/>
        <pt x="204" y="-51" on="1"/>
      </contour>
    </TTGlyph>
    <TTGlyph name="cent" xMin="36" yMin="-111" xMax="428" yMax="618">
      <contour>
        <pt x="428" y="382" on="1"/>
        <pt x="378" y="412" on="0"/>
        <pt x="249" y="412" on="0"/>
        <pt x="160" y="325" on="0"/>
        <pt x="159" y="252" on="1"/>
        <pt x="161" y="180" on="0"/>
        <pt x="246" y="93" on="0"/>
        <pt x="375" y="93" on="0"/>
        <pt x="428" y="124" on="1"/>
        <pt x="428" y="20" on="1"/>
        <pt x="392" y="2" on="0"/>
        <pt x="349" y="-4" on="1"/>
        <pt x="349" y="-111" on="1"/>
        <pt x="248" y="-111" on="1"/>
        <pt x="248" y="-4" on="1"/>
        <pt x="152" y="12" on="0"/>
        <pt x="36" y="153" on="0"/>
        <pt x="37" y="349" on="0"/>
        <pt x="149" y="491" on="0"/>
        <pt x="248" y="509" on="1"/>
        <pt x="248" y="618" on="1"/>
        <pt x="349" y="618" on="1"/>
        <pt x="349" y="511" on="1"/>
        <pt x="390" y="505" on="0"/>
        <pt x="428" y="486" on="1"/>
      </contour>
    </TTGlyph>
    <TTGlyph name="circumflex" xMin="37" yMin="629" xMax="433" yMax="798">
      <contour>
        <pt x="182" y="798" on="1"/>
        <pt x="288" y="798" on="1"/>
        <pt x="433" y="629" on="1"/>
        <pt x="316" y="629" on="1"/>
        <pt x="235" y="728" on="1"/>
        <pt x="154" y="629" on="1"/>
        <pt x="37" y="629" on="1"/>
      </contour>
    </TTGlyph>
    <TTGlyph name="colon" xMin="57" yMin="0" xMax="210" yMax="481">
      <contour>
        <pt x="57" y="44" on="0"/>
        <pt x="57" y="108" on="0"/>
        <pt x="101" y="153" on="0"/>
        <pt x="165" y="153" on="0"/>
        <pt x="210" y="108" on="0"/>
        <pt x="210" y="44" on="0"/>
        <pt x="165" y="0" on="0"/>
        <pt x="101" y="0" on="0"/>
      </contour>
      <contour>
        <pt x="57" y="372" on="0"/>
        <pt x="57" y="436" on="0"/>
        <pt x="101" y="481" on="0"/>
        <pt x="165" y="481" on="0"/>
        <pt x="210" y="436" on="0"/>
        <pt x="210" y="372" on="0"/>
        <pt x="165" y="327" on="0"/>
        <pt x="101" y="327" on="0"/>
      </contour>
    </TTGlyph>
    <TTGlyph name="comma" xMin="-7" yMin="-126" xMax="230" yMax="121">
      <contour>
        <pt x="-7" y="-126" on="1"/>
        <pt x="91" y="121" on="1"/>
        <pt x="230" y="121" on="1"/>
        <pt x="97" y="-126" on="1"/>
      </contour>
    </TTGlyph>
    <TTGlyph name="commaaccent" xMin="130" yMin="-255" xMax="335" yMax="-51">
      <contour>
        <pt x="130" y="-255" on="1"/>
        <pt x="206" y="-51" on="1"/>
        <pt x="335" y="-51" on="1"/>
        <pt x="220" y="-255" on="1"/>
      </contour>
    </TTGlyph>
    <TTGlyph name="copyright" xMin="38" yMin="-8" xMax="729" yMax="683">
      <contour>
        <pt x="320" y="294" on="0"/>
        <pt x="371" y="242" on="0"/>
        <pt x="454" y="242" on="0"/>
        <pt x="490" y="267" on="1"/>
        <pt x="490" y="183" on="1"/>
        <pt x="454" y="162" on="0"/>
        <pt x="399" y="162" on="1"/>
        <pt x="323" y="162" on="0"/>
        <pt x="222" y="260" on="0"/>
        <pt x="223" y="413" on="0"/>
        <pt x="320" y="513" on="0"/>
        <pt x="403" y="513" on="1"/>
        <pt x="451" y="513" on="0"/>
        <pt x="490" y="492" on="1"/>
        <pt x="490" y="409" on="1"/>
        <pt x="456" y="431" on="0"/>
        <pt x="373" y="431" on="0"/>
        <pt x="319" y="380" on="0"/>
        <pt x="318" y="336" on="1"/>
      </contour>
      <contour>
        <pt x="273" y="597" on="0"/>
        <pt x="124" y="447" on="0"/>
        <pt x="124" y="225" on="0"/>
        <pt x="273" y="76" on="0"/>
        <pt x="494" y="76" on="0"/>
        <pt x="644" y="226" on="0"/>
        <pt x="644" y="447" on="0"/>
        <pt x="494" y="597" on="0"/>
      </contour>
      <contour>
        <pt x="241" y="-8" on="0"/>
        <pt x="38" y="195" on="0"/>
        <pt x="38" y="480" on="0"/>
        <pt x="242" y="683" on="0"/>
        <pt x="526" y="683" on="0"/>
        <pt x="729" y="479" on="0"/>
        <pt x="729" y="195" on="0"/>
        <pt x="526" y="-8" on="0"/>
      </contour>
    </TTGlyph>
    <TTGlyph name="currency" xMin="30" yMin="66" xMax="530" yMax="555">
      <contour>
        <pt x="228" y="435" on="0"/>
        <pt x="158" y="363" on="0"/>
        <pt x="158" y="260" on="0"/>
        <pt x="228" y="188" on="0"/>
        <pt x="334" y="188" on="0"/>
        <pt x="403" y="260" on="0"/>
        <pt x="403" y="363" on="0"/>
        <pt x="334" y="435" on="0"/>
      </contour>
      <contour>
        <pt x="89" y="193" on="1"/>
        <pt x="57" y="246" on="0"/>
        <pt x="57" y="376" on="0"/>
        <pt x="89" y="427" on="1"/>
        <pt x="30" y="486" on="1"/>
        <pt x="102" y="555" on="1"/>
        <pt x="161" y="497" on="1"/>
        <pt x="214" y="530" on="0"/>
        <pt x="346" y="530" on="0"/>
        <pt x="400" y="499" on="1"/>
        <pt x="458" y="555" on="1"/>
        <pt x="530" y="486" on="1"/>
        <pt x="472" y="428" on="1"/>
        <pt x="504" y="377" on="0"/>
        <pt x="504" y="247" on="0"/>
        <pt x="470" y="194" on="1"/>
        <pt x="530" y="136" on="1"/>
        <pt x="458" y="66" on="1"/>
        <pt x="398" y="124" on="1"/>
        <pt x="345" y="93" on="0"/>
        <pt x="214" y="93" on="0"/>
        <pt x="161" y="124" on="1"/>
        <pt x="102" y="66" on="1"/>
        <pt x="30" y="136" on="1"/>
      </contour>
    </TTGlyph>
    <TTGlyph name="d" xMin="38" yMin="-7" xMax="529" yMax="707">
      <contour>
        <pt x="409" y="707" on="1"/>
        <pt x="529" y="707" on="1"/>
        <pt x="529" y="0" on="1"/>
        <pt x="409" y="0" on="1"/>
        <pt x="409" y="79" on="1"/>
        <pt x="357" y="-7" on="0"/>
        <pt x="155" y="-7" on="0"/>
        <pt x="38" y="145" on="0"/>
        <pt x="38" y="373" on="0"/>
        <pt x="161" y="514" on="0"/>
        <pt x="356" y="514" on="0"/>
        <pt x="409" y="429" on="1"/>
      </contour>
      <contour>
        <pt x="161" y="182" on="0"/>
        <pt x="231" y="96" on="0"/>
        <pt x="337" y="96" on="0"/>
        <pt x="409" y="179" on="0"/>
        <pt x="409" y="335" on="0"/>
        <pt x="333" y="412" on="0"/>
        <pt x="232" y="412" on="0"/>
        <pt x="161" y="327" on="0"/>
      </contour>
    </TTGlyph>
    <TTGlyph name="dagger" xMin="35" yMin="0" xMax="511" yMax="674">
      <contour>
        <pt x="511" y="516" on="1"/>
        <pt x="511" y="416" on="1"/>
        <pt x="325" y="416" on="1"/>
        <pt x="325" y="0" on="1"/>
        <pt x="217" y="0" on="1"/>
        <pt x="217" y="416" on="1"/>
        <pt x="35" y="416" on="1"/>
        <pt x="35" y="516" on="1"/>
        <pt x="217" y="516" on="1"/>
        <pt x="217" y="674" on="1"/>
        <pt x="325" y="674" on="1"/>
        <pt x="325" y="516" on="1"/>
      </contour>
    </TTGlyph>
    <TTGlyph name="daggerdbl" xMin="45" yMin="0" xMax="522" yMax="674">
      <contour>
        <pt x="522" y="416" on="1"/>
        <pt x="336" y="416" on="1"/>
        <pt x="336" y="262" on="1"/>
        <pt x="522" y="262" on="1"/>
        <pt x="522" y="162" on="1"/>
        <pt x="336" y="162" on="1"/>
        <pt x="336" y="0" on="1"/>
        <pt x="228" y="0" on="1"/>
        <pt x="228" y="162" on="1"/>
        <pt x="45" y="162" on="1"/>
        <pt x="45" y="262" on="1"/>
        <pt x="228" y="262" on="1"/>
        <pt x="228" y="416" on="1"/>
        <pt x="45" y="416" on="1"/>
        <pt x="45" y="516" on="1"/>
        <pt x="228" y="516" on="1"/>
        <pt x="228" y="674" on="1"/>
        <pt x="336" y="674" on="1"/>
        <pt x="336" y="516" on="1"/>
        <pt x="522" y="516" on="1"/>
      </contour>
    </TTGlyph>
    <TTGlyph name="dcaron" xMin="38" yMin="-7" xMax="786" yMax="708">
      <contour>
        <pt x="657" y="708" on="1"/>
        <pt x="786" y="708" on="1"/>
        <pt x="671" y="504" on="1"/>
        <pt x="581" y="504" on="1"/>
      </contour>
      <contour>
        <pt x="409" y="707" on="1"/>
        <pt x="529" y="707" on="1"/>
        <pt x="529" y="0" on="1"/>
        <pt x="409" y="0" on="1"/>
        <pt x="409" y="79" on="1"/>
        <pt x="357" y="-7" on="0"/>
        <pt x="155" y="-7" on="0"/>
        <pt x="38" y="145" on="0"/>
        <pt x="38" y="373" on="0"/>
        <pt x="161" y="514" on="0"/>
        <pt x="356" y="514" on="0"/>
        <pt x="409" y="429" on="1"/>
      </contour>
      <contour>
        <pt x="161" y="182" on="0"/>
        <pt x="231" y="96" on="0"/>
        <pt x="337" y="96" on="0"/>
        <pt x="409" y="179" on="0"/>
        <pt x="409" y="335" on="0"/>
        <pt x="333" y="412" on="0"/>
        <pt x="232" y="412" on="0"/>
        <pt x="161" y="327" on="0"/>
      </contour>
    </TTGlyph>
    <TTGlyph name="dcroat" xMin="38" yMin="-7" xMax="592" yMax="707">
      <contour>
        <pt x="592" y="645" on="1"/>
        <pt x="592" y="573" on="1"/>
        <pt x="529" y="573" on="1"/>
        <pt x="529" y="0" on="1"/>
        <pt x="409" y="0" on="1"/>
        <pt x="409" y="79" on="1"/>
        <pt x="357" y="-7" on="0"/>
        <pt x="155" y="-7" on="0"/>
        <pt x="38" y="145" on="0"/>
        <pt x="38" y="373" on="0"/>
        <pt x="161" y="514" on="0"/>
        <pt x="356" y="514" on="0"/>
        <pt x="409" y="429" on="1"/>
        <pt x="409" y="573" on="1"/>
        <pt x="242" y="573" on="1"/>
        <pt x="242" y="645" on="1"/>
        <pt x="409" y="645" on="1"/>
        <pt x="409" y="707" on="1"/>
        <pt x="529" y="707" on="1"/>
        <pt x="529" y="645" on="1"/>
      </contour>
      <contour>
        <pt x="161" y="182" on="0"/>
        <pt x="231" y="96" on="0"/>
        <pt x="337" y="96" on="0"/>
        <pt x="409" y="179" on="0"/>
        <pt x="409" y="335" on="0"/>
        <pt x="333" y="412" on="0"/>
        <pt x="232" y="412" on="0"/>
        <pt x="161" y="327" on="0"/>
      </contour>
    </TTGlyph>
    <TTGlyph name="degree" xMin="30" yMin="336" xMax="378" yMax="682">
      <contour>
        <pt x="117" y="545" on="0"/>
        <pt x="117" y="473" on="0"/>
        <pt x="168" y="421" on="0"/>
        <pt x="240" y="421" on="0"/>
        <pt x="290" y="473" on="0"/>
        <pt x="290" y="545" on="0"/>
        <pt x="239" y="596" on="0"/>
        <pt x="167" y="596" on="0"/>
      </contour>
      <contour>
        <pt x="30" y="435" on="0"/>
        <pt x="30" y="581" on="0"/>
        <pt x="131" y="682" on="0"/>
        <pt x="278" y="682" on="0"/>
        <pt x="378" y="582" on="0"/>
        <pt x="378" y="436" on="0"/>
        <pt x="276" y="336" on="0"/>
        <pt x="130" y="336" on="0"/>
      </contour>
    </TTGlyph>
    <TTGlyph name="dieresis" xMin="43" yMin="645" xMax="427" yMax="784">
      <contour>
        <pt x="326" y="645" on="0"/>
        <pt x="285" y="685" on="0"/>
        <pt x="285" y="744" on="0"/>
        <pt x="326" y="784" on="0"/>
        <pt x="387" y="784" on="0"/>
        <pt x="427" y="744" on="0"/>
        <pt x="427" y="685" on="0"/>
        <pt x="387" y="645" on="0"/>
      </contour>
      <contour>
        <pt x="83" y="645" on="0"/>
        <pt x="43" y="685" on="0"/>
        <pt x="43" y="744" on="0"/>
        <pt x="83" y="784" on="0"/>
        <pt x="144" y="784" on="0"/>
        <pt x="184" y="744" on="0"/>
        <pt x="184" y="685" on="0"/>
        <pt x="144" y="645" on="0"/>
      </contour>
    </TTGlyph>
    <TTGlyph name="divide" xMin="50" yMin="96" xMax="526" yMax="584">
      <contour>
        <pt x="218" y="136" on="0"/>
        <pt x="218" y="190" on="0"/>
        <pt x="257" y="230" on="0"/>
        <pt x="312" y="230" on="0"/>
        <pt x="352" y="190" on="0"/>
        <pt x="352" y="136" on="0"/>
        <pt x="312" y="96" on="0"/>
        <pt x="257" y="96" on="0"/>
      </contour>
      <contour>
        <pt x="50" y="286" on="1"/>
        <pt x="50" y="394" on="1"/>
        <pt x="526" y="394" on="1"/>
        <pt x="526" y="286" on="1"/>
      </contour>
      <contour>
        <pt x="218" y="490" on="0"/>
        <pt x="218" y="544" on="0"/>
        <pt x="257" y="584" on="0"/>
        <pt x="312" y="584" on="0"/>
        <pt x="352" y="544" on="0"/>
        <pt x="352" y="490" on="0"/>
        <pt x="312" y="450" on="0"/>
        <pt x="257" y="450" on="0"/>
      </contour>
    </TTGlyph>
    <TTGlyph name="dollar" xMin="41" yMin="-115" xMax="469" yMax="787">
      <contour>
        <pt x="277" y="569" on="1"/>
        <pt x="230" y="569" on="0"/>
        <pt x="177" y="527" on="0"/>
        <pt x="177" y="494" on="1"/>
        <pt x="177" y="458" on="0"/>
        <pt x="214" y="434" on="1"/>
        <pt x="243" y="414" on="0"/>
        <pt x="334" y="373" on="0"/>
        <pt x="384" y="345" on="0"/>
        <pt x="412" y="322" on="1"/>
        <pt x="469" y="275" on="0"/>
        <pt x="469" y="111" on="0"/>
        <pt x="370" y="8" on="0"/>
        <pt x="286" y="-4" on="1"/>
        <pt x="286" y="-115" on="1"/>
        <pt x="185" y="-115" on="1"/>
        <pt x="185" y="-5" on="1"/>
        <pt x="102" y="3" on="0"/>
        <pt x="46" y="35" on="1"/>
        <pt x="46" y="164" on="1"/>
        <pt x="132" y="102" on="0"/>
        <pt x="234" y="102" on="1"/>
        <pt x="280" y="102" on="0"/>
        <pt x="336" y="147" on="0"/>
        <pt x="336" y="185" on="1"/>
        <pt x="336" y="217" on="0"/>
        <pt x="310" y="238" on="1"/>
        <pt x="283" y="260" on="0"/>
        <pt x="239" y="279" on="0"/>
        <pt x="219" y="288" on="1"/>
        <pt x="127" y="326" on="0"/>
        <pt x="41" y="416" on="0"/>
        <pt x="41" y="567" on="0"/>
        <pt x="145" y="667" on="0"/>
        <pt x="234" y="677" on="1"/>
        <pt x="234" y="787" on="1"/>
        <pt x="336" y="787" on="1"/>
        <pt x="336" y="675" on="1"/>
        <pt x="394" y="667" on="0"/>
        <pt x="437" y="646" on="1"/>
        <pt x="437" y="524" on="1"/>
        <pt x="362" y="569" on="0"/>
      </contour>
    </TTGlyph>
    <TTGlyph name="dotaccent" xMin="164" yMin="646" xMax="305" yMax="785">
      <contour>
        <pt x="204" y="646" on="0"/>
        <pt x="164" y="686" on="0"/>
        <pt x="164" y="745" on="0"/>
        <pt x="204" y="785" on="0"/>
        <pt x="265" y="785" on="0"/>
        <pt x="305" y="745" on="0"/>
        <pt x="305" y="686" on="0"/>
        <pt x="265" y="646" on="0"/>
      </contour>
    </TTGlyph>
    <TTGlyph name="dotlessi" xMin="70" yMin="0" xMax="190" yMax="507">
      <contour>
        <pt x="70" y="0" on="1"/>
        <pt x="70" y="507" on="1"/>
        <pt x="190" y="507" on="1"/>
        <pt x="190" y="0" on="1"/>
      </contour>
    </TTGlyph>
    <TTGlyph name="dvMatraAA_Candrabindu" xMin="-73" yMin="0" xMax="356" yMax="1030">
      <contour>
        <pt x="-27" y="565" on="1"/>
        <pt x="-27" y="660" on="1"/>
        <pt x="302" y="660" on="1"/>
        <pt x="302" y="565" on="1"/>
        <pt x="196" y="565" on="1"/>
        <pt x="196" y="0" on="1"/>
        <pt x="79" y="0" on="1"/>
        <pt x="79" y="565" on="1"/>
      </contour>
      <contour>
        <pt x="80" y="941" on="0"/>
        <pt x="80" y="993" on="0"/>
        <pt x="116" y="1030" on="0"/>
        <pt x="169" y="1030" on="0"/>
        <pt x="206" y="993" on="0"/>
        <pt x="206" y="941" on="0"/>
        <pt x="169" y="904" on="0"/>
        <pt x="116" y="904" on="0"/>
      </contour>
      <contour>
        <pt x="356" y="830" on="0"/>
        <pt x="232" y="735" on="0"/>
        <pt x="47" y="735" on="0"/>
        <pt x="-73" y="826" on="0"/>
        <pt x="-73" y="912" on="1"/>
        <pt x="41" y="912" on="1"/>
        <pt x="41" y="872" on="0"/>
        <pt x="96" y="821" on="0"/>
        <pt x="189" y="821" on="0"/>
        <pt x="242" y="872" on="0"/>
        <pt x="242" y="912" on="1"/>
        <pt x="356" y="912" on="1"/>
      </contour>
    </TTGlyph>
    <TTGlyph name="dvMatraAI_Candrabindu" xMin="-456" yMin="653" xMax="306" yMax="1021">
      <contour>
        <pt x="192" y="903" on="1"/>
        <pt x="306" y="903" on="1"/>
        <pt x="306" y="821" on="0"/>
        <pt x="182" y="726" on="0"/>
        <pt x="-3" y="726" on="0"/>
        <pt x="-123" y="817" on="0"/>
        <pt x="-123" y="903" on="1"/>
        <pt x="-9" y="903" on="1"/>
        <pt x="-9" y="863" on="0"/>
        <pt x="46" y="812" on="0"/>
        <pt x="138" y="812" on="0"/>
        <pt x="192" y="863" on="0"/>
      </contour>
      <contour>
        <pt x="-381" y="952" on="1"/>
        <pt x="-263" y="952" on="0"/>
        <pt x="-194" y="840" on="1"/>
        <pt x="-78" y="653" on="1"/>
        <pt x="-218" y="653" on="1"/>
        <pt x="-326" y="722" on="0"/>
        <pt x="-399" y="722" on="1"/>
        <pt x="-429" y="722" on="0"/>
        <pt x="-456" y="714" on="1"/>
        <pt x="-456" y="803" on="1"/>
        <pt x="-424" y="811" on="0"/>
        <pt x="-348" y="811" on="0"/>
        <pt x="-306" y="789" on="1"/>
        <pt x="-258" y="764" on="0"/>
        <pt x="-172" y="687" on="1"/>
        <pt x="-264" y="799" on="1"/>
        <pt x="-316" y="862" on="0"/>
        <pt x="-388" y="862" on="1"/>
        <pt x="-424" y="862" on="0"/>
        <pt x="-456" y="853" on="1"/>
        <pt x="-456" y="944" on="1"/>
        <pt x="-429" y="952" on="0"/>
      </contour>
      <contour>
        <pt x="156" y="932" on="0"/>
        <pt x="119" y="895" on="0"/>
        <pt x="66" y="895" on="0"/>
        <pt x="29" y="932" on="0"/>
        <pt x="29" y="984" on="0"/>
        <pt x="66" y="1021" on="0"/>
        <pt x="119" y="1021" on="0"/>
        <pt x="156" y="984" on="0"/>
      </contour>
    </TTGlyph>
    <TTGlyph name="dvMatraE_Candrabindu" xMin="-419" yMin="653" xMax="299" yMax="1021">
      <contour>
        <pt x="23" y="932" on="0"/>
        <pt x="23" y="984" on="0"/>
        <pt x="60" y="1021" on="0"/>
        <pt x="112" y="1021" on="0"/>
        <pt x="149" y="984" on="0"/>
        <pt x="149" y="932" on="0"/>
        <pt x="112" y="895" on="0"/>
        <pt x="60" y="895" on="0"/>
      </contour>
      <contour>
        <pt x="299" y="821" on="0"/>
        <pt x="175" y="726" on="0"/>
        <pt x="-10" y="726" on="0"/>
        <pt x="-129" y="817" on="0"/>
        <pt x="-129" y="903" on="1"/>
        <pt x="-15" y="903" on="1"/>
        <pt x="-15" y="863" on="0"/>
        <pt x="40" y="812" on="0"/>
        <pt x="132" y="812" on="0"/>
        <pt x="186" y="863" on="0"/>
        <pt x="186" y="903" on="1"/>
        <pt x="299" y="903" on="1"/>
      </contour>
      <contour>
        <pt x="-360" y="814" on="1"/>
        <pt x="-388" y="814" on="0"/>
        <pt x="-419" y="805" on="1"/>
        <pt x="-419" y="904" on="1"/>
        <pt x="-377" y="911" on="0"/>
        <pt x="-351" y="911" on="1"/>
        <pt x="-242" y="910" on="0"/>
        <pt x="-184" y="820" on="1"/>
        <pt x="-75" y="653" on="1"/>
        <pt x="-201" y="653" on="1"/>
        <pt x="-279" y="768" on="1"/>
        <pt x="-308" y="814" on="0"/>
      </contour>
    </TTGlyph>
    <TTGlyph name="dvSHA_MatraVocalicR" xMin="1" yMin="-250" xMax="758" yMax="668">
      <contour>
        <pt x="655" y="565" on="1"/>
        <pt x="655" y="-20" on="1"/>
        <pt x="600" y="-21" on="0"/>
        <pt x="541" y="-62" on="0"/>
        <pt x="541" y="-126" on="0"/>
        <pt x="584" y="-159" on="0"/>
        <pt x="686" y="-159" on="0"/>
        <pt x="732" y="-133" on="1"/>
        <pt x="732" y="-225" on="1"/>
        <pt x="678" y="-250" on="0"/>
        <pt x="528" y="-250" on="0"/>
        <pt x="424" y="-174" on="0"/>
        <pt x="424" y="-101" on="1"/>
        <pt x="424" y="-55" on="0"/>
        <pt x="485" y="18" on="0"/>
        <pt x="537" y="32" on="1"/>
        <pt x="537" y="199" on="1"/>
        <pt x="393" y="233" on="0"/>
        <pt x="305" y="270" on="1"/>
        <pt x="94" y="141" on="1"/>
        <pt x="1" y="211" on="1"/>
        <pt x="198" y="327" on="1"/>
        <pt x="90" y="400" on="0"/>
        <pt x="90" y="506" on="1"/>
        <pt x="90" y="573" on="0"/>
        <pt x="191" y="668" on="0"/>
        <pt x="357" y="668" on="0"/>
        <pt x="463" y="573" on="0"/>
        <pt x="463" y="499" on="1"/>
        <pt x="463" y="408" on="0"/>
        <pt x="396" y="345" on="1"/>
        <pt x="449" y="326" on="0"/>
        <pt x="537" y="302" on="1"/>
        <pt x="537" y="660" on="1"/>
        <pt x="758" y="660" on="1"/>
        <pt x="758" y="565" on="1"/>
      </contour>
      <contour>
        <pt x="347" y="527" on="0"/>
        <pt x="308" y="572" on="0"/>
        <pt x="245" y="572" on="0"/>
        <pt x="207" y="533" on="0"/>
        <pt x="207" y="503" on="1"/>
        <pt x="207" y="442" on="0"/>
        <pt x="290" y="393" on="1"/>
        <pt x="347" y="433" on="0"/>
        <pt x="347" y="494" on="1"/>
      </contour>
    </TTGlyph>
    <TTGlyph name="e" xMin="38" yMin="-5" xMax="484" yMax="512">
      <contour>
        <pt x="299" y="-5" on="1"/>
        <pt x="178" y="-5" on="0"/>
        <pt x="38" y="139" on="0"/>
        <pt x="38" y="374" on="0"/>
        <pt x="170" y="512" on="0"/>
        <pt x="368" y="512" on="0"/>
        <pt x="484" y="392" on="0"/>
        <pt x="484" y="277" on="1"/>
        <pt x="484" y="249" on="0"/>
        <pt x="477" y="205" on="1"/>
        <pt x="159" y="205" on="1"/>
        <pt x="172" y="150" on="0"/>
        <pt x="255" y="92" on="0"/>
        <pt x="397" y="92" on="0"/>
        <pt x="452" y="132" on="1"/>
        <pt x="452" y="28" on="1"/>
        <pt x="399" y="-5" on="0"/>
      </contour>
      <contour>
        <pt x="370" y="295" on="1"/>
        <pt x="370" y="310" on="1"/>
        <pt x="368" y="359" on="0"/>
        <pt x="319" y="418" on="0"/>
        <pt x="229" y="418" on="0"/>
        <pt x="166" y="355" on="0"/>
        <pt x="157" y="295" on="1"/>
      </contour>
    </TTGlyph>
    <TTGlyph name="eacute" xMin="38" yMin="-5" xMax="484" yMax="725">
      <contour>
        <pt x="299" y="-5" on="1"/>
        <pt x="178" y="-5" on="0"/>
        <pt x="38" y="139" on="0"/>
        <pt x="38" y="374" on="0"/>
        <pt x="170" y="512" on="0"/>
        <pt x="368" y="512" on="0"/>
        <pt x="484" y="392" on="0"/>
        <pt x="484" y="277" on="1"/>
        <pt x="484" y="249" on="0"/>
        <pt x="477" y="205" on="1"/>
        <pt x="159" y="205" on="1"/>
        <pt x="172" y="150" on="0"/>
        <pt x="255" y="92" on="0"/>
        <pt x="397" y="92" on="0"/>
        <pt x="452" y="132" on="1"/>
        <pt x="452" y="28" on="1"/>
        <pt x="399" y="-5" on="0"/>
      </contour>
      <contour>
        <pt x="370" y="295" on="1"/>
        <pt x="370" y="310" on="1"/>
        <pt x="368" y="359" on="0"/>
        <pt x="319" y="418" on="0"/>
        <pt x="229" y="418" on="0"/>
        <pt x="166" y="355" on="0"/>
        <pt x="157" y="295" on="1"/>
      </contour>
      <contour>
        <pt x="452" y="725" on="1"/>
        <pt x="336" y="556" on="1"/>
        <pt x="235" y="556" on="1"/>
        <pt x="326" y="725" on="1"/>
      </contour>
    </TTGlyph>
    <TTGlyph name="ebreve" xMin="38" yMin="-5" xMax="484" yMax="725">
      <contour>
        <pt x="299" y="-5" on="1"/>
        <pt x="178" y="-5" on="0"/>
        <pt x="38" y="139" on="0"/>
        <pt x="38" y="374" on="0"/>
        <pt x="170" y="512" on="0"/>
        <pt x="368" y="512" on="0"/>
        <pt x="484" y="392" on="0"/>
        <pt x="484" y="277" on="1"/>
        <pt x="484" y="249" on="0"/>
        <pt x="477" y="205" on="1"/>
        <pt x="159" y="205" on="1"/>
        <pt x="172" y="150" on="0"/>
        <pt x="255" y="92" on="0"/>
        <pt x="397" y="92" on="0"/>
        <pt x="452" y="132" on="1"/>
        <pt x="452" y="28" on="1"/>
        <pt x="399" y="-5" on="0"/>
      </contour>
      <contour>
        <pt x="370" y="295" on="1"/>
        <pt x="370" y="310" on="1"/>
        <pt x="368" y="359" on="0"/>
        <pt x="319" y="418" on="0"/>
        <pt x="229" y="418" on="0"/>
        <pt x="166" y="355" on="0"/>
        <pt x="157" y="295" on="1"/>
      </contour>
      <contour>
        <pt x="363" y="725" on="1"/>
        <pt x="457" y="725" on="1"/>
        <pt x="457" y="639" on="0"/>
        <pt x="358" y="552" on="0"/>
        <pt x="186" y="552" on="0"/>
        <pt x="87" y="640" on="0"/>
        <pt x="87" y="725" on="1"/>
        <pt x="181" y="725" on="1"/>
        <pt x="181" y="682" on="0"/>
        <pt x="228" y="631" on="0"/>
        <pt x="316" y="631" on="0"/>
        <pt x="363" y="682" on="0"/>
      </contour>
    </TTGlyph>
    <TTGlyph name="ecaron" xMin="38" yMin="-5" xMax="484" yMax="725">
      <contour>
        <pt x="299" y="-5" on="1"/>
        <pt x="178" y="-5" on="0"/>
        <pt x="38" y="139" on="0"/>
        <pt x="38" y="374" on="0"/>
        <pt x="170" y="512" on="0"/>
        <pt x="368" y="512" on="0"/>
        <pt x="484" y="392" on="0"/>
        <pt x="484" y="277" on="1"/>
        <pt x="484" y="249" on="0"/>
        <pt x="477" y="205" on="1"/>
        <pt x="159" y="205" on="1"/>
        <pt x="172" y="150" on="0"/>
        <pt x="255" y="92" on="0"/>
        <pt x="397" y="92" on="0"/>
        <pt x="452" y="132" on="1"/>
        <pt x="452" y="28" on="1"/>
        <pt x="399" y="-5" on="0"/>
      </contour>
      <contour>
        <pt x="370" y="295" on="1"/>
        <pt x="370" y="310" on="1"/>
        <pt x="368" y="359" on="0"/>
        <pt x="319" y="418" on="0"/>
        <pt x="229" y="418" on="0"/>
        <pt x="166" y="355" on="0"/>
        <pt x="157" y="295" on="1"/>
      </contour>
      <contour>
        <pt x="326" y="556" on="1"/>
        <pt x="220" y="556" on="1"/>
        <pt x="75" y="725" on="1"/>
        <pt x="192" y="725" on="1"/>
        <pt x="273" y="626" on="1"/>
        <pt x="354" y="725" on="1"/>
        <pt x="471" y="725" on="1"/>
      </contour>
    </TTGlyph>
    <TTGlyph name="ecircumflex" xMin="38" yMin="-5" xMax="484" yMax="725">
      <contour>
        <pt x="299" y="-5" on="1"/>
        <pt x="178" y="-5" on="0"/>
        <pt x="38" y="139" on="0"/>
        <pt x="38" y="374" on="0"/>
        <pt x="170" y="512" on="0"/>
        <pt x="368" y="512" on="0"/>
        <pt x="484" y="392" on="0"/>
        <pt x="484" y="277" on="1"/>
        <pt x="484" y="249" on="0"/>
        <pt x="477" y="205" on="1"/>
        <pt x="159" y="205" on="1"/>
        <pt x="172" y="150" on="0"/>
        <pt x="255" y="92" on="0"/>
        <pt x="397" y="92" on="0"/>
        <pt x="452" y="132" on="1"/>
        <pt x="452" y="28" on="1"/>
        <pt x="399" y="-5" on="0"/>
      </contour>
      <contour>
        <pt x="370" y="295" on="1"/>
        <pt x="370" y="310" on="1"/>
        <pt x="368" y="359" on="0"/>
        <pt x="319" y="418" on="0"/>
        <pt x="229" y="418" on="0"/>
        <pt x="166" y="355" on="0"/>
        <pt x="157" y="295" on="1"/>
      </contour>
      <contour>
        <pt x="274" y="655" on="1"/>
        <pt x="193" y="556" on="1"/>
        <pt x="76" y="556" on="1"/>
        <pt x="221" y="725" on="1"/>
        <pt x="327" y="725" on="1"/>
        <pt x="472" y="556" on="1"/>
        <pt x="355" y="556" on="1"/>
      </contour>
    </TTGlyph>
    <TTGlyph name="edieresis" xMin="38" yMin="-5" xMax="484" yMax="710">
      <contour>
        <pt x="299" y="-5" on="1"/>
        <pt x="178" y="-5" on="0"/>
        <pt x="38" y="139" on="0"/>
        <pt x="38" y="374" on="0"/>
        <pt x="170" y="512" on="0"/>
        <pt x="368" y="512" on="0"/>
        <pt x="484" y="392" on="0"/>
        <pt x="484" y="277" on="1"/>
        <pt x="484" y="249" on="0"/>
        <pt x="477" y="205" on="1"/>
        <pt x="159" y="205" on="1"/>
        <pt x="172" y="150" on="0"/>
        <pt x="255" y="92" on="0"/>
        <pt x="397" y="92" on="0"/>
        <pt x="452" y="132" on="1"/>
        <pt x="452" y="28" on="1"/>
        <pt x="399" y="-5" on="0"/>
      </contour>
      <contour>
        <pt x="370" y="295" on="1"/>
        <pt x="370" y="310" on="1"/>
        <pt x="368" y="359" on="0"/>
        <pt x="319" y="418" on="0"/>
        <pt x="229" y="418" on="0"/>
        <pt x="166" y="355" on="0"/>
        <pt x="157" y="295" on="1"/>
      </contour>
      <contour>
        <pt x="232" y="611" on="0"/>
        <pt x="192" y="571" on="0"/>
        <pt x="131" y="571" on="0"/>
        <pt x="91" y="611" on="0"/>
        <pt x="91" y="670" on="0"/>
        <pt x="131" y="710" on="0"/>
        <pt x="192" y="710" on="0"/>
        <pt x="232" y="670" on="0"/>
      </contour>
      <contour>
        <pt x="475" y="611" on="0"/>
        <pt x="435" y="571" on="0"/>
        <pt x="374" y="571" on="0"/>
        <pt x="333" y="611" on="0"/>
        <pt x="333" y="670" on="0"/>
        <pt x="374" y="710" on="0"/>
        <pt x="435" y="710" on="0"/>
        <pt x="475" y="670" on="0"/>
      </contour>
    </TTGlyph>
    <TTGlyph name="edotaccent" xMin="38" yMin="-5" xMax="484" yMax="711">
      <contour>
        <pt x="299" y="-5" on="1"/>
        <pt x="178" y="-5" on="0"/>
        <pt x="38" y="139" on="0"/>
        <pt x="38" y="374" on="0"/>
        <pt x="170" y="512" on="0"/>
        <pt x="368" y="512" on="0"/>
        <pt x="484" y="392" on="0"/>
        <pt x="484" y="277" on="1"/>
        <pt x="484" y="249" on="0"/>
        <pt x="477" y="205" on="1"/>
        <pt x="159" y="205" on="1"/>
        <pt x="172" y="150" on="0"/>
        <pt x="255" y="92" on="0"/>
        <pt x="397" y="92" on="0"/>
        <pt x="452" y="132" on="1"/>
        <pt x="452" y="28" on="1"/>
        <pt x="399" y="-5" on="0"/>
      </contour>
      <contour>
        <pt x="370" y="295" on="1"/>
        <pt x="370" y="310" on="1"/>
        <pt x="368" y="359" on="0"/>
        <pt x="319" y="418" on="0"/>
        <pt x="229" y="418" on="0"/>
        <pt x="166" y="355" on="0"/>
        <pt x="157" y="295" on="1"/>
      </contour>
      <contour>
        <pt x="351" y="612" on="0"/>
        <pt x="311" y="572" on="0"/>
        <pt x="250" y="572" on="0"/>
        <pt x="210" y="612" on="0"/>
        <pt x="210" y="671" on="0"/>
        <pt x="250" y="711" on="0"/>
        <pt x="311" y="711" on="0"/>
        <pt x="351" y="671" on="0"/>
      </contour>
    </TTGlyph>
    <TTGlyph name="egrave" xMin="38" yMin="-5" xMax="484" yMax="725">
      <contour>
        <pt x="299" y="-5" on="1"/>
        <pt x="178" y="-5" on="0"/>
        <pt x="38" y="139" on="0"/>
        <pt x="38" y="374" on="0"/>
        <pt x="170" y="512" on="0"/>
        <pt x="368" y="512" on="0"/>
        <pt x="484" y="392" on="0"/>
        <pt x="484" y="277" on="1"/>
        <pt x="484" y="249" on="0"/>
        <pt x="477" y="205" on="1"/>
        <pt x="159" y="205" on="1"/>
        <pt x="172" y="150" on="0"/>
        <pt x="255" y="92" on="0"/>
        <pt x="397" y="92" on="0"/>
        <pt x="452" y="132" on="1"/>
        <pt x="452" y="28" on="1"/>
        <pt x="399" y="-5" on="0"/>
      </contour>
      <contour>
        <pt x="370" y="295" on="1"/>
        <pt x="370" y="310" on="1"/>
        <pt x="368" y="359" on="0"/>
        <pt x="319" y="418" on="0"/>
        <pt x="229" y="418" on="0"/>
        <pt x="166" y="355" on="0"/>
        <pt x="157" y="295" on="1"/>
      </contour>
      <contour>
        <pt x="329" y="556" on="1"/>
        <pt x="228" y="556" on="1"/>
        <pt x="112" y="725" on="1"/>
        <pt x="238" y="725" on="1"/>
      </contour>
    </TTGlyph>
    <TTGlyph name="eight" xMin="41" yMin="-9" xMax="500" yMax="664">
      <contour>
        <pt x="500" y="178" on="1"/>
        <pt x="500" y="94" on="0"/>
        <pt x="370" y="-9" on="0"/>
        <pt x="166" y="-9" on="0"/>
        <pt x="41" y="89" on="0"/>
        <pt x="41" y="173" on="1"/>
        <pt x="41" y="283" on="0"/>
        <pt x="144" y="328" on="1"/>
        <pt x="51" y="375" on="0"/>
        <pt x="51" y="563" on="0"/>
        <pt x="176" y="664" on="0"/>
        <pt x="364" y="664" on="0"/>
        <pt x="488" y="568" on="0"/>
        <pt x="488" y="378" on="0"/>
        <pt x="398" y="331" on="1"/>
        <pt x="500" y="291" on="0"/>
      </contour>
      <contour>
        <pt x="367" y="515" on="0"/>
        <pt x="321" y="566" on="0"/>
        <pt x="222" y="566" on="0"/>
        <pt x="173" y="513" on="0"/>
        <pt x="173" y="430" on="0"/>
        <pt x="229" y="382" on="0"/>
        <pt x="312" y="382" on="0"/>
        <pt x="367" y="430" on="0"/>
      </contour>
      <contour>
        <pt x="162" y="140" on="0"/>
        <pt x="216" y="89" on="0"/>
        <pt x="323" y="89" on="0"/>
        <pt x="379" y="143" on="0"/>
        <pt x="379" y="221" on="0"/>
        <pt x="322" y="275" on="0"/>
        <pt x="216" y="274" on="0"/>
        <pt x="162" y="217" on="0"/>
      </contour>
    </TTGlyph>
    <TTGlyph name="ellipsis" xMin="51" yMin="-8" xMax="804" yMax="147">
      <contour>
        <pt x="649" y="38" on="0"/>
        <pt x="649" y="102" on="0"/>
        <pt x="695" y="147" on="0"/>
        <pt x="759" y="147" on="0"/>
        <pt x="804" y="102" on="0"/>
        <pt x="804" y="38" on="0"/>
        <pt x="759" y="-8" on="0"/>
        <pt x="695" y="-8" on="0"/>
      </contour>
      <contour>
        <pt x="350" y="38" on="0"/>
        <pt x="350" y="102" on="0"/>
        <pt x="396" y="147" on="0"/>
        <pt x="460" y="147" on="0"/>
        <pt x="505" y="102" on="0"/>
        <pt x="505" y="38" on="0"/>
        <pt x="460" y="-8" on="0"/>
        <pt x="396" y="-8" on="0"/>
      </contour>
      <contour>
        <pt x="51" y="38" on="0"/>
        <pt x="51" y="102" on="0"/>
        <pt x="97" y="147" on="0"/>
        <pt x="161" y="147" on="0"/>
        <pt x="206" y="102" on="0"/>
        <pt x="206" y="38" on="0"/>
        <pt x="161" y="-8" on="0"/>
        <pt x="97" y="-8" on="0"/>
      </contour>
    </TTGlyph>
    <TTGlyph name="emacron" xMin="38" yMin="-5" xMax="484" yMax="682">
      <contour>
        <pt x="299" y="-5" on="1"/>
        <pt x="178" y="-5" on="0"/>
        <pt x="38" y="139" on="0"/>
        <pt x="38" y="374" on="0"/>
        <pt x="170" y="512" on="0"/>
        <pt x="368" y="512" on="0"/>
        <pt x="484" y="392" on="0"/>
        <pt x="484" y="277" on="1"/>
        <pt x="484" y="249" on="0"/>
        <pt x="477" y="205" on="1"/>
        <pt x="159" y="205" on="1"/>
        <pt x="172" y="150" on="0"/>
        <pt x="255" y="92" on="0"/>
        <pt x="397" y="92" on="0"/>
        <pt x="452" y="132" on="1"/>
        <pt x="452" y="28" on="1"/>
        <pt x="399" y="-5" on="0"/>
      </contour>
      <contour>
        <pt x="370" y="295" on="1"/>
        <pt x="370" y="310" on="1"/>
        <pt x="368" y="359" on="0"/>
        <pt x="319" y="418" on="0"/>
        <pt x="229" y="418" on="0"/>
        <pt x="166" y="355" on="0"/>
        <pt x="157" y="295" on="1"/>
      </contour>
      <contour>
        <pt x="436" y="682" on="1"/>
        <pt x="436" y="599" on="1"/>
        <pt x="108" y="599" on="1"/>
        <pt x="108" y="682" on="1"/>
      </contour>
    </TTGlyph>
    <TTGlyph name="emdash" xMin="50" yMin="226" xMax="781" yMax="318">
      <contour>
        <pt x="50" y="226" on="1"/>
        <pt x="50" y="318" on="1"/>
        <pt x="781" y="318" on="1"/>
        <pt x="781" y="226" on="1"/>
      </contour>
    </TTGlyph>
    <TTGlyph name="endash" xMin="50" yMin="223" xMax="500" yMax="315">
      <contour>
        <pt x="50" y="223" on="1"/>
        <pt x="50" y="315" on="1"/>
        <pt x="500" y="315" on="1"/>
        <pt x="500" y="223" on="1"/>
      </contour>
    </TTGlyph>
    <TTGlyph name="eng" xMin="65" yMin="-197" xMax="506" yMax="513">
      <contour>
        <pt x="505" y="224" on="1"/>
        <pt x="506" y="224" on="1"/>
        <pt x="506" y="-34" on="1"/>
        <pt x="506" y="-109" on="0"/>
        <pt x="423" y="-197" on="0"/>
        <pt x="347" y="-197" on="1"/>
        <pt x="311" y="-197" on="0"/>
        <pt x="271" y="-181" on="1"/>
        <pt x="271" y="-86" on="1"/>
        <pt x="308" y="-101" on="0"/>
        <pt x="332" y="-101" on="1"/>
        <pt x="385" y="-101" on="0"/>
        <pt x="385" y="-32" on="1"/>
        <pt x="385" y="312" on="1"/>
        <pt x="385" y="362" on="0"/>
        <pt x="337" y="413" on="0"/>
        <pt x="249" y="413" on="0"/>
        <pt x="185" y="340" on="0"/>
        <pt x="185" y="272" on="1"/>
        <pt x="185" y="0" on="1"/>
        <pt x="65" y="0" on="1"/>
        <pt x="65" y="507" on="1"/>
        <pt x="185" y="507" on="1"/>
        <pt x="185" y="420" on="1"/>
        <pt x="228" y="513" on="0"/>
        <pt x="341" y="513" on="1"/>
        <pt x="417" y="513" on="0"/>
        <pt x="505" y="421" on="0"/>
        <pt x="505" y="337" on="1"/>
      </contour>
    </TTGlyph>
    <TTGlyph name="eogonek" xMin="38" yMin="-238" xMax="484" yMax="512">
      <contour>
        <pt x="431" y="-215" on="1"/>
        <pt x="390" y="-238" on="0"/>
        <pt x="267" y="-238" on="0"/>
        <pt x="201" y="-174" on="0"/>
        <pt x="201" y="-124" on="1"/>
        <pt x="201" y="-59" on="0"/>
        <pt x="260" y="-3" on="1"/>
        <pt x="156" y="9" on="0"/>
        <pt x="38" y="148" on="0"/>
        <pt x="38" y="374" on="0"/>
        <pt x="170" y="512" on="0"/>
        <pt x="368" y="512" on="0"/>
        <pt x="484" y="392" on="0"/>
        <pt x="484" y="277" on="1"/>
        <pt x="484" y="249" on="0"/>
        <pt x="477" y="205" on="1"/>
        <pt x="159" y="205" on="1"/>
        <pt x="172" y="150" on="0"/>
        <pt x="255" y="92" on="0"/>
        <pt x="397" y="92" on="0"/>
        <pt x="452" y="132" on="1"/>
        <pt x="452" y="28" on="1"/>
        <pt x="432" y="16" on="0"/>
        <pt x="404" y="8" on="1"/>
        <pt x="299" y="-55" on="0"/>
        <pt x="299" y="-113" on="1"/>
        <pt x="299" y="-157" on="0"/>
        <pt x="351" y="-157" on="1"/>
        <pt x="390" y="-157" on="0"/>
        <pt x="431" y="-130" on="1"/>
      </contour>
      <contour>
        <pt x="370" y="295" on="1"/>
        <pt x="370" y="310" on="1"/>
        <pt x="368" y="359" on="0"/>
        <pt x="319" y="418" on="0"/>
        <pt x="229" y="418" on="0"/>
        <pt x="166" y="355" on="0"/>
        <pt x="157" y="295" on="1"/>
      </contour>
    </TTGlyph>
    <TTGlyph name="equal" xMin="50" yMin="181" xMax="526" yMax="499">
      <contour>
        <pt x="50" y="181" on="1"/>
        <pt x="50" y="282" on="1"/>
        <pt x="526" y="282" on="1"/>
        <pt x="526" y="181" on="1"/>
      </contour>
      <contour>
        <pt x="50" y="399" on="1"/>
        <pt x="50" y="499" on="1"/>
        <pt x="526" y="499" on="1"/>
        <pt x="526" y="399" on="1"/>
      </contour>
    </TTGlyph>
    <TTGlyph name="eth" xMin="36" yMin="-10" xMax="495" yMax="679">
      <contour>
        <pt x="397" y="569" on="1"/>
        <pt x="495" y="437" on="0"/>
        <pt x="495" y="146" on="0"/>
        <pt x="374" y="-10" on="0"/>
        <pt x="158" y="-10" on="0"/>
        <pt x="36" y="115" on="0"/>
        <pt x="36" y="295" on="0"/>
        <pt x="147" y="404" on="0"/>
        <pt x="316" y="404" on="0"/>
        <pt x="372" y="348" on="1"/>
        <pt x="358" y="439" on="0"/>
        <pt x="300" y="521" on="1"/>
        <pt x="159" y="450" on="1"/>
        <pt x="159" y="524" on="1"/>
        <pt x="257" y="573" on="1"/>
        <pt x="207" y="626" on="0"/>
        <pt x="129" y="674" on="1"/>
        <pt x="290" y="674" on="1"/>
        <pt x="322" y="653" on="0"/>
        <pt x="354" y="621" on="1"/>
        <pt x="471" y="679" on="1"/>
        <pt x="471" y="606" on="1"/>
      </contour>
      <contour>
        <pt x="261" y="99" on="1"/>
        <pt x="364" y="99" on="0"/>
        <pt x="375" y="243" on="1"/>
        <pt x="326" y="300" on="0"/>
        <pt x="258" y="300" on="1"/>
        <pt x="213" y="300" on="0"/>
        <pt x="160" y="245" on="0"/>
        <pt x="160" y="152" on="0"/>
        <pt x="215" y="99" on="0"/>
      </contour>
    </TTGlyph>
    <TTGlyph name="exclam" xMin="57" yMin="-8" xMax="215" yMax="674">
      <contour>
        <pt x="102" y="-8" on="0"/>
        <pt x="57" y="37" on="0"/>
        <pt x="57" y="104" on="0"/>
        <pt x="102" y="150" on="0"/>
        <pt x="169" y="150" on="0"/>
        <pt x="215" y="104" on="0"/>
        <pt x="215" y="37" on="0"/>
        <pt x="169" y="-8" on="0"/>
      </contour>
      <contour>
        <pt x="80" y="224" on="1"/>
        <pt x="80" y="674" on="1"/>
        <pt x="195" y="674" on="1"/>
        <pt x="195" y="224" on="1"/>
      </contour>
    </TTGlyph>
    <TTGlyph name="exclamdown" xMin="57" yMin="-165" xMax="215" yMax="517">
      <contour>
        <pt x="80" y="-165" on="1"/>
        <pt x="80" y="285" on="1"/>
        <pt x="195" y="285" on="1"/>
        <pt x="195" y="-165" on="1"/>
      </contour>
      <contour>
        <pt x="102" y="359" on="0"/>
        <pt x="57" y="405" on="0"/>
        <pt x="57" y="472" on="0"/>
        <pt x="102" y="517" on="0"/>
        <pt x="169" y="517" on="0"/>
        <pt x="215" y="472" on="0"/>
        <pt x="215" y="405" on="0"/>
        <pt x="169" y="359" on="0"/>
      </contour>
    </TTGlyph>
    <TTGlyph name="f" xMin="30" yMin="0" xMax="347" yMax="718">
      <contour>
        <pt x="297" y="618" on="1"/>
        <pt x="224" y="618" on="0"/>
        <pt x="224" y="536" on="1"/>
        <pt x="224" y="507" on="1"/>
        <pt x="325" y="507" on="1"/>
        <pt x="325" y="417" on="1"/>
        <pt x="224" y="417" on="1"/>
        <pt x="224" y="0" on="1"/>
        <pt x="104" y="0" on="1"/>
        <pt x="104" y="417" on="1"/>
        <pt x="30" y="417" on="1"/>
        <pt x="30" y="507" on="1"/>
        <pt x="104" y="507" on="1"/>
        <pt x="104" y="537" on="1"/>
        <pt x="104" y="622" on="0"/>
        <pt x="198" y="718" on="0"/>
        <pt x="281" y="718" on="1"/>
        <pt x="319" y="718" on="0"/>
        <pt x="347" y="709" on="1"/>
        <pt x="347" y="608" on="1"/>
        <pt x="321" y="618" on="0"/>
      </contour>
    </TTGlyph>
    <TTGlyph name="ff" xMin="30" yMin="0" xMax="621" yMax="718">
      <contour>
        <pt x="571" y="618" on="1"/>
        <pt x="498" y="618" on="0"/>
        <pt x="498" y="536" on="1"/>
        <pt x="498" y="507" on="1"/>
        <pt x="600" y="507" on="1"/>
        <pt x="600" y="417" on="1"/>
        <pt x="498" y="417" on="1"/>
        <pt x="498" y="0" on="1"/>
        <pt x="379" y="0" on="1"/>
        <pt x="379" y="417" on="1"/>
        <pt x="224" y="417" on="1"/>
        <pt x="224" y="0" on="1"/>
        <pt x="104" y="0" on="1"/>
        <pt x="104" y="417" on="1"/>
        <pt x="30" y="417" on="1"/>
        <pt x="30" y="507" on="1"/>
        <pt x="104" y="507" on="1"/>
        <pt x="104" y="537" on="1"/>
        <pt x="104" y="622" on="0"/>
        <pt x="199" y="718" on="0"/>
        <pt x="366" y="718" on="0"/>
        <pt x="440" y="683" on="1"/>
        <pt x="484" y="718" on="0"/>
        <pt x="555" y="718" on="1"/>
        <pt x="593" y="718" on="0"/>
        <pt x="621" y="709" on="1"/>
        <pt x="621" y="608" on="1"/>
        <pt x="595" y="618" on="0"/>
      </contour>
      <contour>
        <pt x="379" y="507" on="1"/>
        <pt x="379" y="537" on="1"/>
        <pt x="379" y="571" on="0"/>
        <pt x="387" y="601" on="1"/>
        <pt x="339" y="618" on="0"/>
        <pt x="262" y="618" on="0"/>
        <pt x="224" y="581" on="0"/>
        <pt x="224" y="536" on="1"/>
        <pt x="224" y="507" on="1"/>
      </contour>
    </TTGlyph>
    <TTGlyph name="ffi" xMin="30" yMin="0" xMax="773" yMax="718">
      <contour>
        <pt x="773" y="507" on="1"/>
        <pt x="773" y="0" on="1"/>
        <pt x="653" y="0" on="1"/>
        <pt x="653" y="417" on="1"/>
        <pt x="498" y="417" on="1"/>
        <pt x="498" y="0" on="1"/>
        <pt x="379" y="0" on="1"/>
        <pt x="379" y="417" on="1"/>
        <pt x="224" y="417" on="1"/>
        <pt x="224" y="0" on="1"/>
        <pt x="104" y="0" on="1"/>
        <pt x="104" y="417" on="1"/>
        <pt x="30" y="417" on="1"/>
        <pt x="30" y="507" on="1"/>
        <pt x="104" y="507" on="1"/>
        <pt x="104" y="537" on="1"/>
        <pt x="104" y="622" on="0"/>
        <pt x="199" y="718" on="0"/>
        <pt x="366" y="718" on="0"/>
        <pt x="440" y="683" on="1"/>
        <pt x="484" y="718" on="0"/>
        <pt x="642" y="718" on="0"/>
        <pt x="727" y="679" on="1"/>
        <pt x="727" y="578" on="1"/>
        <pt x="640" y="618" on="0"/>
        <pt x="573" y="618" on="1"/>
        <pt x="536" y="618" on="0"/>
        <pt x="498" y="581" on="0"/>
        <pt x="498" y="536" on="1"/>
        <pt x="498" y="507" on="1"/>
      </contour>
      <contour>
        <pt x="379" y="507" on="1"/>
        <pt x="379" y="537" on="1"/>
        <pt x="379" y="571" on="0"/>
        <pt x="387" y="601" on="1"/>
        <pt x="339" y="618" on="0"/>
        <pt x="262" y="618" on="0"/>
        <pt x="224" y="581" on="0"/>
        <pt x="224" y="536" on="1"/>
        <pt x="224" y="507" on="1"/>
      </contour>
    </TTGlyph>
    <TTGlyph name="ffl" xMin="30" yMin="0" xMax="771" yMax="718">
      <contour>
        <pt x="104" y="507" on="1"/>
        <pt x="104" y="537" on="1"/>
        <pt x="104" y="622" on="0"/>
        <pt x="199" y="718" on="0"/>
        <pt x="366" y="718" on="0"/>
        <pt x="440" y="683" on="1"/>
        <pt x="486" y="718" on="0"/>
        <pt x="557" y="718" on="1"/>
        <pt x="657" y="718" on="0"/>
        <pt x="771" y="660" on="1"/>
        <pt x="771" y="0" on="1"/>
        <pt x="651" y="0" on="1"/>
        <pt x="651" y="607" on="1"/>
        <pt x="612" y="618" on="0"/>
        <pt x="539" y="618" on="0"/>
        <pt x="499" y="583" on="0"/>
        <pt x="499" y="536" on="1"/>
        <pt x="499" y="507" on="1"/>
        <pt x="600" y="507" on="1"/>
        <pt x="600" y="417" on="1"/>
        <pt x="499" y="417" on="1"/>
        <pt x="499" y="0" on="1"/>
        <pt x="379" y="0" on="1"/>
        <pt x="379" y="417" on="1"/>
        <pt x="224" y="417" on="1"/>
        <pt x="224" y="0" on="1"/>
        <pt x="104" y="0" on="1"/>
        <pt x="104" y="417" on="1"/>
        <pt x="30" y="417" on="1"/>
        <pt x="30" y="507" on="1"/>
      </contour>
      <contour>
        <pt x="379" y="507" on="1"/>
        <pt x="379" y="537" on="1"/>
        <pt x="379" y="571" on="0"/>
        <pt x="387" y="601" on="1"/>
        <pt x="339" y="618" on="0"/>
        <pt x="262" y="618" on="0"/>
        <pt x="224" y="581" on="0"/>
        <pt x="224" y="536" on="1"/>
        <pt x="224" y="507" on="1"/>
      </contour>
    </TTGlyph>
</ttFont>
